<?xml version="1.0" encoding="UTF-8"?>
<svg xmlns="http://www.w3.org/2000/svg" xmlns:xlink="http://www.w3.org/1999/xlink" width="432pt" height="252pt" viewBox="0 0 432 252">
<defs>
<clipPath id="clip-0">
<path clip-rule="nonzero" d="M 8.964844 8.964844 L 423.03125 8.964844 L 423.03125 243.03125 L 8.964844 243.03125 Z M 8.964844 8.964844 "/>
</clipPath>
</defs>
<rect x="-43.2" y="-25.2" width="518.4" height="302.4" fill="rgb(100%, 100%, 100%)" fill-opacity="1"/>
<rect x="-43.2" y="-25.2" width="518.4" height="302.4" fill="rgb(10.588235%, 10.588235%, 11.372549%)" fill-opacity="1"/>
<g clip-path="url(#clip-0)">
<path fill-rule="nonzero" fill="rgb(10.588235%, 10.588235%, 11.372549%)" fill-opacity="1" d="M 8.964844 243.035156 L 423.03125 243.035156 L 423.03125 8.96875 L 8.964844 8.96875 Z M 8.964844 243.035156 "/>
</g>
<path fill="none" stroke-width="4.694705" stroke-linecap="butt" stroke-linejoin="round" stroke="rgb(0%, 94.117647%, 100%)" stroke-opacity="1" stroke-miterlimit="10" d="M 27.789062 232.394531 L 77.871094 232.394531 L 78.410156 232.390625 L 88.640625 232.390625 L 89.179688 232.386719 L 92.949219 232.386719 L 93.488281 232.382812 L 96.179688 232.382812 L 96.71875 232.378906 L 98.332031 232.378906 L 98.871094 232.375 L 100.488281 232.375 L 101.027344 232.371094 L 102.101562 232.371094 L 102.640625 232.367188 L 103.179688 232.367188 L 103.71875 232.363281 L 104.796875 232.363281 L 105.335938 232.359375 L 105.871094 232.359375 L 106.410156 232.355469 L 106.949219 232.355469 L 108.027344 232.347656 L 108.566406 232.347656 L 109.105469 232.34375 L 109.640625 232.339844 L 110.179688 232.335938 L 110.71875 232.335938 L 113.414062 232.316406 L 113.949219 232.3125 L 114.488281 232.308594 L 115.027344 232.300781 L 116.105469 232.292969 L 116.644531 232.285156 L 117.183594 232.28125 L 117.71875 232.273438 L 118.257812 232.269531 L 120.953125 232.230469 L 121.488281 232.222656 L 122.027344 232.214844 L 122.566406 232.203125 L 123.105469 232.195312 L 124.183594 232.171875 L 124.722656 232.164062 L 125.257812 232.152344 L 125.796875 232.136719 L 126.875 232.113281 L 128.492188 232.066406 L 129.027344 232.050781 L 129.566406 232.035156 L 130.105469 232.015625 L 130.644531 232 L 131.183594 231.980469 L 131.722656 231.957031 L 132.261719 231.9375 L 132.796875 231.914062 L 133.335938 231.894531 L 133.875 231.867188 L 134.414062 231.84375 L 136.03125 231.761719 L 136.570312 231.730469 L 137.105469 231.699219 L 138.183594 231.636719 L 138.722656 231.601562 L 139.261719 231.5625 L 139.800781 231.527344 L 140.339844 231.484375 L 140.875 231.445312 L 141.414062 231.402344 L 141.953125 231.355469 L 142.492188 231.3125 L 144.109375 231.160156 L 144.644531 231.105469 L 145.183594 231.050781 L 145.722656 230.988281 L 146.261719 230.929688 L 146.800781 230.867188 L 147.339844 230.800781 L 147.878906 230.730469 L 148.414062 230.660156 L 149.492188 230.511719 L 150.570312 230.347656 L 151.109375 230.261719 L 151.648438 230.171875 L 152.183594 230.082031 L 152.722656 229.988281 L 153.800781 229.785156 L 154.339844 229.679688 L 154.878906 229.570312 L 155.417969 229.457031 L 155.957031 229.335938 L 156.492188 229.214844 L 157.03125 229.089844 L 158.109375 228.824219 L 158.648438 228.683594 L 159.1875 228.539062 L 159.726562 228.390625 L 160.261719 228.234375 L 160.800781 228.074219 L 161.339844 227.910156 L 161.878906 227.738281 L 162.417969 227.5625 L 162.957031 227.382812 L 163.496094 227.195312 L 164.03125 227 L 164.570312 226.800781 L 165.109375 226.59375 L 165.648438 226.382812 L 166.1875 226.160156 L 166.726562 225.933594 L 167.265625 225.703125 L 167.800781 225.460938 L 168.339844 225.210938 L 168.878906 224.957031 L 169.417969 224.695312 L 169.957031 224.421875 L 170.496094 224.144531 L 171.035156 223.855469 L 171.570312 223.5625 L 172.109375 223.257812 L 172.648438 222.941406 L 173.1875 222.621094 L 173.726562 222.289062 L 174.265625 221.949219 L 174.804688 221.597656 L 175.34375 221.238281 L 175.878906 220.871094 L 176.417969 220.488281 L 176.957031 220.101562 L 177.496094 219.699219 L 178.035156 219.289062 L 178.574219 218.867188 L 179.113281 218.433594 L 179.648438 217.988281 L 180.1875 217.53125 L 180.726562 217.066406 L 181.265625 216.585938 L 181.804688 216.09375 L 182.34375 215.589844 L 182.882812 215.074219 L 183.417969 214.546875 L 183.957031 214.003906 L 184.496094 213.449219 L 185.035156 212.882812 L 185.574219 212.300781 L 186.113281 211.707031 L 186.652344 211.097656 L 187.1875 210.476562 L 187.726562 209.839844 L 188.265625 209.1875 L 188.804688 208.523438 L 189.34375 207.84375 L 189.882812 207.148438 L 190.421875 206.441406 L 190.957031 205.714844 L 191.496094 204.976562 L 192.035156 204.222656 L 192.574219 203.449219 L 193.113281 202.664062 L 193.652344 201.863281 L 194.191406 201.042969 L 194.726562 200.210938 L 195.265625 199.359375 L 195.804688 198.492188 L 196.34375 197.609375 L 196.882812 196.710938 L 197.421875 195.792969 L 197.960938 194.859375 L 198.5 193.910156 L 199.035156 192.945312 L 199.574219 191.960938 L 200.113281 190.960938 L 200.652344 189.941406 L 201.191406 188.90625 L 201.730469 187.855469 L 202.269531 186.785156 L 202.804688 185.699219 L 203.34375 184.59375 L 203.882812 183.472656 L 204.421875 182.335938 L 204.960938 181.179688 L 205.5 180.007812 L 206.039062 178.820312 L 206.574219 177.613281 L 207.113281 176.390625 L 207.652344 175.148438 L 208.191406 173.890625 L 208.730469 172.617188 L 209.269531 171.324219 L 209.808594 170.019531 L 210.34375 168.695312 L 210.882812 167.355469 L 211.421875 165.996094 L 211.960938 164.625 L 212.5 163.238281 L 213.039062 161.832031 L 213.578125 160.414062 L 214.113281 158.980469 L 214.652344 157.53125 L 215.191406 156.066406 L 215.730469 154.585938 L 216.269531 153.09375 L 216.808594 151.585938 L 217.347656 150.066406 L 217.886719 148.53125 L 218.421875 146.984375 L 218.960938 145.421875 L 219.5 143.851562 L 220.039062 142.265625 L 220.578125 140.667969 L 221.117188 139.0625 L 221.65625 137.441406 L 222.191406 135.8125 L 222.730469 134.171875 L 223.269531 132.523438 L 223.808594 130.867188 L 224.347656 129.199219 L 224.886719 127.523438 L 225.425781 125.839844 L 225.960938 124.148438 L 226.5 122.449219 L 227.039062 120.746094 L 227.578125 119.035156 L 228.117188 117.320312 L 229.195312 113.875 L 229.730469 112.148438 L 231.347656 106.945312 L 231.886719 105.207031 L 232.425781 103.472656 L 232.964844 101.734375 L 233.5 99.996094 L 234.578125 96.527344 L 235.65625 93.066406 L 236.734375 89.621094 L 237.273438 87.90625 L 237.808594 86.199219 L 238.347656 84.496094 L 238.886719 82.800781 L 239.425781 81.113281 L 239.964844 79.4375 L 240.503906 77.769531 L 241.042969 76.109375 L 241.578125 74.460938 L 242.117188 72.824219 L 242.65625 71.203125 L 243.195312 69.589844 L 243.734375 67.992188 L 244.273438 66.410156 L 244.8125 64.84375 L 245.347656 63.292969 L 245.886719 61.757812 L 246.425781 60.238281 L 246.964844 58.738281 L 247.503906 57.257812 L 248.042969 55.796875 L 248.582031 54.355469 L 249.117188 52.933594 L 249.65625 51.53125 L 250.195312 50.15625 L 250.734375 48.800781 L 251.273438 47.46875 L 251.8125 46.164062 L 252.351562 44.878906 L 252.886719 43.625 L 253.425781 42.390625 L 253.964844 41.1875 L 254.503906 40.011719 L 255.042969 38.863281 L 255.582031 37.742188 L 256.121094 36.648438 L 256.65625 35.585938 L 257.195312 34.554688 L 257.734375 33.554688 L 258.273438 32.582031 L 258.8125 31.644531 L 259.351562 30.738281 L 259.890625 29.863281 L 260.429688 29.023438 L 260.964844 28.214844 L 261.503906 27.445312 L 262.042969 26.703125 L 262.582031 26 L 263.121094 25.332031 L 263.660156 24.699219 L 264.199219 24.101562 L 264.734375 23.539062 L 265.273438 23.011719 L 265.8125 22.523438 L 266.351562 22.074219 L 266.890625 21.660156 L 267.429688 21.28125 L 267.96875 20.945312 L 268.503906 20.644531 L 269.042969 20.378906 L 269.582031 20.15625 L 270.121094 19.96875 L 270.660156 19.820312 L 271.199219 19.710938 L 271.738281 19.636719 L 272.273438 19.605469 L 272.8125 19.613281 L 273.351562 19.65625 L 273.890625 19.738281 L 274.429688 19.859375 L 274.96875 20.019531 L 275.507812 20.21875 L 276.042969 20.453125 L 276.582031 20.730469 L 277.121094 21.042969 L 277.660156 21.390625 L 278.199219 21.78125 L 278.738281 22.207031 L 279.277344 22.667969 L 279.816406 23.167969 L 280.351562 23.703125 L 280.890625 24.277344 L 281.429688 24.882812 L 281.96875 25.527344 L 282.507812 26.207031 L 283.046875 26.921875 L 283.585938 27.671875 L 284.121094 28.457031 L 284.660156 29.273438 L 285.199219 30.125 L 285.738281 31.007812 L 286.277344 31.921875 L 286.816406 32.871094 L 287.355469 33.851562 L 287.890625 34.863281 L 288.429688 35.902344 L 288.96875 36.972656 L 289.507812 38.074219 L 290.046875 39.203125 L 290.585938 40.359375 L 291.125 41.546875 L 291.660156 42.757812 L 292.199219 43.996094 L 292.738281 45.261719 L 293.277344 46.550781 L 293.816406 47.867188 L 294.355469 49.203125 L 294.894531 50.566406 L 295.429688 51.949219 L 295.96875 53.355469 L 296.507812 54.785156 L 297.046875 56.230469 L 297.585938 57.699219 L 298.125 59.1875 L 298.664062 60.691406 L 299.203125 62.214844 L 299.738281 63.753906 L 300.277344 65.3125 L 300.816406 66.882812 L 301.355469 68.472656 L 301.894531 70.074219 L 302.433594 71.6875 L 302.972656 73.316406 L 303.507812 74.953125 L 304.046875 76.605469 L 304.585938 78.269531 L 305.125 79.9375 L 305.664062 81.621094 L 306.203125 83.308594 L 306.742188 85.007812 L 307.277344 86.710938 L 307.816406 88.421875 L 308.355469 90.136719 L 308.894531 91.859375 L 309.972656 95.3125 L 310.511719 97.046875 L 311.046875 98.78125 L 311.585938 100.515625 L 313.742188 107.46875 L 314.28125 109.203125 L 314.816406 110.933594 L 315.894531 114.394531 L 316.433594 116.117188 L 316.972656 117.835938 L 317.511719 119.550781 L 318.050781 121.257812 L 318.585938 122.960938 L 319.125 124.65625 L 319.664062 126.34375 L 320.203125 128.027344 L 320.742188 129.699219 L 321.28125 131.363281 L 321.820312 133.019531 L 322.359375 134.667969 L 322.894531 136.304688 L 323.433594 137.929688 L 323.972656 139.542969 L 324.511719 141.148438 L 325.050781 142.742188 L 325.589844 144.324219 L 326.128906 145.890625 L 326.664062 147.449219 L 327.203125 148.992188 L 327.742188 150.523438 L 328.28125 152.039062 L 328.820312 153.542969 L 329.359375 155.03125 L 329.898438 156.507812 L 330.433594 157.964844 L 330.972656 159.410156 L 331.511719 160.839844 L 332.050781 162.257812 L 332.589844 163.65625 L 333.128906 165.039062 L 333.667969 166.40625 L 334.203125 167.757812 L 334.742188 169.09375 L 335.28125 170.414062 L 335.820312 171.714844 L 336.359375 173 L 336.898438 174.269531 L 337.4375 175.523438 L 337.972656 176.757812 L 338.511719 177.976562 L 339.050781 179.179688 L 339.589844 180.363281 L 340.128906 181.53125 L 340.667969 182.679688 L 341.207031 183.8125 L 341.746094 184.929688 L 342.28125 186.027344 L 342.820312 187.109375 L 343.359375 188.171875 L 343.898438 189.21875 L 344.4375 190.25 L 344.976562 191.261719 L 345.515625 192.257812 L 346.050781 193.234375 L 346.589844 194.195312 L 347.128906 195.140625 L 347.667969 196.070312 L 348.207031 196.980469 L 348.746094 197.875 L 349.285156 198.753906 L 349.820312 199.617188 L 350.359375 200.460938 L 350.898438 201.289062 L 351.4375 202.105469 L 351.976562 202.902344 L 352.515625 203.683594 L 353.054688 204.449219 L 353.589844 205.199219 L 354.128906 205.933594 L 354.667969 206.65625 L 355.207031 207.359375 L 355.746094 208.050781 L 356.285156 208.726562 L 356.824219 209.386719 L 357.359375 210.03125 L 357.898438 210.664062 L 358.4375 211.28125 L 358.976562 211.886719 L 359.515625 212.476562 L 360.054688 213.054688 L 360.59375 213.617188 L 361.132812 214.167969 L 361.667969 214.707031 L 362.207031 215.230469 L 362.746094 215.742188 L 363.285156 216.242188 L 363.824219 216.730469 L 364.363281 217.207031 L 364.902344 217.671875 L 365.4375 218.121094 L 365.976562 218.5625 L 366.515625 218.992188 L 367.054688 219.414062 L 367.59375 219.820312 L 368.132812 220.21875 L 368.671875 220.605469 L 369.207031 220.980469 L 369.746094 221.347656 L 370.285156 221.707031 L 370.824219 222.050781 L 371.363281 222.390625 L 371.902344 222.71875 L 372.441406 223.039062 L 372.976562 223.347656 L 373.515625 223.648438 L 374.054688 223.945312 L 374.59375 224.226562 L 375.132812 224.503906 L 375.671875 224.773438 L 376.210938 225.035156 L 376.746094 225.289062 L 377.285156 225.535156 L 377.824219 225.773438 L 378.363281 226.003906 L 378.902344 226.226562 L 379.441406 226.445312 L 379.980469 226.65625 L 380.515625 226.859375 L 381.054688 227.058594 L 381.59375 227.25 L 382.132812 227.4375 L 382.671875 227.617188 L 383.210938 227.792969 L 383.75 227.960938 L 384.289062 228.125 L 384.824219 228.28125 L 385.363281 228.433594 L 385.902344 228.582031 L 386.441406 228.726562 L 387.519531 229 L 388.058594 229.128906 L 388.59375 229.253906 L 389.132812 229.375 L 390.210938 229.601562 L 390.75 229.710938 L 391.289062 229.816406 L 391.828125 229.917969 L 392.363281 230.015625 L 392.902344 230.109375 L 393.980469 230.289062 L 395.058594 230.453125 L 395.597656 230.53125 L 396.132812 230.609375 L 396.671875 230.683594 L 397.210938 230.753906 L 398.289062 230.886719 L 398.828125 230.949219 L 399.367188 231.007812 L 399.902344 231.066406 L 400.980469 231.175781 L 402.058594 231.277344 L 403.136719 231.371094 L 403.675781 231.414062 L 404.210938 231.457031 "/>
<path fill="none" stroke-width="4.694705" stroke-linecap="butt" stroke-linejoin="round" stroke="rgb(100%, 16.862745%, 83.921569%)" stroke-opacity="1" stroke-miterlimit="10" d="M 27.789062 231.457031 L 28.324219 231.414062 L 28.863281 231.371094 L 29.941406 231.277344 L 31.019531 231.175781 L 32.097656 231.066406 L 32.632812 231.007812 L 33.171875 230.949219 L 33.710938 230.886719 L 34.789062 230.753906 L 35.328125 230.683594 L 35.867188 230.609375 L 36.402344 230.53125 L 36.941406 230.453125 L 38.019531 230.289062 L 39.097656 230.109375 L 39.636719 230.015625 L 40.171875 229.917969 L 40.710938 229.816406 L 41.25 229.710938 L 41.789062 229.601562 L 42.867188 229.375 L 43.40625 229.253906 L 43.941406 229.128906 L 44.480469 229 L 45.558594 228.726562 L 46.097656 228.582031 L 46.636719 228.433594 L 47.175781 228.28125 L 47.710938 228.125 L 48.25 227.960938 L 48.789062 227.792969 L 49.328125 227.617188 L 49.867188 227.4375 L 50.40625 227.25 L 50.945312 227.058594 L 51.484375 226.859375 L 52.019531 226.65625 L 52.558594 226.445312 L 53.097656 226.226562 L 53.636719 226.003906 L 54.175781 225.773438 L 54.714844 225.535156 L 55.253906 225.289062 L 55.789062 225.035156 L 56.328125 224.773438 L 56.867188 224.503906 L 57.40625 224.226562 L 57.945312 223.945312 L 58.484375 223.648438 L 59.023438 223.347656 L 59.558594 223.039062 L 60.097656 222.71875 L 60.636719 222.390625 L 61.175781 222.050781 L 61.714844 221.707031 L 62.253906 221.347656 L 62.792969 220.980469 L 63.328125 220.605469 L 63.867188 220.21875 L 64.40625 219.820312 L 64.945312 219.414062 L 65.484375 218.992188 L 66.023438 218.5625 L 66.5625 218.121094 L 67.097656 217.671875 L 67.636719 217.207031 L 68.175781 216.730469 L 68.714844 216.242188 L 69.253906 215.742188 L 69.792969 215.230469 L 70.332031 214.707031 L 70.867188 214.167969 L 71.40625 213.617188 L 71.945312 213.054688 L 72.484375 212.476562 L 73.023438 211.886719 L 73.5625 211.28125 L 74.101562 210.664062 L 74.640625 210.03125 L 75.175781 209.386719 L 75.714844 208.726562 L 76.253906 208.050781 L 76.792969 207.359375 L 77.332031 206.65625 L 77.871094 205.933594 L 78.410156 205.199219 L 78.945312 204.449219 L 79.484375 203.683594 L 80.023438 202.902344 L 80.5625 202.105469 L 81.101562 201.289062 L 81.640625 200.460938 L 82.179688 199.617188 L 82.714844 198.753906 L 83.253906 197.875 L 83.792969 196.980469 L 84.332031 196.070312 L 84.871094 195.140625 L 85.410156 194.195312 L 85.949219 193.234375 L 86.484375 192.257812 L 87.023438 191.261719 L 87.5625 190.25 L 88.101562 189.21875 L 88.640625 188.171875 L 89.179688 187.109375 L 89.71875 186.027344 L 90.253906 184.929688 L 90.792969 183.8125 L 91.332031 182.679688 L 91.871094 181.53125 L 92.410156 180.363281 L 92.949219 179.179688 L 93.488281 177.976562 L 94.027344 176.757812 L 94.5625 175.523438 L 95.101562 174.269531 L 95.640625 173 L 96.179688 171.714844 L 96.71875 170.414062 L 97.257812 169.09375 L 97.796875 167.757812 L 98.332031 166.40625 L 98.871094 165.039062 L 99.410156 163.65625 L 99.949219 162.257812 L 100.488281 160.839844 L 101.027344 159.410156 L 101.566406 157.964844 L 102.101562 156.507812 L 102.640625 155.03125 L 103.179688 153.542969 L 103.71875 152.039062 L 104.257812 150.523438 L 104.796875 148.992188 L 105.335938 147.449219 L 105.871094 145.890625 L 106.410156 144.324219 L 106.949219 142.742188 L 107.488281 141.148438 L 108.027344 139.542969 L 108.566406 137.929688 L 109.105469 136.304688 L 109.640625 134.667969 L 110.179688 133.019531 L 110.71875 131.363281 L 111.257812 129.699219 L 111.796875 128.027344 L 112.335938 126.34375 L 112.875 124.65625 L 113.414062 122.960938 L 113.949219 121.257812 L 114.488281 119.550781 L 115.027344 117.835938 L 115.566406 116.117188 L 116.105469 114.394531 L 117.183594 110.933594 L 117.71875 109.203125 L 118.257812 107.46875 L 120.414062 100.515625 L 120.953125 98.78125 L 121.488281 97.046875 L 122.027344 95.3125 L 123.105469 91.859375 L 123.644531 90.136719 L 124.183594 88.421875 L 124.722656 86.710938 L 125.257812 85.007812 L 125.796875 83.308594 L 126.335938 81.621094 L 126.875 79.9375 L 127.414062 78.269531 L 127.953125 76.605469 L 128.492188 74.953125 L 129.027344 73.316406 L 129.566406 71.6875 L 130.105469 70.074219 L 130.644531 68.472656 L 131.183594 66.882812 L 131.722656 65.3125 L 132.261719 63.753906 L 132.796875 62.214844 L 133.335938 60.691406 L 133.875 59.1875 L 134.414062 57.699219 L 134.953125 56.230469 L 135.492188 54.785156 L 136.03125 53.355469 L 136.570312 51.949219 L 137.105469 50.566406 L 137.644531 49.203125 L 138.183594 47.867188 L 138.722656 46.550781 L 139.261719 45.261719 L 139.800781 43.996094 L 140.339844 42.757812 L 140.875 41.546875 L 141.414062 40.359375 L 141.953125 39.203125 L 142.492188 38.074219 L 143.03125 36.972656 L 143.570312 35.902344 L 144.109375 34.863281 L 144.644531 33.851562 L 145.183594 32.871094 L 145.722656 31.921875 L 146.261719 31.007812 L 146.800781 30.125 L 147.339844 29.273438 L 147.878906 28.457031 L 148.414062 27.671875 L 148.953125 26.921875 L 149.492188 26.207031 L 150.03125 25.527344 L 150.570312 24.882812 L 151.109375 24.277344 L 151.648438 23.703125 L 152.183594 23.167969 L 152.722656 22.667969 L 153.261719 22.207031 L 153.800781 21.78125 L 154.339844 21.390625 L 154.878906 21.042969 L 155.417969 20.730469 L 155.957031 20.453125 L 156.492188 20.21875 L 157.03125 20.019531 L 157.570312 19.859375 L 158.109375 19.738281 L 158.648438 19.65625 L 159.1875 19.613281 L 159.726562 19.605469 L 160.261719 19.636719 L 160.800781 19.710938 L 161.339844 19.820312 L 161.878906 19.96875 L 162.417969 20.15625 L 162.957031 20.378906 L 163.496094 20.644531 L 164.03125 20.945312 L 164.570312 21.28125 L 165.109375 21.660156 L 165.648438 22.074219 L 166.1875 22.523438 L 166.726562 23.011719 L 167.265625 23.539062 L 167.800781 24.101562 L 168.339844 24.699219 L 168.878906 25.332031 L 169.417969 26 L 169.957031 26.703125 L 170.496094 27.445312 L 171.035156 28.214844 L 171.570312 29.023438 L 172.109375 29.863281 L 172.648438 30.738281 L 173.1875 31.644531 L 173.726562 32.582031 L 174.265625 33.554688 L 174.804688 34.554688 L 175.34375 35.585938 L 175.878906 36.648438 L 176.417969 37.742188 L 176.957031 38.863281 L 177.496094 40.011719 L 178.035156 41.1875 L 178.574219 42.390625 L 179.113281 43.625 L 179.648438 44.878906 L 180.1875 46.164062 L 180.726562 47.46875 L 181.265625 48.800781 L 181.804688 50.15625 L 182.34375 51.53125 L 182.882812 52.933594 L 183.417969 54.355469 L 183.957031 55.796875 L 184.496094 57.257812 L 185.035156 58.738281 L 185.574219 60.238281 L 186.113281 61.757812 L 186.652344 63.292969 L 187.1875 64.84375 L 187.726562 66.410156 L 188.265625 67.992188 L 188.804688 69.589844 L 189.34375 71.203125 L 189.882812 72.824219 L 190.421875 74.460938 L 190.957031 76.109375 L 191.496094 77.769531 L 192.035156 79.4375 L 192.574219 81.113281 L 193.113281 82.800781 L 193.652344 84.496094 L 194.191406 86.199219 L 194.726562 87.90625 L 195.265625 89.621094 L 196.34375 93.066406 L 197.421875 96.527344 L 198.5 99.996094 L 199.035156 101.734375 L 199.574219 103.472656 L 200.113281 105.207031 L 200.652344 106.945312 L 202.269531 112.148438 L 202.804688 113.875 L 203.882812 117.320312 L 204.421875 119.035156 L 204.960938 120.746094 L 205.5 122.449219 L 206.039062 124.148438 L 206.574219 125.839844 L 207.113281 127.523438 L 207.652344 129.199219 L 208.191406 130.867188 L 208.730469 132.523438 L 209.269531 134.171875 L 209.808594 135.8125 L 210.34375 137.441406 L 210.882812 139.0625 L 211.421875 140.667969 L 211.960938 142.265625 L 212.5 143.851562 L 213.039062 145.421875 L 213.578125 146.984375 L 214.113281 148.53125 L 214.652344 150.066406 L 215.191406 151.585938 L 215.730469 153.09375 L 216.269531 154.585938 L 216.808594 156.066406 L 217.347656 157.53125 L 217.886719 158.980469 L 218.421875 160.414062 L 218.960938 161.832031 L 219.5 163.238281 L 220.039062 164.625 L 220.578125 165.996094 L 221.117188 167.355469 L 221.65625 168.695312 L 222.191406 170.019531 L 222.730469 171.324219 L 223.269531 172.617188 L 223.808594 173.890625 L 224.347656 175.148438 L 224.886719 176.390625 L 225.425781 177.613281 L 225.960938 178.820312 L 226.5 180.007812 L 227.039062 181.179688 L 227.578125 182.335938 L 228.117188 183.472656 L 228.65625 184.59375 L 229.195312 185.699219 L 229.730469 186.785156 L 230.269531 187.855469 L 230.808594 188.90625 L 231.347656 189.941406 L 231.886719 190.960938 L 232.425781 191.960938 L 232.964844 192.945312 L 233.5 193.910156 L 234.039062 194.859375 L 234.578125 195.792969 L 235.117188 196.710938 L 235.65625 197.609375 L 236.195312 198.492188 L 236.734375 199.359375 L 237.273438 200.210938 L 237.808594 201.042969 L 238.347656 201.863281 L 238.886719 202.664062 L 239.425781 203.449219 L 239.964844 204.222656 L 240.503906 204.976562 L 241.042969 205.714844 L 241.578125 206.441406 L 242.117188 207.148438 L 242.65625 207.84375 L 243.195312 208.523438 L 243.734375 209.1875 L 244.273438 209.839844 L 244.8125 210.476562 L 245.347656 211.097656 L 245.886719 211.707031 L 246.425781 212.300781 L 246.964844 212.882812 L 247.503906 213.449219 L 248.042969 214.003906 L 248.582031 214.546875 L 249.117188 215.074219 L 249.65625 215.589844 L 250.195312 216.09375 L 250.734375 216.585938 L 251.273438 217.066406 L 251.8125 217.53125 L 252.351562 217.988281 L 252.886719 218.433594 L 253.425781 218.867188 L 253.964844 219.289062 L 254.503906 219.699219 L 255.042969 220.101562 L 255.582031 220.488281 L 256.121094 220.871094 L 256.65625 221.238281 L 257.195312 221.597656 L 257.734375 221.949219 L 258.273438 222.289062 L 258.8125 222.621094 L 259.351562 222.941406 L 259.890625 223.257812 L 260.429688 223.5625 L 260.964844 223.855469 L 261.503906 224.144531 L 262.042969 224.421875 L 262.582031 224.695312 L 263.121094 224.957031 L 263.660156 225.210938 L 264.199219 225.460938 L 264.734375 225.703125 L 265.273438 225.933594 L 265.8125 226.160156 L 266.351562 226.382812 L 266.890625 226.59375 L 267.429688 226.800781 L 267.96875 227 L 268.503906 227.195312 L 269.042969 227.382812 L 269.582031 227.5625 L 270.121094 227.738281 L 270.660156 227.910156 L 271.199219 228.074219 L 271.738281 228.234375 L 272.273438 228.390625 L 272.8125 228.539062 L 273.351562 228.683594 L 273.890625 228.824219 L 274.96875 229.089844 L 275.507812 229.214844 L 276.042969 229.335938 L 276.582031 229.457031 L 277.121094 229.570312 L 277.660156 229.679688 L 278.199219 229.785156 L 279.277344 229.988281 L 279.816406 230.082031 L 280.351562 230.171875 L 280.890625 230.261719 L 281.429688 230.347656 L 282.507812 230.511719 L 283.585938 230.660156 L 284.121094 230.730469 L 284.660156 230.800781 L 285.199219 230.867188 L 285.738281 230.929688 L 286.277344 230.988281 L 286.816406 231.050781 L 287.355469 231.105469 L 287.890625 231.160156 L 289.507812 231.3125 L 290.046875 231.355469 L 290.585938 231.402344 L 291.125 231.445312 L 291.660156 231.484375 L 292.199219 231.527344 L 292.738281 231.5625 L 293.277344 231.601562 L 293.816406 231.636719 L 294.894531 231.699219 L 295.429688 231.730469 L 295.96875 231.761719 L 297.585938 231.84375 L 298.125 231.867188 L 298.664062 231.894531 L 299.203125 231.914062 L 299.738281 231.9375 L 300.277344 231.957031 L 300.816406 231.980469 L 301.355469 232 L 301.894531 232.015625 L 302.433594 232.035156 L 302.972656 232.050781 L 303.507812 232.066406 L 305.125 232.113281 L 306.203125 232.136719 L 306.742188 232.152344 L 307.277344 232.164062 L 307.816406 232.171875 L 308.894531 232.195312 L 309.433594 232.203125 L 309.972656 232.214844 L 310.511719 232.222656 L 311.046875 232.230469 L 313.742188 232.269531 L 314.28125 232.273438 L 314.816406 232.28125 L 315.355469 232.285156 L 315.894531 232.292969 L 316.972656 232.300781 L 317.511719 232.308594 L 318.050781 232.3125 L 318.585938 232.316406 L 321.28125 232.335938 L 321.820312 232.335938 L 322.359375 232.339844 L 322.894531 232.34375 L 323.433594 232.347656 L 323.972656 232.347656 L 325.050781 232.355469 L 325.589844 232.355469 L 326.128906 232.359375 L 326.664062 232.359375 L 327.203125 232.363281 L 328.28125 232.363281 L 328.820312 232.367188 L 329.359375 232.367188 L 329.898438 232.371094 L 330.972656 232.371094 L 331.511719 232.375 L 333.128906 232.375 L 333.667969 232.378906 L 335.28125 232.378906 L 335.820312 232.382812 L 338.511719 232.382812 L 339.050781 232.386719 L 342.820312 232.386719 L 343.359375 232.390625 L 353.589844 232.390625 L 354.128906 232.394531 L 404.210938 232.394531 "/>
<path fill="none" stroke-width="4.694705" stroke-linecap="butt" stroke-linejoin="round" stroke="rgb(100%, 16.862745%, 83.921569%)" stroke-opacity="1" stroke-dasharray="9.389409 9.389409" stroke-miterlimit="10" d="M 27.789062 225.992188 L 28.324219 225.757812 L 28.863281 225.519531 L 29.402344 225.273438 L 29.941406 225.019531 L 30.480469 224.757812 L 31.019531 224.488281 L 31.558594 224.210938 L 32.097656 223.925781 L 32.632812 223.632812 L 33.171875 223.332031 L 33.710938 223.019531 L 34.25 222.699219 L 34.789062 222.371094 L 35.328125 222.03125 L 35.867188 221.683594 L 36.402344 221.328125 L 36.941406 220.960938 L 37.480469 220.582031 L 38.019531 220.195312 L 38.558594 219.796875 L 39.097656 219.390625 L 39.636719 218.96875 L 40.171875 218.539062 L 40.710938 218.097656 L 41.25 217.644531 L 41.789062 217.179688 L 42.328125 216.703125 L 42.867188 216.214844 L 43.40625 215.714844 L 43.941406 215.199219 L 44.480469 214.675781 L 45.019531 214.136719 L 45.558594 213.585938 L 46.097656 213.019531 L 46.636719 212.445312 L 47.175781 211.851562 L 47.710938 211.246094 L 48.25 210.628906 L 48.789062 209.996094 L 49.328125 209.347656 L 49.867188 208.6875 L 50.40625 208.011719 L 50.945312 207.320312 L 51.484375 206.613281 L 52.019531 205.894531 L 52.558594 205.15625 L 53.097656 204.40625 L 53.636719 203.640625 L 54.175781 202.855469 L 54.714844 202.058594 L 55.253906 201.246094 L 55.789062 200.414062 L 56.328125 199.566406 L 56.867188 198.707031 L 57.40625 197.828125 L 57.945312 196.929688 L 58.484375 196.019531 L 59.023438 195.089844 L 59.558594 194.144531 L 60.097656 193.179688 L 60.636719 192.203125 L 61.175781 191.203125 L 61.714844 190.191406 L 62.253906 189.160156 L 62.792969 188.113281 L 63.328125 187.046875 L 63.867188 185.964844 L 64.40625 184.867188 L 64.945312 183.75 L 65.484375 182.617188 L 66.023438 181.464844 L 66.5625 180.296875 L 67.097656 179.109375 L 67.636719 177.910156 L 68.175781 176.6875 L 68.714844 175.453125 L 69.253906 174.199219 L 69.792969 172.929688 L 70.332031 171.640625 L 70.867188 170.339844 L 71.40625 169.019531 L 71.945312 167.683594 L 72.484375 166.328125 L 73.023438 164.960938 L 73.5625 163.578125 L 74.101562 162.175781 L 74.640625 160.761719 L 75.175781 159.332031 L 75.714844 157.882812 L 76.253906 156.421875 L 76.792969 154.949219 L 77.332031 153.457031 L 77.871094 151.953125 L 78.410156 150.4375 L 78.945312 148.90625 L 79.484375 147.363281 L 80.023438 145.804688 L 80.5625 144.234375 L 81.101562 142.652344 L 81.640625 141.058594 L 82.179688 139.453125 L 82.714844 137.839844 L 83.253906 136.210938 L 83.792969 134.574219 L 84.332031 132.925781 L 84.871094 131.269531 L 85.410156 129.605469 L 85.949219 127.933594 L 86.484375 126.25 L 87.023438 124.5625 L 87.5625 122.863281 L 88.101562 121.160156 L 88.640625 119.453125 L 89.179688 117.738281 L 89.71875 116.019531 L 90.253906 114.296875 L 91.871094 109.105469 L 92.410156 107.371094 L 94.027344 102.15625 L 94.5625 100.417969 L 96.179688 95.214844 L 97.257812 91.761719 L 97.796875 90.042969 L 98.332031 88.324219 L 98.871094 86.613281 L 99.410156 84.910156 L 99.949219 83.214844 L 100.488281 81.527344 L 101.027344 79.84375 L 101.566406 78.175781 L 102.101562 76.511719 L 102.640625 74.863281 L 103.179688 73.222656 L 103.71875 71.597656 L 104.257812 69.980469 L 104.796875 68.382812 L 105.335938 66.796875 L 105.871094 65.222656 L 106.410156 63.667969 L 106.949219 62.128906 L 107.488281 60.605469 L 108.027344 59.101562 L 108.566406 57.617188 L 109.105469 56.148438 L 109.640625 54.703125 L 110.179688 53.277344 L 110.71875 51.871094 L 111.257812 50.488281 L 111.796875 49.128906 L 112.335938 47.792969 L 112.875 46.480469 L 113.414062 45.191406 L 113.949219 43.925781 L 114.488281 42.691406 L 115.027344 41.480469 L 115.566406 40.296875 L 116.105469 39.140625 L 116.644531 38.011719 L 117.183594 36.914062 L 117.71875 35.84375 L 118.257812 34.804688 L 118.796875 33.796875 L 119.335938 32.816406 L 119.875 31.871094 L 120.414062 30.957031 L 120.953125 30.074219 L 121.488281 29.226562 L 122.027344 28.410156 L 122.566406 27.628906 L 123.105469 26.882812 L 123.644531 26.167969 L 124.183594 25.492188 L 124.722656 24.847656 L 125.257812 24.242188 L 125.796875 23.671875 L 126.335938 23.136719 L 126.875 22.640625 L 127.414062 22.179688 L 127.953125 21.757812 L 128.492188 21.371094 L 129.027344 21.023438 L 129.566406 20.710938 L 130.105469 20.441406 L 130.644531 20.207031 L 131.183594 20.011719 L 131.722656 19.851562 L 132.261719 19.734375 L 132.796875 19.652344 L 133.335938 19.609375 L 133.875 19.605469 L 134.414062 19.640625 L 134.953125 19.714844 L 135.492188 19.828125 L 136.03125 19.976562 L 136.570312 20.167969 L 137.105469 20.394531 L 137.644531 20.660156 L 138.183594 20.960938 L 138.722656 21.304688 L 139.261719 21.683594 L 139.800781 22.097656 L 140.339844 22.550781 L 140.875 23.042969 L 141.414062 23.570312 L 141.953125 24.132812 L 142.492188 24.734375 L 143.03125 25.367188 L 143.570312 26.039062 L 144.109375 26.746094 L 144.644531 27.484375 L 145.183594 28.261719 L 145.722656 29.070312 L 146.261719 29.914062 L 146.800781 30.789062 L 147.339844 31.695312 L 147.878906 32.636719 L 148.414062 33.609375 L 148.953125 34.613281 L 149.492188 35.644531 L 150.03125 36.710938 L 150.570312 37.804688 L 151.109375 38.925781 L 151.648438 40.078125 L 152.183594 41.253906 L 152.722656 42.460938 L 153.261719 43.691406 L 153.800781 44.953125 L 154.339844 46.234375 L 154.878906 47.542969 L 155.417969 48.875 L 155.957031 50.230469 L 156.492188 51.609375 L 157.03125 53.011719 L 157.570312 54.433594 L 158.109375 55.878906 L 158.648438 57.339844 L 159.1875 58.824219 L 159.726562 60.324219 L 160.261719 61.84375 L 160.800781 63.378906 L 161.339844 64.929688 L 161.878906 66.5 L 162.417969 68.082031 L 162.957031 69.679688 L 163.496094 71.292969 L 164.03125 72.917969 L 164.570312 74.554688 L 165.109375 76.203125 L 165.648438 77.863281 L 166.1875 79.53125 L 166.726562 81.210938 L 167.265625 82.898438 L 167.800781 84.59375 L 168.339844 86.292969 L 168.878906 88.003906 L 169.417969 89.71875 L 169.957031 91.4375 L 171.035156 94.890625 L 171.570312 96.625 L 172.648438 100.09375 L 174.265625 105.308594 L 175.34375 108.777344 L 175.878906 110.511719 L 176.957031 113.972656 L 178.035156 117.417969 L 178.574219 119.132812 L 179.113281 120.839844 L 179.648438 122.546875 L 180.1875 124.242188 L 180.726562 125.933594 L 181.265625 127.617188 L 181.804688 129.292969 L 182.34375 130.960938 L 182.882812 132.617188 L 183.417969 134.265625 L 183.957031 135.90625 L 184.496094 137.535156 L 185.035156 139.152344 L 185.574219 140.757812 L 186.113281 142.355469 L 186.652344 143.9375 L 187.1875 145.511719 L 187.726562 147.070312 L 188.265625 148.617188 L 188.804688 150.152344 L 189.34375 151.671875 L 189.882812 153.175781 L 190.421875 154.667969 L 190.957031 156.148438 L 191.496094 157.613281 L 192.035156 159.058594 L 192.574219 160.492188 L 193.113281 161.914062 L 193.652344 163.316406 L 194.191406 164.703125 L 194.726562 166.074219 L 195.265625 167.429688 L 195.804688 168.769531 L 196.34375 170.09375 L 196.882812 171.398438 L 197.421875 172.6875 L 197.960938 173.960938 L 198.5 175.21875 L 199.035156 176.457031 L 199.574219 177.679688 L 200.113281 178.886719 L 200.652344 180.074219 L 201.191406 181.246094 L 201.730469 182.402344 L 202.269531 183.539062 L 202.804688 184.65625 L 203.34375 185.761719 L 203.882812 186.847656 L 204.421875 187.914062 L 204.960938 188.964844 L 205.5 190 L 206.039062 191.015625 L 206.574219 192.015625 L 207.113281 193 L 207.652344 193.964844 L 208.191406 194.914062 L 208.730469 195.84375 L 209.269531 196.761719 L 209.808594 197.660156 L 210.34375 198.542969 L 210.882812 199.40625 L 211.421875 200.257812 L 211.960938 201.089844 L 212.5 201.90625 L 213.039062 202.707031 L 213.578125 203.496094 L 214.113281 204.265625 L 214.652344 205.019531 L 215.191406 205.757812 L 215.730469 206.480469 L 216.269531 207.1875 L 216.808594 207.882812 L 217.347656 208.5625 L 217.886719 209.226562 L 218.421875 209.875 L 218.960938 210.511719 L 219.5 211.132812 L 220.039062 211.738281 L 220.578125 212.332031 L 221.117188 212.914062 L 221.65625 213.480469 L 222.191406 214.035156 L 222.730469 214.574219 L 223.269531 215.101562 L 223.808594 215.617188 L 224.347656 216.121094 L 224.886719 216.613281 L 225.425781 217.089844 L 225.960938 217.558594 L 226.5 218.011719 L 227.039062 218.457031 L 227.578125 218.890625 L 228.117188 219.3125 L 228.65625 219.722656 L 229.195312 220.121094 L 229.730469 220.511719 L 230.269531 220.890625 L 230.808594 221.257812 L 231.347656 221.617188 L 231.886719 221.96875 L 232.425781 222.308594 L 232.964844 222.640625 L 233.5 222.960938 L 234.039062 223.273438 L 234.578125 223.578125 L 235.117188 223.871094 L 235.65625 224.160156 L 236.195312 224.4375 L 236.734375 224.707031 L 237.273438 224.972656 L 237.808594 225.226562 L 238.347656 225.472656 L 238.886719 225.714844 L 239.425781 225.949219 L 240.503906 226.394531 L 241.042969 226.605469 L 241.578125 226.8125 L 242.117188 227.011719 L 242.65625 227.203125 L 243.195312 227.390625 L 243.734375 227.574219 L 244.273438 227.75 L 244.8125 227.917969 L 245.347656 228.085938 L 246.425781 228.398438 L 246.964844 228.546875 L 247.503906 228.691406 L 248.042969 228.832031 L 248.582031 228.964844 L 249.117188 229.097656 L 249.65625 229.222656 L 250.195312 229.34375 L 250.734375 229.460938 L 251.273438 229.574219 L 252.351562 229.792969 L 252.886719 229.894531 L 253.425781 229.992188 L 254.503906 230.179688 L 255.582031 230.351562 L 256.121094 230.433594 L 256.65625 230.515625 L 257.734375 230.664062 L 258.8125 230.804688 L 259.351562 230.871094 L 259.890625 230.933594 L 260.429688 230.992188 L 260.964844 231.050781 L 261.503906 231.109375 L 262.042969 231.164062 L 263.121094 231.265625 L 264.199219 231.359375 L 264.734375 231.40625 L 265.273438 231.445312 L 265.8125 231.488281 L 266.890625 231.566406 L 267.96875 231.636719 L 268.503906 231.671875 L 269.582031 231.734375 L 270.121094 231.761719 L 270.660156 231.792969 L 271.199219 231.820312 L 271.738281 231.84375 L 272.273438 231.871094 L 273.351562 231.917969 L 273.890625 231.9375 L 274.429688 231.960938 L 275.507812 232 L 276.042969 232.019531 L 277.121094 232.050781 L 277.660156 232.070312 L 278.199219 232.082031 L 279.277344 232.113281 L 279.816406 232.125 L 280.351562 232.140625 L 281.96875 232.175781 L 282.507812 232.183594 L 283.585938 232.207031 L 284.121094 232.214844 L 287.355469 232.261719 L 287.890625 232.269531 L 288.429688 232.273438 L 288.96875 232.28125 L 289.507812 232.285156 L 290.046875 232.292969 L 291.125 232.300781 L 291.660156 232.308594 L 294.894531 232.332031 L 295.429688 232.335938 L 295.96875 232.335938 L 297.585938 232.347656 L 298.125 232.347656 L 299.203125 232.355469 L 299.738281 232.355469 L 300.277344 232.359375 L 300.816406 232.359375 L 301.355469 232.363281 L 301.894531 232.363281 L 302.433594 232.367188 L 303.507812 232.367188 L 304.046875 232.371094 L 305.125 232.371094 L 305.664062 232.375 L 306.742188 232.375 L 307.277344 232.378906 L 309.433594 232.378906 L 309.972656 232.382812 L 312.664062 232.382812 L 313.203125 232.386719 L 316.972656 232.386719 L 317.511719 232.390625 L 327.742188 232.390625 L 328.28125 232.394531 L 404.210938 232.394531 "/>
<path fill="none" stroke-width="4.694705" stroke-linecap="round" stroke-linejoin="round" stroke="rgb(43.921569%, 100%, 25.098039%)" stroke-opacity="1" stroke-miterlimit="10" d="M 159.535156 136.636719 L 128.953125 136.636719 "/>
<path fill-rule="nonzero" fill="rgb(43.921569%, 100%, 25.098039%)" fill-opacity="1" stroke-width="4.694705" stroke-linecap="round" stroke-linejoin="round" stroke="rgb(43.921569%, 100%, 25.098039%)" stroke-opacity="1" stroke-miterlimit="10" d="M 142.667969 128.71875 L 128.953125 136.636719 L 142.667969 144.558594 Z M 142.667969 128.71875 "/>
</svg>
