<?xml version="1.0" encoding="UTF-8"?>
<svg xmlns="http://www.w3.org/2000/svg" xmlns:xlink="http://www.w3.org/1999/xlink" width="432pt" height="252pt" viewBox="0 0 432 252">
<defs>
<clipPath id="clip-0">
<path clip-rule="nonzero" d="M 8.964844 8.964844 L 423.03125 8.964844 L 423.03125 243.03125 L 8.964844 243.03125 Z M 8.964844 8.964844 "/>
</clipPath>
</defs>
<rect x="-43.2" y="-25.2" width="518.4" height="302.4" fill="rgb(100%, 100%, 100%)" fill-opacity="1"/>
<rect x="-43.2" y="-25.2" width="518.4" height="302.4" fill="rgb(10.588235%, 10.588235%, 11.372549%)" fill-opacity="1"/>
<g clip-path="url(#clip-0)">
<path fill-rule="nonzero" fill="rgb(10.588235%, 10.588235%, 11.372549%)" fill-opacity="1" d="M 8.964844 243.035156 L 423.03125 243.035156 L 423.03125 8.96875 L 8.964844 8.96875 Z M 8.964844 243.035156 "/>
</g>
<path fill="none" stroke-width="4.694705" stroke-linecap="butt" stroke-linejoin="round" stroke="rgb(0%, 94.117647%, 100%)" stroke-opacity="1" stroke-miterlimit="10" d="M 27.789062 223.042969 L 28.324219 222.742188 L 28.863281 222.433594 L 29.402344 222.117188 L 29.941406 221.789062 L 30.480469 221.457031 L 31.019531 221.113281 L 31.558594 220.761719 L 32.097656 220.398438 L 32.632812 220.027344 L 33.171875 219.648438 L 33.710938 219.261719 L 34.25 218.859375 L 34.789062 218.453125 L 35.328125 218.03125 L 35.867188 217.605469 L 36.402344 217.164062 L 36.941406 216.714844 L 37.480469 216.253906 L 38.019531 215.78125 L 38.558594 215.300781 L 39.097656 214.804688 L 39.636719 214.300781 L 40.171875 213.785156 L 40.710938 213.253906 L 41.25 212.714844 L 41.789062 212.164062 L 42.328125 211.597656 L 42.867188 211.023438 L 43.40625 210.433594 L 43.941406 209.832031 L 44.480469 209.21875 L 45.019531 208.589844 L 45.558594 207.949219 L 46.097656 207.296875 L 46.636719 206.628906 L 47.175781 205.949219 L 47.710938 205.257812 L 48.25 204.550781 L 48.789062 203.828125 L 49.328125 203.09375 L 49.867188 202.34375 L 50.40625 201.582031 L 50.945312 200.804688 L 51.484375 200.011719 L 52.019531 199.207031 L 52.558594 198.386719 L 53.097656 197.550781 L 53.636719 196.699219 L 54.175781 195.835938 L 54.714844 194.953125 L 55.253906 194.058594 L 55.789062 193.148438 L 56.328125 192.222656 L 56.867188 191.285156 L 57.40625 190.328125 L 57.945312 189.355469 L 58.484375 188.371094 L 59.023438 187.371094 L 59.558594 186.351562 L 60.097656 185.320312 L 60.636719 184.273438 L 61.175781 183.210938 L 61.714844 182.132812 L 62.253906 181.039062 L 62.792969 179.929688 L 63.328125 178.804688 L 63.867188 177.667969 L 64.40625 176.511719 L 64.945312 175.34375 L 65.484375 174.15625 L 66.023438 172.957031 L 66.5625 171.742188 L 67.097656 170.511719 L 67.636719 169.269531 L 68.175781 168.011719 L 68.714844 166.738281 L 69.253906 165.449219 L 69.792969 164.148438 L 70.332031 162.832031 L 70.867188 161.503906 L 71.40625 160.160156 L 71.945312 158.800781 L 72.484375 157.433594 L 73.023438 156.046875 L 73.5625 154.652344 L 74.101562 153.242188 L 74.640625 151.820312 L 75.175781 150.386719 L 75.714844 148.941406 L 76.253906 147.484375 L 76.792969 146.011719 L 77.332031 144.53125 L 77.871094 143.042969 L 78.410156 141.539062 L 78.945312 140.027344 L 79.484375 138.503906 L 80.023438 136.972656 L 80.5625 135.429688 L 81.101562 133.878906 L 81.640625 132.320312 L 82.179688 130.753906 L 82.714844 129.179688 L 83.253906 127.597656 L 83.792969 126.007812 L 84.332031 124.410156 L 84.871094 122.808594 L 85.410156 121.199219 L 85.949219 119.585938 L 86.484375 117.96875 L 87.5625 114.71875 L 88.640625 111.453125 L 89.71875 108.179688 L 90.253906 106.539062 L 92.949219 98.335938 L 94.027344 95.0625 L 94.5625 93.429688 L 95.101562 91.800781 L 95.640625 90.175781 L 96.179688 88.554688 L 96.71875 86.9375 L 97.257812 85.328125 L 97.796875 83.722656 L 98.332031 82.125 L 98.871094 80.535156 L 99.410156 78.953125 L 99.949219 77.378906 L 100.488281 75.816406 L 101.027344 74.261719 L 101.566406 72.714844 L 102.101562 71.183594 L 102.640625 69.660156 L 103.179688 68.152344 L 103.71875 66.65625 L 104.257812 65.171875 L 104.796875 63.703125 L 105.335938 62.25 L 105.871094 60.808594 L 106.410156 59.386719 L 106.949219 57.976562 L 107.488281 56.589844 L 108.027344 55.214844 L 108.566406 53.859375 L 109.105469 52.523438 L 109.640625 51.207031 L 110.179688 49.910156 L 110.71875 48.636719 L 111.257812 47.378906 L 111.796875 46.148438 L 112.335938 44.9375 L 112.875 43.746094 L 113.414062 42.582031 L 113.949219 41.4375 L 114.488281 40.320312 L 115.027344 39.226562 L 115.566406 38.160156 L 116.105469 37.117188 L 116.644531 36.101562 L 117.183594 35.113281 L 117.71875 34.148438 L 118.257812 33.214844 L 118.796875 32.308594 L 119.335938 31.429688 L 119.875 30.578125 L 120.414062 29.757812 L 120.953125 28.96875 L 121.488281 28.207031 L 122.027344 27.476562 L 122.566406 26.777344 L 123.105469 26.105469 L 123.644531 25.46875 L 124.183594 24.863281 L 124.722656 24.289062 L 125.257812 23.746094 L 125.796875 23.234375 L 126.335938 22.757812 L 126.875 22.3125 L 127.414062 21.902344 L 127.953125 21.523438 L 128.492188 21.179688 L 129.027344 20.871094 L 129.566406 20.59375 L 130.105469 20.351562 L 130.644531 20.140625 L 131.183594 19.964844 L 131.722656 19.824219 L 132.261719 19.71875 L 132.796875 19.648438 L 133.335938 19.609375 L 133.875 19.605469 L 134.414062 19.636719 L 134.953125 19.703125 L 135.492188 19.800781 L 136.03125 19.9375 L 136.570312 20.105469 L 137.105469 20.308594 L 137.644531 20.542969 L 138.183594 20.816406 L 138.722656 21.121094 L 139.261719 21.457031 L 139.800781 21.828125 L 140.339844 22.234375 L 140.875 22.671875 L 141.414062 23.144531 L 141.953125 23.648438 L 142.492188 24.183594 L 143.03125 24.753906 L 143.570312 25.351562 L 144.109375 25.984375 L 144.644531 26.648438 L 145.183594 27.34375 L 145.722656 28.066406 L 146.261719 28.824219 L 146.800781 29.609375 L 147.339844 30.421875 L 147.878906 31.269531 L 148.414062 32.140625 L 148.953125 33.042969 L 149.492188 33.972656 L 150.03125 34.929688 L 150.570312 35.914062 L 151.109375 36.925781 L 151.648438 37.964844 L 152.183594 39.027344 L 152.722656 40.113281 L 153.261719 41.226562 L 153.800781 42.367188 L 154.339844 43.527344 L 154.878906 44.710938 L 155.417969 45.917969 L 155.957031 47.148438 L 156.492188 48.398438 L 157.03125 49.671875 L 157.570312 50.964844 L 158.109375 52.277344 L 158.648438 53.609375 L 159.1875 54.960938 L 159.726562 56.328125 L 160.261719 57.714844 L 160.800781 59.121094 L 161.339844 60.539062 L 161.878906 61.976562 L 162.417969 63.429688 L 162.957031 64.894531 L 163.496094 66.375 L 164.03125 67.871094 L 164.570312 69.378906 L 165.109375 70.898438 L 165.648438 72.429688 L 166.1875 73.96875 L 166.726562 75.523438 L 167.265625 77.085938 L 167.800781 78.65625 L 168.339844 80.238281 L 168.878906 81.828125 L 169.417969 83.421875 L 169.957031 85.027344 L 170.496094 86.636719 L 171.035156 88.25 L 171.570312 89.871094 L 172.109375 91.496094 L 172.648438 93.125 L 173.726562 96.390625 L 174.265625 98.03125 L 174.804688 99.667969 L 175.34375 101.308594 L 175.878906 102.949219 L 178.035156 109.511719 L 178.574219 111.148438 L 179.113281 112.78125 L 179.648438 114.414062 L 180.726562 117.664062 L 181.804688 120.898438 L 182.34375 122.507812 L 182.882812 124.109375 L 183.417969 125.707031 L 183.957031 127.300781 L 184.496094 128.882812 L 185.035156 130.460938 L 185.574219 132.027344 L 186.113281 133.589844 L 186.652344 135.140625 L 187.1875 136.683594 L 187.726562 138.21875 L 188.265625 139.742188 L 188.804688 141.257812 L 189.34375 142.761719 L 189.882812 144.253906 L 190.421875 145.738281 L 190.957031 147.207031 L 191.496094 148.667969 L 192.035156 150.117188 L 192.574219 151.550781 L 193.113281 152.976562 L 193.652344 154.386719 L 194.191406 155.789062 L 194.726562 157.171875 L 195.265625 158.546875 L 195.804688 159.90625 L 196.34375 161.25 L 196.882812 162.585938 L 197.421875 163.902344 L 197.960938 165.207031 L 198.5 166.496094 L 199.035156 167.773438 L 199.574219 169.035156 L 200.113281 170.28125 L 200.652344 171.511719 L 201.191406 172.730469 L 201.730469 173.933594 L 202.269531 175.121094 L 202.804688 176.292969 L 203.34375 177.449219 L 203.882812 178.59375 L 204.421875 179.71875 L 204.960938 180.832031 L 205.5 181.929688 L 206.039062 183.007812 L 206.574219 184.074219 L 207.113281 185.125 L 207.652344 186.160156 L 208.191406 187.179688 L 208.730469 188.183594 L 209.269531 189.171875 L 209.808594 190.148438 L 210.34375 191.105469 L 210.882812 192.046875 L 211.421875 192.976562 L 211.960938 193.890625 L 212.5 194.789062 L 213.039062 195.671875 L 213.578125 196.539062 L 214.113281 197.390625 L 214.652344 198.230469 L 215.191406 199.054688 L 215.730469 199.863281 L 216.269531 200.65625 L 216.808594 201.4375 L 217.347656 202.203125 L 217.886719 202.953125 L 218.421875 203.691406 L 218.960938 204.414062 L 219.5 205.125 L 220.039062 205.820312 L 220.578125 206.503906 L 221.117188 207.171875 L 221.65625 207.828125 L 222.191406 208.472656 L 222.730469 209.101562 L 223.269531 209.71875 L 223.808594 210.320312 L 224.347656 210.914062 L 224.886719 211.492188 L 225.425781 212.058594 L 225.960938 212.613281 L 226.5 213.15625 L 227.039062 213.683594 L 227.578125 214.203125 L 228.117188 214.710938 L 228.65625 215.207031 L 229.195312 215.691406 L 229.730469 216.164062 L 230.269531 216.628906 L 230.808594 217.082031 L 231.347656 217.523438 L 231.886719 217.953125 L 232.425781 218.375 L 232.964844 218.785156 L 233.5 219.1875 L 234.039062 219.578125 L 234.578125 219.957031 L 235.117188 220.332031 L 235.65625 220.695312 L 236.195312 221.046875 L 236.734375 221.390625 L 237.273438 221.730469 L 237.808594 222.054688 L 238.347656 222.375 L 238.886719 222.6875 L 239.425781 222.988281 L 239.964844 223.285156 L 240.503906 223.570312 L 241.042969 223.851562 L 241.578125 224.121094 L 242.117188 224.386719 L 242.65625 224.644531 L 243.195312 224.894531 L 243.734375 225.136719 L 244.273438 225.375 L 244.8125 225.601562 L 245.347656 225.828125 L 245.886719 226.042969 L 246.425781 226.253906 L 246.964844 226.460938 L 247.503906 226.660156 L 248.042969 226.851562 L 248.582031 227.039062 L 249.117188 227.222656 L 249.65625 227.398438 L 250.195312 227.570312 L 251.273438 227.898438 L 251.8125 228.054688 L 252.351562 228.207031 L 252.886719 228.351562 L 253.425781 228.496094 L 253.964844 228.632812 L 254.503906 228.765625 L 255.582031 229.023438 L 256.121094 229.144531 L 256.65625 229.261719 L 257.195312 229.375 L 257.734375 229.484375 L 258.8125 229.695312 L 259.890625 229.890625 L 260.429688 229.984375 L 260.964844 230.074219 L 262.042969 230.246094 L 262.582031 230.328125 L 263.121094 230.40625 L 264.199219 230.554688 L 264.734375 230.625 L 265.273438 230.695312 L 265.8125 230.761719 L 266.890625 230.886719 L 267.96875 231.003906 L 268.503906 231.058594 L 270.121094 231.210938 L 271.199219 231.304688 L 271.738281 231.347656 L 272.273438 231.390625 L 272.8125 231.433594 L 273.351562 231.472656 L 273.890625 231.507812 L 274.429688 231.546875 L 274.96875 231.582031 L 275.507812 231.613281 L 276.042969 231.648438 L 277.121094 231.710938 L 278.738281 231.792969 L 279.277344 231.816406 L 279.816406 231.84375 L 280.351562 231.867188 L 280.890625 231.890625 L 281.429688 231.910156 L 281.96875 231.933594 L 283.585938 231.992188 L 284.121094 232.007812 L 284.660156 232.023438 L 285.199219 232.042969 L 286.277344 232.074219 L 286.816406 232.085938 L 287.355469 232.101562 L 287.890625 232.113281 L 288.429688 232.125 L 288.96875 232.140625 L 289.507812 232.152344 L 290.046875 232.160156 L 291.125 232.183594 L 291.660156 232.191406 L 292.199219 232.203125 L 294.894531 232.242188 L 295.429688 232.25 L 295.96875 232.257812 L 296.507812 232.261719 L 297.585938 232.277344 L 298.664062 232.285156 L 299.203125 232.292969 L 299.738281 232.296875 L 301.355469 232.308594 L 301.894531 232.316406 L 302.972656 232.324219 L 303.507812 232.324219 L 305.664062 232.339844 L 306.203125 232.339844 L 306.742188 232.34375 L 307.277344 232.347656 L 307.816406 232.347656 L 308.355469 232.351562 L 308.894531 232.351562 L 309.972656 232.359375 L 311.046875 232.359375 L 311.585938 232.363281 L 312.125 232.363281 L 312.664062 232.367188 L 313.742188 232.367188 L 314.28125 232.371094 L 315.355469 232.371094 L 315.894531 232.375 L 316.972656 232.375 L 317.511719 232.378906 L 319.664062 232.378906 L 320.203125 232.382812 L 322.894531 232.382812 L 323.433594 232.386719 L 327.742188 232.386719 L 328.28125 232.390625 L 339.050781 232.390625 L 339.589844 232.394531 L 404.210938 232.394531 "/>
<path fill="none" stroke-width="4.694705" stroke-linecap="butt" stroke-linejoin="round" stroke="rgb(0%, 94.117647%, 100%)" stroke-opacity="1" stroke-dasharray="4.694705 14.084114" stroke-miterlimit="10" d="M 27.789062 232.394531 L 80.5625 232.394531 L 81.101562 232.390625 L 91.871094 232.390625 L 92.410156 232.386719 L 96.71875 232.386719 L 97.257812 232.382812 L 99.949219 232.382812 L 100.488281 232.378906 L 102.640625 232.378906 L 103.179688 232.375 L 104.257812 232.375 L 104.796875 232.371094 L 106.410156 232.371094 L 106.949219 232.367188 L 107.488281 232.367188 L 108.027344 232.363281 L 109.105469 232.363281 L 109.640625 232.359375 L 110.179688 232.359375 L 110.71875 232.355469 L 111.257812 232.355469 L 112.335938 232.347656 L 112.875 232.347656 L 113.414062 232.34375 L 113.949219 232.339844 L 114.488281 232.339844 L 116.105469 232.328125 L 116.644531 232.328125 L 117.183594 232.324219 L 117.71875 232.320312 L 119.335938 232.308594 L 119.875 232.300781 L 120.953125 232.292969 L 121.488281 232.289062 L 122.027344 232.28125 L 122.566406 232.277344 L 123.105469 232.269531 L 123.644531 232.265625 L 124.722656 232.25 L 125.257812 232.242188 L 125.796875 232.238281 L 126.335938 232.230469 L 126.875 232.21875 L 128.492188 232.195312 L 129.027344 232.183594 L 129.566406 232.175781 L 132.261719 232.117188 L 132.796875 232.101562 L 133.335938 232.089844 L 136.03125 232.011719 L 136.570312 231.992188 L 137.105469 231.976562 L 137.644531 231.957031 L 138.183594 231.933594 L 139.261719 231.894531 L 140.339844 231.847656 L 140.875 231.820312 L 141.414062 231.796875 L 143.03125 231.714844 L 144.109375 231.652344 L 144.644531 231.621094 L 146.261719 231.515625 L 147.878906 231.398438 L 148.414062 231.355469 L 148.953125 231.3125 L 150.03125 231.21875 L 151.648438 231.066406 L 152.183594 231.011719 L 153.261719 230.894531 L 154.339844 230.769531 L 155.417969 230.636719 L 155.957031 230.566406 L 156.492188 230.492188 L 157.03125 230.417969 L 157.570312 230.339844 L 158.648438 230.175781 L 159.1875 230.089844 L 159.726562 230 L 160.261719 229.90625 L 161.339844 229.710938 L 161.878906 229.609375 L 162.957031 229.390625 L 163.496094 229.277344 L 164.03125 229.160156 L 165.109375 228.917969 L 165.648438 228.789062 L 166.726562 228.515625 L 167.265625 228.375 L 167.800781 228.230469 L 168.339844 228.078125 L 168.878906 227.921875 L 169.417969 227.761719 L 169.957031 227.597656 L 170.496094 227.425781 L 171.035156 227.25 L 171.570312 227.070312 L 172.109375 226.882812 L 173.1875 226.492188 L 173.726562 226.289062 L 174.265625 226.078125 L 175.34375 225.640625 L 175.878906 225.410156 L 176.417969 225.175781 L 176.957031 224.933594 L 177.496094 224.683594 L 178.035156 224.425781 L 178.574219 224.164062 L 179.113281 223.894531 L 179.648438 223.613281 L 180.1875 223.328125 L 180.726562 223.035156 L 181.265625 222.734375 L 181.804688 222.425781 L 182.34375 222.105469 L 182.882812 221.78125 L 183.417969 221.445312 L 183.957031 221.101562 L 184.496094 220.75 L 185.035156 220.386719 L 185.574219 220.015625 L 186.113281 219.636719 L 186.652344 219.246094 L 187.1875 218.847656 L 187.726562 218.4375 L 188.265625 218.019531 L 188.804688 217.589844 L 189.34375 217.148438 L 189.882812 216.699219 L 190.421875 216.238281 L 190.957031 215.765625 L 191.496094 215.285156 L 192.035156 214.789062 L 192.574219 214.285156 L 193.113281 213.765625 L 193.652344 213.238281 L 194.191406 212.699219 L 194.726562 212.144531 L 195.265625 211.582031 L 195.804688 211.003906 L 196.34375 210.414062 L 196.882812 209.8125 L 197.421875 209.199219 L 197.960938 208.570312 L 198.5 207.929688 L 199.035156 207.277344 L 199.574219 206.609375 L 200.113281 205.929688 L 200.652344 205.234375 L 201.191406 204.527344 L 201.730469 203.804688 L 202.269531 203.070312 L 202.804688 202.320312 L 203.34375 201.558594 L 203.882812 200.78125 L 204.421875 199.988281 L 204.960938 199.179688 L 205.5 198.359375 L 206.039062 197.523438 L 206.574219 196.671875 L 207.113281 195.808594 L 207.652344 194.925781 L 208.191406 194.03125 L 208.730469 193.121094 L 209.269531 192.195312 L 209.808594 191.253906 L 210.34375 190.296875 L 210.882812 189.328125 L 211.421875 188.339844 L 211.960938 187.335938 L 212.5 186.320312 L 213.039062 185.289062 L 213.578125 184.238281 L 214.113281 183.175781 L 214.652344 182.097656 L 215.191406 181.003906 L 215.730469 179.894531 L 216.269531 178.769531 L 216.808594 177.628906 L 217.347656 176.476562 L 217.886719 175.304688 L 218.421875 174.121094 L 218.960938 172.917969 L 219.5 171.703125 L 220.039062 170.476562 L 220.578125 169.230469 L 221.117188 167.972656 L 221.65625 166.699219 L 222.191406 165.410156 L 222.730469 164.105469 L 223.269531 162.792969 L 223.808594 161.460938 L 224.347656 160.117188 L 224.886719 158.757812 L 225.425781 157.390625 L 225.960938 156.003906 L 226.5 154.609375 L 227.039062 153.199219 L 227.578125 151.777344 L 228.117188 150.339844 L 228.65625 148.894531 L 229.195312 147.4375 L 229.730469 145.96875 L 230.269531 144.484375 L 230.808594 142.996094 L 231.347656 141.492188 L 231.886719 139.980469 L 232.425781 138.457031 L 232.964844 136.925781 L 233.5 135.382812 L 234.039062 133.832031 L 234.578125 132.273438 L 235.117188 130.703125 L 235.65625 129.128906 L 236.195312 127.546875 L 236.734375 125.957031 L 237.273438 124.359375 L 237.808594 122.757812 L 238.347656 121.148438 L 238.886719 119.535156 L 239.425781 117.917969 L 240.503906 114.667969 L 241.042969 113.035156 L 241.578125 111.402344 L 242.65625 108.128906 L 244.8125 101.566406 L 245.347656 99.925781 L 245.886719 98.285156 L 246.964844 95.011719 L 247.503906 93.378906 L 248.042969 91.75 L 248.582031 90.125 L 249.117188 88.503906 L 249.65625 86.886719 L 250.195312 85.277344 L 250.734375 83.671875 L 251.273438 82.074219 L 251.8125 80.484375 L 252.351562 78.902344 L 252.886719 77.332031 L 253.425781 75.765625 L 253.964844 74.210938 L 254.503906 72.667969 L 255.042969 71.136719 L 255.582031 69.613281 L 256.121094 68.105469 L 256.65625 66.609375 L 257.195312 65.125 L 257.734375 63.65625 L 258.273438 62.203125 L 258.8125 60.765625 L 259.351562 59.339844 L 259.890625 57.933594 L 260.429688 56.542969 L 260.964844 55.171875 L 261.503906 53.820312 L 262.042969 52.484375 L 262.582031 51.167969 L 263.121094 49.871094 L 263.660156 48.597656 L 264.199219 47.34375 L 264.734375 46.109375 L 265.273438 44.898438 L 265.8125 43.710938 L 266.351562 42.546875 L 266.890625 41.402344 L 267.429688 40.285156 L 267.96875 39.195312 L 268.503906 38.128906 L 269.042969 37.085938 L 269.582031 36.070312 L 270.121094 35.082031 L 270.660156 34.121094 L 271.199219 33.1875 L 271.738281 32.28125 L 272.273438 31.402344 L 272.8125 30.554688 L 273.351562 29.734375 L 273.890625 28.945312 L 274.429688 28.183594 L 274.96875 27.453125 L 275.507812 26.753906 L 276.042969 26.085938 L 276.582031 25.449219 L 277.121094 24.84375 L 277.660156 24.269531 L 278.199219 23.730469 L 278.738281 23.21875 L 279.277344 22.746094 L 279.816406 22.300781 L 280.351562 21.890625 L 280.890625 21.515625 L 281.429688 21.171875 L 281.96875 20.859375 L 282.507812 20.585938 L 283.046875 20.34375 L 283.585938 20.132812 L 284.121094 19.960938 L 284.660156 19.820312 L 285.199219 19.714844 L 285.738281 19.644531 L 286.277344 19.609375 L 286.816406 19.605469 L 287.355469 19.636719 L 287.890625 19.707031 L 288.429688 19.804688 L 288.96875 19.941406 L 289.507812 20.109375 L 290.046875 20.316406 L 290.585938 20.550781 L 291.125 20.824219 L 291.660156 21.128906 L 292.199219 21.46875 L 292.738281 21.84375 L 293.277344 22.246094 L 293.816406 22.6875 L 294.355469 23.160156 L 294.894531 23.664062 L 295.429688 24.203125 L 295.96875 24.769531 L 296.507812 25.371094 L 297.046875 26.003906 L 297.585938 26.667969 L 298.125 27.363281 L 298.664062 28.089844 L 299.203125 28.847656 L 299.738281 29.632812 L 300.277344 30.449219 L 300.816406 31.296875 L 301.355469 32.167969 L 301.894531 33.070312 L 302.433594 34.003906 L 302.972656 34.960938 L 303.507812 35.945312 L 304.046875 36.957031 L 304.585938 37.996094 L 305.125 39.058594 L 305.664062 40.148438 L 306.203125 41.261719 L 306.742188 42.402344 L 307.277344 43.5625 L 307.816406 44.75 L 308.355469 45.957031 L 308.894531 47.1875 L 309.433594 48.4375 L 309.972656 49.710938 L 310.511719 51.003906 L 311.046875 52.316406 L 311.585938 53.652344 L 312.125 55.003906 L 312.664062 56.371094 L 313.203125 57.757812 L 313.742188 59.164062 L 314.28125 60.585938 L 314.816406 62.023438 L 315.355469 63.476562 L 315.894531 64.941406 L 316.433594 66.421875 L 316.972656 67.917969 L 317.511719 69.425781 L 318.050781 70.945312 L 318.585938 72.476562 L 319.125 74.019531 L 319.664062 75.570312 L 320.203125 77.132812 L 320.742188 78.707031 L 321.28125 80.289062 L 321.820312 81.875 L 322.359375 83.472656 L 322.894531 85.074219 L 323.972656 88.300781 L 324.511719 89.921875 L 325.050781 91.546875 L 325.589844 93.175781 L 326.128906 94.808594 L 326.664062 96.441406 L 327.203125 98.082031 L 327.742188 99.71875 L 328.820312 103 L 329.359375 104.644531 L 329.898438 106.285156 L 330.433594 107.921875 L 330.972656 109.5625 L 331.511719 111.199219 L 332.589844 114.464844 L 333.667969 117.714844 L 334.203125 119.332031 L 334.742188 120.949219 L 335.28125 122.558594 L 335.820312 124.160156 L 336.359375 125.757812 L 336.898438 127.347656 L 337.4375 128.933594 L 337.972656 130.507812 L 338.511719 132.078125 L 339.050781 133.636719 L 339.589844 135.1875 L 340.128906 136.730469 L 340.667969 138.265625 L 341.207031 139.789062 L 341.746094 141.304688 L 342.28125 142.808594 L 342.820312 144.300781 L 343.359375 145.78125 L 343.898438 147.253906 L 344.4375 148.714844 L 344.976562 150.160156 L 345.515625 151.597656 L 346.050781 153.019531 L 346.589844 154.433594 L 347.128906 155.832031 L 347.667969 157.214844 L 348.207031 158.589844 L 348.746094 159.949219 L 349.285156 161.292969 L 349.820312 162.625 L 350.359375 163.945312 L 350.898438 165.246094 L 351.4375 166.539062 L 351.976562 167.8125 L 352.515625 169.074219 L 353.054688 170.320312 L 353.589844 171.550781 L 354.128906 172.769531 L 354.667969 173.972656 L 355.207031 175.15625 L 355.746094 176.328125 L 356.285156 177.488281 L 356.824219 178.628906 L 357.359375 179.753906 L 357.898438 180.867188 L 358.4375 181.960938 L 358.976562 183.042969 L 359.515625 184.109375 L 360.054688 185.15625 L 360.59375 186.191406 L 361.132812 187.210938 L 361.667969 188.214844 L 362.207031 189.203125 L 362.746094 190.175781 L 363.285156 191.136719 L 363.824219 192.078125 L 364.363281 193.003906 L 364.902344 193.917969 L 365.4375 194.816406 L 365.976562 195.699219 L 366.515625 196.566406 L 367.054688 197.417969 L 367.59375 198.253906 L 368.132812 199.078125 L 368.671875 199.886719 L 369.207031 200.679688 L 369.746094 201.460938 L 370.285156 202.226562 L 370.824219 202.976562 L 371.363281 203.714844 L 371.902344 204.4375 L 372.441406 205.148438 L 372.976562 205.84375 L 373.515625 206.523438 L 374.054688 207.195312 L 374.59375 207.847656 L 375.132812 208.492188 L 375.671875 209.121094 L 376.210938 209.738281 L 376.746094 210.339844 L 377.285156 210.929688 L 377.824219 211.507812 L 378.363281 212.074219 L 378.902344 212.628906 L 379.441406 213.171875 L 379.980469 213.703125 L 380.515625 214.21875 L 381.054688 214.726562 L 381.59375 215.222656 L 382.132812 215.707031 L 382.671875 216.179688 L 383.210938 216.644531 L 383.75 217.09375 L 384.289062 217.535156 L 384.824219 217.964844 L 385.363281 218.386719 L 385.902344 218.796875 L 386.441406 219.199219 L 386.980469 219.589844 L 387.519531 219.96875 L 388.058594 220.34375 L 388.59375 220.703125 L 389.132812 221.058594 L 389.671875 221.402344 L 390.210938 221.738281 L 390.75 222.066406 L 391.289062 222.386719 L 391.828125 222.695312 L 392.363281 223 L 392.902344 223.292969 L 393.441406 223.578125 L 393.980469 223.859375 L 394.519531 224.128906 L 395.058594 224.394531 L 395.597656 224.652344 L 396.132812 224.902344 L 396.671875 225.144531 L 397.210938 225.378906 L 397.75 225.609375 L 398.289062 225.832031 L 398.828125 226.050781 L 399.367188 226.261719 L 399.902344 226.464844 L 400.441406 226.664062 L 400.980469 226.859375 L 401.519531 227.046875 L 402.058594 227.226562 L 402.597656 227.402344 L 403.136719 227.574219 L 403.675781 227.742188 L 404.210938 227.902344 "/>
<path fill="none" stroke-width="4.694705" stroke-linecap="butt" stroke-linejoin="round" stroke="rgb(0%, 94.117647%, 100%)" stroke-opacity="1" stroke-dasharray="18.778819 18.778819" stroke-miterlimit="10" d="M 27.789062 232.382812 L 29.402344 232.382812 L 29.941406 232.378906 L 32.097656 232.378906 L 32.632812 232.375 L 33.710938 232.375 L 34.25 232.371094 L 35.867188 232.371094 L 36.402344 232.367188 L 36.941406 232.367188 L 37.480469 232.363281 L 38.558594 232.363281 L 39.097656 232.359375 L 39.636719 232.359375 L 40.171875 232.355469 L 40.710938 232.355469 L 41.789062 232.347656 L 42.328125 232.347656 L 43.40625 232.339844 L 43.941406 232.339844 L 45.558594 232.328125 L 46.097656 232.328125 L 47.175781 232.320312 L 47.710938 232.316406 L 48.25 232.3125 L 48.789062 232.304688 L 50.945312 232.289062 L 51.484375 232.28125 L 52.019531 232.277344 L 52.558594 232.269531 L 53.097656 232.265625 L 55.253906 232.234375 L 55.789062 232.226562 L 57.40625 232.203125 L 57.945312 232.191406 L 58.484375 232.183594 L 59.023438 232.171875 L 59.558594 232.164062 L 61.175781 232.128906 L 61.714844 232.113281 L 62.792969 232.089844 L 63.328125 232.074219 L 65.484375 232.011719 L 66.5625 231.972656 L 67.097656 231.953125 L 68.175781 231.914062 L 70.332031 231.820312 L 70.867188 231.796875 L 71.945312 231.742188 L 72.484375 231.710938 L 73.023438 231.683594 L 73.5625 231.652344 L 74.101562 231.617188 L 74.640625 231.585938 L 75.175781 231.550781 L 75.714844 231.511719 L 76.253906 231.476562 L 76.792969 231.4375 L 78.410156 231.308594 L 78.945312 231.261719 L 80.023438 231.167969 L 80.5625 231.117188 L 81.640625 231.007812 L 82.179688 230.949219 L 82.714844 230.890625 L 83.792969 230.765625 L 84.871094 230.632812 L 85.410156 230.5625 L 85.949219 230.488281 L 86.484375 230.414062 L 87.023438 230.335938 L 87.5625 230.253906 L 88.640625 230.082031 L 89.179688 229.992188 L 89.71875 229.898438 L 90.253906 229.804688 L 91.332031 229.601562 L 91.871094 229.496094 L 92.410156 229.386719 L 92.949219 229.273438 L 93.488281 229.15625 L 94.027344 229.035156 L 94.5625 228.90625 L 95.101562 228.777344 L 95.640625 228.644531 L 96.179688 228.507812 L 96.71875 228.367188 L 97.257812 228.21875 L 97.796875 228.066406 L 98.332031 227.914062 L 99.410156 227.585938 L 99.949219 227.414062 L 100.488281 227.238281 L 101.027344 227.058594 L 101.566406 226.871094 L 102.101562 226.675781 L 102.640625 226.480469 L 103.179688 226.273438 L 103.71875 226.0625 L 104.257812 225.847656 L 104.796875 225.625 L 105.335938 225.394531 L 105.871094 225.160156 L 106.410156 224.917969 L 106.949219 224.667969 L 107.488281 224.410156 L 108.027344 224.148438 L 108.566406 223.875 L 109.105469 223.597656 L 109.640625 223.3125 L 110.179688 223.015625 L 110.71875 222.714844 L 111.257812 222.40625 L 111.796875 222.085938 L 112.335938 221.757812 L 112.875 221.425781 L 113.414062 221.082031 L 113.949219 220.726562 L 114.488281 220.363281 L 115.027344 219.992188 L 115.566406 219.613281 L 116.105469 219.222656 L 116.644531 218.824219 L 117.183594 218.414062 L 117.71875 217.992188 L 118.257812 217.5625 L 118.796875 217.121094 L 119.335938 216.671875 L 119.875 216.210938 L 120.414062 215.738281 L 120.953125 215.253906 L 121.488281 214.757812 L 122.027344 214.253906 L 122.566406 213.734375 L 123.105469 213.203125 L 123.644531 212.664062 L 124.183594 212.109375 L 124.722656 211.546875 L 125.257812 210.96875 L 125.796875 210.378906 L 126.335938 209.773438 L 126.875 209.160156 L 127.414062 208.53125 L 127.953125 207.890625 L 128.492188 207.234375 L 129.027344 206.566406 L 129.566406 205.886719 L 130.105469 205.191406 L 130.644531 204.484375 L 131.183594 203.761719 L 131.722656 203.023438 L 132.261719 202.273438 L 132.796875 201.507812 L 133.335938 200.730469 L 133.875 199.9375 L 134.414062 199.128906 L 134.953125 198.308594 L 135.492188 197.46875 L 136.03125 196.617188 L 136.570312 195.753906 L 137.105469 194.871094 L 137.644531 193.972656 L 138.183594 193.0625 L 138.722656 192.136719 L 139.261719 191.195312 L 139.800781 190.238281 L 140.339844 189.265625 L 140.875 188.277344 L 141.414062 187.273438 L 141.953125 186.257812 L 142.492188 185.222656 L 143.03125 184.175781 L 143.570312 183.109375 L 144.109375 182.03125 L 144.644531 180.933594 L 145.183594 179.824219 L 145.722656 178.699219 L 146.261719 177.558594 L 146.800781 176.402344 L 147.339844 175.230469 L 147.878906 174.046875 L 148.414062 172.84375 L 148.953125 171.628906 L 149.492188 170.398438 L 150.03125 169.152344 L 150.570312 167.890625 L 151.109375 166.617188 L 151.648438 165.328125 L 152.183594 164.027344 L 152.722656 162.707031 L 153.261719 161.378906 L 153.800781 160.03125 L 154.339844 158.675781 L 154.878906 157.300781 L 155.417969 155.917969 L 155.957031 154.519531 L 156.492188 153.109375 L 157.03125 151.6875 L 157.570312 150.25 L 158.109375 148.804688 L 158.648438 147.34375 L 159.1875 145.875 L 159.726562 144.394531 L 160.261719 142.902344 L 160.800781 141.398438 L 161.339844 139.882812 L 161.878906 138.359375 L 162.417969 136.828125 L 162.957031 135.285156 L 163.496094 133.734375 L 164.03125 132.175781 L 164.570312 130.605469 L 165.109375 129.03125 L 165.648438 127.449219 L 166.1875 125.859375 L 166.726562 124.261719 L 167.265625 122.65625 L 167.800781 121.046875 L 168.339844 119.433594 L 168.878906 117.816406 L 169.957031 114.566406 L 171.035156 111.300781 L 171.570312 109.664062 L 172.109375 108.027344 L 175.34375 98.183594 L 175.878906 96.546875 L 176.417969 94.910156 L 176.957031 93.277344 L 177.496094 91.648438 L 178.035156 90.023438 L 178.574219 88.402344 L 179.113281 86.785156 L 179.648438 85.175781 L 180.1875 83.574219 L 180.726562 81.976562 L 181.265625 80.386719 L 181.804688 78.804688 L 182.34375 77.230469 L 182.882812 75.667969 L 183.417969 74.113281 L 183.957031 72.570312 L 184.496094 71.039062 L 185.035156 69.519531 L 185.574219 68.011719 L 186.113281 66.515625 L 186.652344 65.035156 L 187.1875 63.566406 L 187.726562 62.113281 L 188.265625 60.675781 L 188.804688 59.253906 L 189.34375 57.847656 L 189.882812 56.457031 L 190.421875 55.085938 L 190.957031 53.734375 L 191.496094 52.402344 L 192.035156 51.085938 L 192.574219 49.792969 L 193.113281 48.515625 L 193.652344 47.265625 L 194.191406 46.03125 L 194.726562 44.824219 L 195.265625 43.636719 L 195.804688 42.472656 L 196.34375 41.332031 L 196.882812 40.21875 L 197.421875 39.128906 L 197.960938 38.0625 L 198.5 37.023438 L 199.035156 36.007812 L 199.574219 35.019531 L 200.113281 34.0625 L 200.652344 33.128906 L 201.191406 32.226562 L 201.730469 31.347656 L 202.269531 30.5 L 202.804688 29.683594 L 203.34375 28.894531 L 203.882812 28.136719 L 204.421875 27.410156 L 204.960938 26.710938 L 205.5 26.046875 L 206.039062 25.410156 L 206.574219 24.808594 L 207.113281 24.234375 L 207.652344 23.695312 L 208.191406 23.191406 L 208.730469 22.714844 L 209.269531 22.273438 L 209.808594 21.867188 L 210.34375 21.492188 L 210.882812 21.148438 L 211.421875 20.84375 L 211.960938 20.570312 L 212.5 20.328125 L 213.039062 20.121094 L 213.578125 19.949219 L 214.113281 19.8125 L 214.652344 19.710938 L 215.191406 19.640625 L 215.730469 19.605469 L 216.269531 19.605469 L 216.808594 19.640625 L 217.347656 19.710938 L 217.886719 19.8125 L 218.421875 19.949219 L 218.960938 20.121094 L 219.5 20.328125 L 220.039062 20.570312 L 220.578125 20.84375 L 221.117188 21.148438 L 221.65625 21.492188 L 222.191406 21.867188 L 222.730469 22.273438 L 223.269531 22.714844 L 223.808594 23.191406 L 224.347656 23.695312 L 224.886719 24.234375 L 225.425781 24.808594 L 225.960938 25.410156 L 226.5 26.046875 L 227.039062 26.710938 L 227.578125 27.410156 L 228.117188 28.136719 L 228.65625 28.894531 L 229.195312 29.683594 L 229.730469 30.5 L 230.269531 31.347656 L 230.808594 32.226562 L 231.347656 33.128906 L 231.886719 34.0625 L 232.425781 35.019531 L 232.964844 36.007812 L 233.5 37.023438 L 234.039062 38.0625 L 234.578125 39.128906 L 235.117188 40.21875 L 235.65625 41.332031 L 236.195312 42.472656 L 236.734375 43.636719 L 237.273438 44.824219 L 237.808594 46.03125 L 238.347656 47.265625 L 238.886719 48.515625 L 239.425781 49.792969 L 239.964844 51.085938 L 240.503906 52.402344 L 241.042969 53.734375 L 241.578125 55.085938 L 242.117188 56.457031 L 242.65625 57.847656 L 243.195312 59.253906 L 243.734375 60.675781 L 244.273438 62.113281 L 244.8125 63.566406 L 245.347656 65.035156 L 245.886719 66.515625 L 246.425781 68.011719 L 246.964844 69.519531 L 247.503906 71.039062 L 248.042969 72.570312 L 248.582031 74.113281 L 249.117188 75.667969 L 249.65625 77.230469 L 250.195312 78.804688 L 250.734375 80.386719 L 251.273438 81.976562 L 251.8125 83.574219 L 252.351562 85.175781 L 252.886719 86.785156 L 253.425781 88.402344 L 253.964844 90.023438 L 254.503906 91.648438 L 255.042969 93.277344 L 255.582031 94.910156 L 256.121094 96.546875 L 256.65625 98.183594 L 259.890625 108.027344 L 260.429688 109.664062 L 260.964844 111.300781 L 262.042969 114.566406 L 263.121094 117.816406 L 263.660156 119.433594 L 264.199219 121.046875 L 264.734375 122.65625 L 265.273438 124.261719 L 265.8125 125.859375 L 266.351562 127.449219 L 266.890625 129.03125 L 267.429688 130.605469 L 267.96875 132.175781 L 268.503906 133.734375 L 269.042969 135.285156 L 269.582031 136.828125 L 270.121094 138.359375 L 270.660156 139.882812 L 271.199219 141.398438 L 271.738281 142.902344 L 272.273438 144.394531 L 272.8125 145.875 L 273.351562 147.34375 L 273.890625 148.804688 L 274.429688 150.25 L 274.96875 151.6875 L 275.507812 153.109375 L 276.042969 154.519531 L 276.582031 155.917969 L 277.121094 157.300781 L 277.660156 158.675781 L 278.199219 160.03125 L 278.738281 161.378906 L 279.277344 162.707031 L 279.816406 164.027344 L 280.351562 165.328125 L 280.890625 166.617188 L 281.429688 167.890625 L 281.96875 169.152344 L 282.507812 170.398438 L 283.046875 171.628906 L 283.585938 172.84375 L 284.121094 174.046875 L 284.660156 175.230469 L 285.199219 176.402344 L 285.738281 177.558594 L 286.277344 178.699219 L 286.816406 179.824219 L 287.355469 180.933594 L 287.890625 182.03125 L 288.429688 183.109375 L 288.96875 184.175781 L 289.507812 185.222656 L 290.046875 186.257812 L 290.585938 187.273438 L 291.125 188.277344 L 291.660156 189.265625 L 292.199219 190.238281 L 292.738281 191.195312 L 293.277344 192.136719 L 293.816406 193.0625 L 294.355469 193.972656 L 294.894531 194.871094 L 295.429688 195.753906 L 295.96875 196.617188 L 296.507812 197.46875 L 297.046875 198.308594 L 297.585938 199.128906 L 298.125 199.9375 L 298.664062 200.730469 L 299.203125 201.507812 L 299.738281 202.273438 L 300.277344 203.023438 L 300.816406 203.761719 L 301.355469 204.484375 L 301.894531 205.191406 L 302.433594 205.886719 L 302.972656 206.566406 L 303.507812 207.234375 L 304.046875 207.890625 L 304.585938 208.53125 L 305.125 209.160156 L 305.664062 209.773438 L 306.203125 210.378906 L 306.742188 210.96875 L 307.277344 211.546875 L 307.816406 212.109375 L 308.355469 212.664062 L 308.894531 213.203125 L 309.433594 213.734375 L 309.972656 214.253906 L 310.511719 214.757812 L 311.046875 215.253906 L 311.585938 215.738281 L 312.125 216.210938 L 312.664062 216.671875 L 313.203125 217.121094 L 313.742188 217.5625 L 314.28125 217.992188 L 314.816406 218.414062 L 315.355469 218.824219 L 315.894531 219.222656 L 316.433594 219.613281 L 316.972656 219.992188 L 317.511719 220.363281 L 318.050781 220.726562 L 318.585938 221.082031 L 319.125 221.425781 L 319.664062 221.757812 L 320.203125 222.085938 L 320.742188 222.40625 L 321.28125 222.714844 L 321.820312 223.015625 L 322.359375 223.3125 L 322.894531 223.597656 L 323.433594 223.875 L 323.972656 224.148438 L 324.511719 224.410156 L 325.050781 224.667969 L 325.589844 224.917969 L 326.128906 225.160156 L 326.664062 225.394531 L 327.203125 225.625 L 327.742188 225.847656 L 328.28125 226.0625 L 328.820312 226.273438 L 329.359375 226.480469 L 329.898438 226.675781 L 330.433594 226.871094 L 330.972656 227.058594 L 331.511719 227.238281 L 332.050781 227.414062 L 332.589844 227.585938 L 333.667969 227.914062 L 334.203125 228.066406 L 334.742188 228.21875 L 335.28125 228.367188 L 335.820312 228.507812 L 336.359375 228.644531 L 336.898438 228.777344 L 337.4375 228.90625 L 337.972656 229.035156 L 338.511719 229.15625 L 339.050781 229.273438 L 339.589844 229.386719 L 340.128906 229.496094 L 340.667969 229.601562 L 341.746094 229.804688 L 342.28125 229.898438 L 342.820312 229.992188 L 343.359375 230.082031 L 344.4375 230.253906 L 344.976562 230.335938 L 345.515625 230.414062 L 346.050781 230.488281 L 346.589844 230.5625 L 347.128906 230.632812 L 348.207031 230.765625 L 349.285156 230.890625 L 349.820312 230.949219 L 350.359375 231.007812 L 351.4375 231.117188 L 351.976562 231.167969 L 353.054688 231.261719 L 353.589844 231.308594 L 355.207031 231.4375 L 355.746094 231.476562 L 356.285156 231.511719 L 356.824219 231.550781 L 357.359375 231.585938 L 357.898438 231.617188 L 358.4375 231.652344 L 358.976562 231.683594 L 359.515625 231.710938 L 360.054688 231.742188 L 361.132812 231.796875 L 361.667969 231.820312 L 363.824219 231.914062 L 364.902344 231.953125 L 365.4375 231.972656 L 366.515625 232.011719 L 368.671875 232.074219 L 369.207031 232.089844 L 370.285156 232.113281 L 370.824219 232.128906 L 372.441406 232.164062 L 372.976562 232.171875 L 373.515625 232.183594 L 374.054688 232.191406 L 374.59375 232.203125 L 376.210938 232.226562 L 376.746094 232.234375 L 378.902344 232.265625 L 379.441406 232.269531 L 379.980469 232.277344 L 380.515625 232.28125 L 381.054688 232.289062 L 383.210938 232.304688 L 383.75 232.3125 L 384.289062 232.316406 L 384.824219 232.320312 L 385.902344 232.328125 L 386.441406 232.328125 L 388.058594 232.339844 L 388.59375 232.339844 L 389.671875 232.347656 L 390.210938 232.347656 L 391.289062 232.355469 L 391.828125 232.355469 L 392.363281 232.359375 L 392.902344 232.359375 L 393.441406 232.363281 L 394.519531 232.363281 L 395.058594 232.367188 L 395.597656 232.367188 L 396.132812 232.371094 L 397.75 232.371094 L 398.289062 232.375 L 399.367188 232.375 L 399.902344 232.378906 L 402.058594 232.378906 L 402.597656 232.382812 L 404.210938 232.382812 "/>
<path fill="none" stroke-width="4.694705" stroke-linecap="butt" stroke-linejoin="round" stroke="rgb(96.078431%, 100%, 23.137255%)" stroke-opacity="1" stroke-miterlimit="10" d="M 27.789062 232.394531 L 28.324219 232.136719 L 28.863281 231.875 L 30.480469 231.101562 L 31.019531 230.839844 L 32.097656 230.324219 L 32.632812 230.066406 L 33.171875 229.808594 L 33.710938 229.546875 L 35.328125 228.773438 L 35.867188 228.511719 L 36.402344 228.253906 L 37.480469 227.738281 L 38.019531 227.476562 L 39.636719 226.703125 L 40.171875 226.441406 L 41.789062 225.667969 L 42.328125 225.40625 L 43.40625 224.890625 L 43.941406 224.632812 L 44.480469 224.371094 L 46.097656 223.597656 L 46.636719 223.335938 L 47.175781 223.078125 L 47.710938 222.820312 L 48.789062 222.304688 L 49.328125 222.042969 L 50.945312 221.269531 L 51.484375 221.007812 L 52.019531 220.75 L 53.097656 220.234375 L 53.636719 219.972656 L 55.253906 219.199219 L 55.789062 218.9375 L 57.40625 218.164062 L 57.945312 217.902344 L 59.023438 217.386719 L 59.558594 217.128906 L 60.097656 216.867188 L 61.714844 216.09375 L 62.253906 215.832031 L 62.792969 215.574219 L 63.328125 215.316406 L 63.867188 215.058594 L 64.40625 214.796875 L 66.5625 213.765625 L 67.097656 213.503906 L 68.714844 212.730469 L 69.253906 212.46875 L 70.332031 211.953125 L 70.867188 211.695312 L 71.40625 211.433594 L 73.023438 210.660156 L 73.5625 210.398438 L 74.640625 209.882812 L 75.175781 209.625 L 75.714844 209.363281 L 77.332031 208.589844 L 77.871094 208.328125 L 78.410156 208.070312 L 78.945312 207.8125 L 79.484375 207.554688 L 80.023438 207.292969 L 82.179688 206.261719 L 82.714844 206 L 84.332031 205.226562 L 84.871094 204.964844 L 85.949219 204.449219 L 86.484375 204.191406 L 87.023438 203.929688 L 88.640625 203.15625 L 89.179688 202.894531 L 89.71875 202.636719 L 90.253906 202.378906 L 90.792969 202.121094 L 91.332031 201.859375 L 92.949219 201.085938 L 93.488281 200.824219 L 94.027344 200.566406 L 94.5625 200.308594 L 95.101562 200.050781 L 95.640625 199.789062 L 97.796875 198.757812 L 98.332031 198.496094 L 99.949219 197.722656 L 100.488281 197.460938 L 101.566406 196.945312 L 102.101562 196.6875 L 102.640625 196.425781 L 104.257812 195.652344 L 104.796875 195.390625 L 105.335938 195.132812 L 105.871094 194.875 L 106.410156 194.617188 L 106.949219 194.355469 L 108.566406 193.582031 L 109.105469 193.320312 L 109.640625 193.0625 L 110.71875 192.546875 L 111.257812 192.285156 L 113.414062 191.253906 L 113.949219 190.992188 L 115.566406 190.21875 L 116.105469 189.957031 L 117.183594 189.441406 L 117.71875 189.183594 L 118.257812 188.921875 L 119.875 188.148438 L 120.414062 187.886719 L 120.953125 187.628906 L 121.488281 187.371094 L 122.027344 187.113281 L 122.566406 186.851562 L 124.183594 186.078125 L 124.722656 185.816406 L 125.257812 185.558594 L 126.335938 185.042969 L 126.875 184.78125 L 128.492188 184.007812 L 129.027344 183.75 L 129.566406 183.488281 L 131.183594 182.714844 L 131.722656 182.453125 L 132.261719 182.195312 L 132.796875 181.9375 L 133.335938 181.679688 L 133.875 181.417969 L 135.492188 180.644531 L 136.03125 180.382812 L 136.570312 180.125 L 137.105469 179.867188 L 137.644531 179.609375 L 138.183594 179.347656 L 139.800781 178.574219 L 140.339844 178.3125 L 140.875 178.054688 L 141.953125 177.539062 L 142.492188 177.277344 L 144.109375 176.503906 L 144.644531 176.246094 L 145.183594 175.984375 L 146.800781 175.210938 L 147.339844 174.949219 L 147.878906 174.691406 L 148.414062 174.433594 L 148.953125 174.175781 L 149.492188 173.914062 L 151.109375 173.140625 L 151.648438 172.878906 L 152.183594 172.621094 L 153.261719 172.105469 L 153.800781 171.84375 L 155.417969 171.070312 L 155.957031 170.808594 L 156.492188 170.550781 L 157.570312 170.035156 L 158.109375 169.773438 L 159.726562 169 L 160.261719 168.742188 L 160.800781 168.480469 L 162.417969 167.707031 L 162.957031 167.445312 L 163.496094 167.1875 L 164.03125 166.929688 L 164.570312 166.671875 L 165.109375 166.410156 L 166.726562 165.636719 L 167.265625 165.375 L 167.800781 165.117188 L 168.878906 164.601562 L 169.417969 164.339844 L 171.035156 163.566406 L 171.570312 163.304688 L 173.1875 162.53125 L 173.726562 162.269531 L 175.34375 161.496094 L 175.878906 161.238281 L 176.417969 160.976562 L 178.035156 160.203125 L 178.574219 159.941406 L 179.113281 159.683594 L 179.648438 159.425781 L 180.1875 159.167969 L 180.726562 158.90625 L 182.34375 158.132812 L 182.882812 157.871094 L 183.417969 157.613281 L 184.496094 157.097656 L 185.035156 156.835938 L 186.652344 156.0625 L 187.1875 155.800781 L 188.804688 155.027344 L 189.34375 154.765625 L 190.421875 154.25 L 190.957031 153.992188 L 191.496094 153.734375 L 192.035156 153.472656 L 193.652344 152.699219 L 194.191406 152.4375 L 194.726562 152.179688 L 195.804688 151.664062 L 196.34375 151.402344 L 197.960938 150.628906 L 198.5 150.367188 L 199.035156 150.109375 L 200.113281 149.59375 L 200.652344 149.332031 L 202.269531 148.558594 L 202.804688 148.296875 L 204.421875 147.523438 L 204.960938 147.261719 L 206.039062 146.746094 L 206.574219 146.488281 L 207.113281 146.230469 L 207.652344 145.96875 L 209.269531 145.195312 L 209.808594 144.933594 L 210.34375 144.675781 L 211.421875 144.160156 L 211.960938 143.898438 L 213.578125 143.125 L 214.113281 142.863281 L 215.730469 142.089844 L 216.269531 141.828125 L 217.886719 141.054688 L 218.421875 140.792969 L 220.039062 140.019531 L 220.578125 139.757812 L 221.65625 139.242188 L 222.191406 138.984375 L 222.730469 138.726562 L 223.269531 138.464844 L 224.886719 137.691406 L 225.425781 137.429688 L 225.960938 137.171875 L 227.039062 136.65625 L 227.578125 136.394531 L 229.195312 135.621094 L 229.730469 135.359375 L 231.347656 134.585938 L 231.886719 134.324219 L 232.964844 133.808594 L 233.5 133.550781 L 234.039062 133.289062 L 235.65625 132.515625 L 236.195312 132.253906 L 237.273438 131.738281 L 237.808594 131.480469 L 238.347656 131.222656 L 238.886719 130.960938 L 240.503906 130.1875 L 241.042969 129.925781 L 241.578125 129.667969 L 242.65625 129.152344 L 243.195312 128.890625 L 244.8125 128.117188 L 245.347656 127.855469 L 246.964844 127.082031 L 247.503906 126.820312 L 248.582031 126.304688 L 249.117188 126.046875 L 249.65625 125.785156 L 251.273438 125.011719 L 251.8125 124.75 L 252.351562 124.492188 L 252.886719 124.234375 L 253.964844 123.71875 L 254.503906 123.457031 L 256.121094 122.683594 L 256.65625 122.421875 L 258.273438 121.648438 L 258.8125 121.386719 L 260.429688 120.613281 L 260.964844 120.351562 L 262.582031 119.578125 L 263.121094 119.316406 L 264.199219 118.800781 L 264.734375 118.542969 L 265.273438 118.28125 L 266.890625 117.507812 L 267.429688 117.246094 L 267.96875 116.988281 L 268.503906 116.730469 L 269.582031 116.214844 L 270.121094 115.953125 L 271.738281 115.179688 L 272.273438 114.917969 L 273.890625 114.144531 L 274.429688 113.882812 L 275.507812 113.367188 L 276.042969 113.109375 L 276.582031 112.847656 L 278.199219 112.074219 L 278.738281 111.8125 L 279.816406 111.296875 L 280.351562 111.039062 L 280.890625 110.777344 L 282.507812 110.003906 L 283.046875 109.742188 L 283.585938 109.484375 L 284.121094 109.226562 L 285.199219 108.710938 L 285.738281 108.449219 L 287.355469 107.675781 L 287.890625 107.414062 L 289.507812 106.640625 L 290.046875 106.378906 L 291.125 105.863281 L 291.660156 105.605469 L 292.199219 105.34375 L 293.816406 104.570312 L 294.355469 104.308594 L 294.894531 104.050781 L 295.429688 103.792969 L 295.96875 103.535156 L 296.507812 103.273438 L 298.125 102.5 L 298.664062 102.238281 L 299.203125 101.980469 L 299.738281 101.722656 L 300.816406 101.207031 L 301.355469 100.945312 L 302.972656 100.171875 L 303.507812 99.910156 L 305.125 99.136719 L 305.664062 98.875 L 306.742188 98.359375 L 307.277344 98.101562 L 307.816406 97.839844 L 309.433594 97.066406 L 309.972656 96.804688 L 310.511719 96.546875 L 311.046875 96.289062 L 311.585938 96.03125 L 312.125 95.769531 L 313.742188 94.996094 L 314.28125 94.734375 L 314.816406 94.476562 L 316.433594 93.703125 L 316.972656 93.441406 L 318.050781 92.925781 L 318.585938 92.667969 L 319.125 92.40625 L 320.742188 91.632812 L 321.28125 91.371094 L 322.359375 90.855469 L 322.894531 90.597656 L 323.433594 90.335938 L 325.050781 89.5625 L 325.589844 89.300781 L 326.128906 89.042969 L 326.664062 88.785156 L 327.203125 88.527344 L 327.742188 88.265625 L 329.359375 87.492188 L 329.898438 87.230469 L 330.433594 86.972656 L 332.050781 86.199219 L 332.589844 85.9375 L 333.667969 85.421875 L 334.203125 85.164062 L 334.742188 84.902344 L 336.359375 84.128906 L 336.898438 83.867188 L 337.4375 83.609375 L 337.972656 83.351562 L 338.511719 83.09375 L 339.050781 82.832031 L 340.667969 82.058594 L 341.207031 81.796875 L 341.746094 81.539062 L 342.28125 81.28125 L 342.820312 81.023438 L 343.359375 80.761719 L 344.976562 79.988281 L 345.515625 79.726562 L 346.050781 79.46875 L 347.667969 78.695312 L 348.207031 78.433594 L 349.285156 77.917969 L 349.820312 77.660156 L 350.359375 77.398438 L 351.976562 76.625 L 352.515625 76.363281 L 353.054688 76.105469 L 353.589844 75.847656 L 354.128906 75.589844 L 354.667969 75.328125 L 356.285156 74.554688 L 356.824219 74.292969 L 357.359375 74.035156 L 358.4375 73.519531 L 358.976562 73.257812 L 360.59375 72.484375 L 361.132812 72.222656 L 361.667969 71.964844 L 363.285156 71.191406 L 363.824219 70.929688 L 364.902344 70.414062 L 365.4375 70.15625 L 365.976562 69.894531 L 367.59375 69.121094 L 368.132812 68.859375 L 368.671875 68.601562 L 369.207031 68.34375 L 369.746094 68.085938 L 370.285156 67.824219 L 371.902344 67.050781 L 372.441406 66.789062 L 372.976562 66.53125 L 374.054688 66.015625 L 374.59375 65.753906 L 376.210938 64.980469 L 376.746094 64.71875 L 378.902344 63.6875 L 379.441406 63.425781 L 379.980469 63.167969 L 380.515625 62.910156 L 381.054688 62.652344 L 381.59375 62.390625 L 383.210938 61.617188 L 383.75 61.355469 L 384.289062 61.097656 L 384.824219 60.839844 L 385.363281 60.582031 L 385.902344 60.320312 L 387.519531 59.546875 L 388.058594 59.285156 L 388.59375 59.027344 L 389.671875 58.511719 L 390.210938 58.25 L 391.828125 57.476562 L 392.363281 57.214844 L 394.519531 56.183594 L 395.058594 55.921875 L 395.597656 55.664062 L 396.132812 55.40625 L 396.671875 55.148438 L 397.210938 54.886719 L 398.828125 54.113281 L 399.367188 53.851562 L 399.902344 53.59375 L 400.980469 53.078125 L 401.519531 52.816406 L 403.136719 52.042969 L 403.675781 51.78125 L 404.210938 51.523438 "/>
<path fill="none" stroke-width="4.694705" stroke-linecap="round" stroke-linejoin="round" stroke="rgb(43.921569%, 100%, 25.098039%)" stroke-opacity="1" stroke-miterlimit="10" d="M 133.65625 94.078125 L 216 94.078125 "/>
<path fill-rule="nonzero" fill="rgb(43.921569%, 100%, 25.098039%)" fill-opacity="1" stroke-width="4.694705" stroke-linecap="round" stroke-linejoin="round" stroke="rgb(43.921569%, 100%, 25.098039%)" stroke-opacity="1" stroke-miterlimit="10" d="M 202.28125 102 L 216 94.078125 L 202.28125 86.160156 Z M 202.28125 102 "/>
</svg>
