<?xml version="1.0" encoding="UTF-8"?>
<svg xmlns="http://www.w3.org/2000/svg" xmlns:xlink="http://www.w3.org/1999/xlink" width="432pt" height="252pt" viewBox="0 0 432 252">
<defs>
<clipPath id="clip-0">
<path clip-rule="nonzero" d="M 8.964844 8.964844 L 423.03125 8.964844 L 423.03125 243.03125 L 8.964844 243.03125 Z M 8.964844 8.964844 "/>
</clipPath>
</defs>
<rect x="-43.2" y="-25.2" width="518.4" height="302.4" fill="rgb(100%, 100%, 100%)" fill-opacity="1"/>
<rect x="-43.2" y="-25.2" width="518.4" height="302.4" fill="rgb(10.588235%, 10.588235%, 11.372549%)" fill-opacity="1"/>
<g clip-path="url(#clip-0)">
<path fill-rule="nonzero" fill="rgb(10.588235%, 10.588235%, 11.372549%)" fill-opacity="1" d="M 8.964844 243.035156 L 423.03125 243.035156 L 423.03125 8.96875 L 8.964844 8.96875 Z M 8.964844 243.035156 "/>
</g>
<path fill="none" stroke-width="4.694705" stroke-linecap="butt" stroke-linejoin="round" stroke="rgb(100%, 16.862745%, 83.921569%)" stroke-opacity="1" stroke-dasharray="18.778819 18.778819" stroke-miterlimit="10" d="M 27.789062 232.382812 L 29.402344 232.382812 L 29.941406 232.378906 L 32.097656 232.378906 L 32.632812 232.375 L 33.710938 232.375 L 34.25 232.371094 L 35.867188 232.371094 L 36.402344 232.367188 L 36.941406 232.367188 L 37.480469 232.363281 L 38.558594 232.363281 L 39.097656 232.359375 L 39.636719 232.359375 L 40.171875 232.355469 L 40.710938 232.355469 L 41.789062 232.347656 L 42.328125 232.347656 L 43.40625 232.339844 L 43.941406 232.339844 L 45.558594 232.328125 L 46.097656 232.328125 L 47.175781 232.320312 L 47.710938 232.316406 L 48.25 232.3125 L 48.789062 232.304688 L 50.945312 232.289062 L 51.484375 232.28125 L 52.019531 232.277344 L 52.558594 232.269531 L 53.097656 232.265625 L 55.253906 232.234375 L 55.789062 232.226562 L 57.40625 232.203125 L 57.945312 232.191406 L 58.484375 232.183594 L 59.023438 232.171875 L 59.558594 232.164062 L 61.175781 232.128906 L 61.714844 232.113281 L 62.792969 232.089844 L 63.328125 232.074219 L 65.484375 232.011719 L 66.5625 231.972656 L 67.097656 231.953125 L 68.175781 231.914062 L 70.332031 231.820312 L 70.867188 231.796875 L 71.945312 231.742188 L 72.484375 231.710938 L 73.023438 231.683594 L 73.5625 231.652344 L 74.101562 231.617188 L 74.640625 231.585938 L 75.175781 231.550781 L 75.714844 231.511719 L 76.253906 231.476562 L 76.792969 231.4375 L 78.410156 231.308594 L 78.945312 231.261719 L 80.023438 231.167969 L 80.5625 231.117188 L 81.640625 231.007812 L 82.179688 230.949219 L 82.714844 230.890625 L 83.792969 230.765625 L 84.871094 230.632812 L 85.410156 230.5625 L 85.949219 230.488281 L 86.484375 230.414062 L 87.023438 230.335938 L 87.5625 230.253906 L 88.640625 230.082031 L 89.179688 229.992188 L 89.71875 229.898438 L 90.253906 229.804688 L 91.332031 229.601562 L 91.871094 229.496094 L 92.410156 229.386719 L 92.949219 229.273438 L 93.488281 229.15625 L 94.027344 229.035156 L 94.5625 228.90625 L 95.101562 228.777344 L 95.640625 228.644531 L 96.179688 228.507812 L 96.71875 228.367188 L 97.257812 228.21875 L 97.796875 228.066406 L 98.332031 227.914062 L 99.410156 227.585938 L 99.949219 227.414062 L 100.488281 227.238281 L 101.027344 227.058594 L 101.566406 226.871094 L 102.101562 226.675781 L 102.640625 226.480469 L 103.179688 226.273438 L 103.71875 226.0625 L 104.257812 225.847656 L 104.796875 225.625 L 105.335938 225.394531 L 105.871094 225.160156 L 106.410156 224.917969 L 106.949219 224.667969 L 107.488281 224.410156 L 108.027344 224.148438 L 108.566406 223.875 L 109.105469 223.597656 L 109.640625 223.3125 L 110.179688 223.015625 L 110.71875 222.714844 L 111.257812 222.40625 L 111.796875 222.085938 L 112.335938 221.757812 L 112.875 221.425781 L 113.414062 221.082031 L 113.949219 220.726562 L 114.488281 220.363281 L 115.027344 219.992188 L 115.566406 219.613281 L 116.105469 219.222656 L 116.644531 218.824219 L 117.183594 218.414062 L 117.71875 217.992188 L 118.257812 217.5625 L 118.796875 217.121094 L 119.335938 216.671875 L 119.875 216.210938 L 120.414062 215.738281 L 120.953125 215.253906 L 121.488281 214.757812 L 122.027344 214.253906 L 122.566406 213.734375 L 123.105469 213.203125 L 123.644531 212.664062 L 124.183594 212.109375 L 124.722656 211.546875 L 125.257812 210.96875 L 125.796875 210.378906 L 126.335938 209.773438 L 126.875 209.160156 L 127.414062 208.53125 L 127.953125 207.890625 L 128.492188 207.234375 L 129.027344 206.566406 L 129.566406 205.886719 L 130.105469 205.191406 L 130.644531 204.484375 L 131.183594 203.761719 L 131.722656 203.023438 L 132.261719 202.273438 L 132.796875 201.507812 L 133.335938 200.730469 L 133.875 199.9375 L 134.414062 199.128906 L 134.953125 198.308594 L 135.492188 197.46875 L 136.03125 196.617188 L 136.570312 195.753906 L 137.105469 194.871094 L 137.644531 193.972656 L 138.183594 193.0625 L 138.722656 192.136719 L 139.261719 191.195312 L 139.800781 190.238281 L 140.339844 189.265625 L 140.875 188.277344 L 141.414062 187.273438 L 141.953125 186.257812 L 142.492188 185.222656 L 143.03125 184.175781 L 143.570312 183.109375 L 144.109375 182.03125 L 144.644531 180.933594 L 145.183594 179.824219 L 145.722656 178.699219 L 146.261719 177.558594 L 146.800781 176.402344 L 147.339844 175.230469 L 147.878906 174.046875 L 148.414062 172.84375 L 148.953125 171.628906 L 149.492188 170.398438 L 150.03125 169.152344 L 150.570312 167.890625 L 151.109375 166.617188 L 151.648438 165.328125 L 152.183594 164.027344 L 152.722656 162.707031 L 153.261719 161.378906 L 153.800781 160.03125 L 154.339844 158.675781 L 154.878906 157.300781 L 155.417969 155.917969 L 155.957031 154.519531 L 156.492188 153.109375 L 157.03125 151.6875 L 157.570312 150.25 L 158.109375 148.804688 L 158.648438 147.34375 L 159.1875 145.875 L 159.726562 144.394531 L 160.261719 142.902344 L 160.800781 141.398438 L 161.339844 139.882812 L 161.878906 138.359375 L 162.417969 136.828125 L 162.957031 135.285156 L 163.496094 133.734375 L 164.03125 132.175781 L 164.570312 130.605469 L 165.109375 129.03125 L 165.648438 127.449219 L 166.1875 125.859375 L 166.726562 124.261719 L 167.265625 122.65625 L 167.800781 121.046875 L 168.339844 119.433594 L 168.878906 117.816406 L 169.957031 114.566406 L 171.035156 111.300781 L 171.570312 109.664062 L 172.109375 108.027344 L 175.34375 98.183594 L 175.878906 96.546875 L 176.417969 94.910156 L 176.957031 93.277344 L 177.496094 91.648438 L 178.035156 90.023438 L 178.574219 88.402344 L 179.113281 86.785156 L 179.648438 85.175781 L 180.1875 83.574219 L 180.726562 81.976562 L 181.265625 80.386719 L 181.804688 78.804688 L 182.34375 77.230469 L 182.882812 75.667969 L 183.417969 74.113281 L 183.957031 72.570312 L 184.496094 71.039062 L 185.035156 69.519531 L 185.574219 68.011719 L 186.113281 66.515625 L 186.652344 65.035156 L 187.1875 63.566406 L 187.726562 62.113281 L 188.265625 60.675781 L 188.804688 59.253906 L 189.34375 57.847656 L 189.882812 56.457031 L 190.421875 55.085938 L 190.957031 53.734375 L 191.496094 52.402344 L 192.035156 51.085938 L 192.574219 49.792969 L 193.113281 48.515625 L 193.652344 47.265625 L 194.191406 46.03125 L 194.726562 44.824219 L 195.265625 43.636719 L 195.804688 42.472656 L 196.34375 41.332031 L 196.882812 40.21875 L 197.421875 39.128906 L 197.960938 38.0625 L 198.5 37.023438 L 199.035156 36.007812 L 199.574219 35.019531 L 200.113281 34.0625 L 200.652344 33.128906 L 201.191406 32.226562 L 201.730469 31.347656 L 202.269531 30.5 L 202.804688 29.683594 L 203.34375 28.894531 L 203.882812 28.136719 L 204.421875 27.410156 L 204.960938 26.710938 L 205.5 26.046875 L 206.039062 25.410156 L 206.574219 24.808594 L 207.113281 24.234375 L 207.652344 23.695312 L 208.191406 23.191406 L 208.730469 22.714844 L 209.269531 22.273438 L 209.808594 21.867188 L 210.34375 21.492188 L 210.882812 21.148438 L 211.421875 20.84375 L 211.960938 20.570312 L 212.5 20.328125 L 213.039062 20.121094 L 213.578125 19.949219 L 214.113281 19.8125 L 214.652344 19.710938 L 215.191406 19.640625 L 215.730469 19.605469 L 216.269531 19.605469 L 216.808594 19.640625 L 217.347656 19.710938 L 217.886719 19.8125 L 218.421875 19.949219 L 218.960938 20.121094 L 219.5 20.328125 L 220.039062 20.570312 L 220.578125 20.84375 L 221.117188 21.148438 L 221.65625 21.492188 L 222.191406 21.867188 L 222.730469 22.273438 L 223.269531 22.714844 L 223.808594 23.191406 L 224.347656 23.695312 L 224.886719 24.234375 L 225.425781 24.808594 L 225.960938 25.410156 L 226.5 26.046875 L 227.039062 26.710938 L 227.578125 27.410156 L 228.117188 28.136719 L 228.65625 28.894531 L 229.195312 29.683594 L 229.730469 30.5 L 230.269531 31.347656 L 230.808594 32.226562 L 231.347656 33.128906 L 231.886719 34.0625 L 232.425781 35.019531 L 232.964844 36.007812 L 233.5 37.023438 L 234.039062 38.0625 L 234.578125 39.128906 L 235.117188 40.21875 L 235.65625 41.332031 L 236.195312 42.472656 L 236.734375 43.636719 L 237.273438 44.824219 L 237.808594 46.03125 L 238.347656 47.265625 L 238.886719 48.515625 L 239.425781 49.792969 L 239.964844 51.085938 L 240.503906 52.402344 L 241.042969 53.734375 L 241.578125 55.085938 L 242.117188 56.457031 L 242.65625 57.847656 L 243.195312 59.253906 L 243.734375 60.675781 L 244.273438 62.113281 L 244.8125 63.566406 L 245.347656 65.035156 L 245.886719 66.515625 L 246.425781 68.011719 L 246.964844 69.519531 L 247.503906 71.039062 L 248.042969 72.570312 L 248.582031 74.113281 L 249.117188 75.667969 L 249.65625 77.230469 L 250.195312 78.804688 L 250.734375 80.386719 L 251.273438 81.976562 L 251.8125 83.574219 L 252.351562 85.175781 L 252.886719 86.785156 L 253.425781 88.402344 L 253.964844 90.023438 L 254.503906 91.648438 L 255.042969 93.277344 L 255.582031 94.910156 L 256.121094 96.546875 L 256.65625 98.183594 L 259.890625 108.027344 L 260.429688 109.664062 L 260.964844 111.300781 L 262.042969 114.566406 L 263.121094 117.816406 L 263.660156 119.433594 L 264.199219 121.046875 L 264.734375 122.65625 L 265.273438 124.261719 L 265.8125 125.859375 L 266.351562 127.449219 L 266.890625 129.03125 L 267.429688 130.605469 L 267.96875 132.175781 L 268.503906 133.734375 L 269.042969 135.285156 L 269.582031 136.828125 L 270.121094 138.359375 L 270.660156 139.882812 L 271.199219 141.398438 L 271.738281 142.902344 L 272.273438 144.394531 L 272.8125 145.875 L 273.351562 147.34375 L 273.890625 148.804688 L 274.429688 150.25 L 274.96875 151.6875 L 275.507812 153.109375 L 276.042969 154.519531 L 276.582031 155.917969 L 277.121094 157.300781 L 277.660156 158.675781 L 278.199219 160.03125 L 278.738281 161.378906 L 279.277344 162.707031 L 279.816406 164.027344 L 280.351562 165.328125 L 280.890625 166.617188 L 281.429688 167.890625 L 281.96875 169.152344 L 282.507812 170.398438 L 283.046875 171.628906 L 283.585938 172.84375 L 284.121094 174.046875 L 284.660156 175.230469 L 285.199219 176.402344 L 285.738281 177.558594 L 286.277344 178.699219 L 286.816406 179.824219 L 287.355469 180.933594 L 287.890625 182.03125 L 288.429688 183.109375 L 288.96875 184.175781 L 289.507812 185.222656 L 290.046875 186.257812 L 290.585938 187.273438 L 291.125 188.277344 L 291.660156 189.265625 L 292.199219 190.238281 L 292.738281 191.195312 L 293.277344 192.136719 L 293.816406 193.0625 L 294.355469 193.972656 L 294.894531 194.871094 L 295.429688 195.753906 L 295.96875 196.617188 L 296.507812 197.46875 L 297.046875 198.308594 L 297.585938 199.128906 L 298.125 199.9375 L 298.664062 200.730469 L 299.203125 201.507812 L 299.738281 202.273438 L 300.277344 203.023438 L 300.816406 203.761719 L 301.355469 204.484375 L 301.894531 205.191406 L 302.433594 205.886719 L 302.972656 206.566406 L 303.507812 207.234375 L 304.046875 207.890625 L 304.585938 208.53125 L 305.125 209.160156 L 305.664062 209.773438 L 306.203125 210.378906 L 306.742188 210.96875 L 307.277344 211.546875 L 307.816406 212.109375 L 308.355469 212.664062 L 308.894531 213.203125 L 309.433594 213.734375 L 309.972656 214.253906 L 310.511719 214.757812 L 311.046875 215.253906 L 311.585938 215.738281 L 312.125 216.210938 L 312.664062 216.671875 L 313.203125 217.121094 L 313.742188 217.5625 L 314.28125 217.992188 L 314.816406 218.414062 L 315.355469 218.824219 L 315.894531 219.222656 L 316.433594 219.613281 L 316.972656 219.992188 L 317.511719 220.363281 L 318.050781 220.726562 L 318.585938 221.082031 L 319.125 221.425781 L 319.664062 221.757812 L 320.203125 222.085938 L 320.742188 222.40625 L 321.28125 222.714844 L 321.820312 223.015625 L 322.359375 223.3125 L 322.894531 223.597656 L 323.433594 223.875 L 323.972656 224.148438 L 324.511719 224.410156 L 325.050781 224.667969 L 325.589844 224.917969 L 326.128906 225.160156 L 326.664062 225.394531 L 327.203125 225.625 L 327.742188 225.847656 L 328.28125 226.0625 L 328.820312 226.273438 L 329.359375 226.480469 L 329.898438 226.675781 L 330.433594 226.871094 L 330.972656 227.058594 L 331.511719 227.238281 L 332.050781 227.414062 L 332.589844 227.585938 L 333.667969 227.914062 L 334.203125 228.066406 L 334.742188 228.21875 L 335.28125 228.367188 L 335.820312 228.507812 L 336.359375 228.644531 L 336.898438 228.777344 L 337.4375 228.90625 L 337.972656 229.035156 L 338.511719 229.15625 L 339.050781 229.273438 L 339.589844 229.386719 L 340.128906 229.496094 L 340.667969 229.601562 L 341.746094 229.804688 L 342.28125 229.898438 L 342.820312 229.992188 L 343.359375 230.082031 L 344.4375 230.253906 L 344.976562 230.335938 L 345.515625 230.414062 L 346.050781 230.488281 L 346.589844 230.5625 L 347.128906 230.632812 L 348.207031 230.765625 L 349.285156 230.890625 L 349.820312 230.949219 L 350.359375 231.007812 L 351.4375 231.117188 L 351.976562 231.167969 L 353.054688 231.261719 L 353.589844 231.308594 L 355.207031 231.4375 L 355.746094 231.476562 L 356.285156 231.511719 L 356.824219 231.550781 L 357.359375 231.585938 L 357.898438 231.617188 L 358.4375 231.652344 L 358.976562 231.683594 L 359.515625 231.710938 L 360.054688 231.742188 L 361.132812 231.796875 L 361.667969 231.820312 L 363.824219 231.914062 L 364.902344 231.953125 L 365.4375 231.972656 L 366.515625 232.011719 L 368.671875 232.074219 L 369.207031 232.089844 L 370.285156 232.113281 L 370.824219 232.128906 L 372.441406 232.164062 L 372.976562 232.171875 L 373.515625 232.183594 L 374.054688 232.191406 L 374.59375 232.203125 L 376.210938 232.226562 L 376.746094 232.234375 L 378.902344 232.265625 L 379.441406 232.269531 L 379.980469 232.277344 L 380.515625 232.28125 L 381.054688 232.289062 L 383.210938 232.304688 L 383.75 232.3125 L 384.289062 232.316406 L 384.824219 232.320312 L 385.902344 232.328125 L 386.441406 232.328125 L 388.058594 232.339844 L 388.59375 232.339844 L 389.671875 232.347656 L 390.210938 232.347656 L 391.289062 232.355469 L 391.828125 232.355469 L 392.363281 232.359375 L 392.902344 232.359375 L 393.441406 232.363281 L 394.519531 232.363281 L 395.058594 232.367188 L 395.597656 232.367188 L 396.132812 232.371094 L 397.75 232.371094 L 398.289062 232.375 L 399.367188 232.375 L 399.902344 232.378906 L 402.058594 232.378906 L 402.597656 232.382812 L 404.210938 232.382812 "/>
<path fill="none" stroke-width="4.694705" stroke-linecap="butt" stroke-linejoin="round" stroke="rgb(100%, 16.862745%, 83.921569%)" stroke-opacity="1" stroke-miterlimit="10" d="M 27.789062 232.394531 L 92.410156 232.394531 L 92.949219 232.390625 L 103.71875 232.390625 L 104.257812 232.386719 L 108.566406 232.386719 L 109.105469 232.382812 L 111.796875 232.382812 L 112.335938 232.378906 L 114.488281 232.378906 L 115.027344 232.375 L 116.105469 232.375 L 116.644531 232.371094 L 117.71875 232.371094 L 118.257812 232.367188 L 119.335938 232.367188 L 119.875 232.363281 L 120.414062 232.363281 L 120.953125 232.359375 L 122.027344 232.359375 L 123.105469 232.351562 L 123.644531 232.351562 L 124.183594 232.347656 L 124.722656 232.347656 L 125.257812 232.34375 L 125.796875 232.339844 L 126.335938 232.339844 L 128.492188 232.324219 L 129.027344 232.324219 L 130.105469 232.316406 L 130.644531 232.308594 L 132.261719 232.296875 L 132.796875 232.292969 L 133.335938 232.285156 L 134.414062 232.277344 L 135.492188 232.261719 L 136.03125 232.257812 L 136.570312 232.25 L 137.105469 232.242188 L 139.800781 232.203125 L 140.339844 232.191406 L 140.875 232.183594 L 141.953125 232.160156 L 142.492188 232.152344 L 143.03125 232.140625 L 143.570312 232.125 L 144.109375 232.113281 L 144.644531 232.101562 L 145.183594 232.085938 L 145.722656 232.074219 L 146.800781 232.042969 L 147.339844 232.023438 L 147.878906 232.007812 L 148.414062 231.992188 L 150.03125 231.933594 L 150.570312 231.910156 L 151.109375 231.890625 L 151.648438 231.867188 L 152.183594 231.84375 L 152.722656 231.816406 L 153.261719 231.792969 L 154.878906 231.710938 L 155.957031 231.648438 L 156.492188 231.613281 L 157.03125 231.582031 L 157.570312 231.546875 L 158.109375 231.507812 L 158.648438 231.472656 L 159.1875 231.433594 L 159.726562 231.390625 L 160.261719 231.347656 L 160.800781 231.304688 L 161.878906 231.210938 L 163.496094 231.058594 L 164.03125 231.003906 L 165.109375 230.886719 L 166.1875 230.761719 L 166.726562 230.695312 L 167.265625 230.625 L 167.800781 230.554688 L 168.878906 230.40625 L 169.417969 230.328125 L 169.957031 230.246094 L 171.035156 230.074219 L 171.570312 229.984375 L 172.109375 229.890625 L 173.1875 229.695312 L 174.265625 229.484375 L 174.804688 229.375 L 175.34375 229.261719 L 175.878906 229.144531 L 176.417969 229.023438 L 177.496094 228.765625 L 178.035156 228.632812 L 178.574219 228.496094 L 179.113281 228.351562 L 179.648438 228.207031 L 180.1875 228.054688 L 180.726562 227.898438 L 181.804688 227.570312 L 182.34375 227.398438 L 182.882812 227.222656 L 183.417969 227.039062 L 183.957031 226.851562 L 184.496094 226.660156 L 185.035156 226.460938 L 185.574219 226.253906 L 186.113281 226.042969 L 186.652344 225.828125 L 187.1875 225.601562 L 187.726562 225.375 L 188.265625 225.136719 L 188.804688 224.894531 L 189.34375 224.644531 L 189.882812 224.386719 L 190.421875 224.121094 L 190.957031 223.851562 L 191.496094 223.570312 L 192.035156 223.285156 L 192.574219 222.988281 L 193.113281 222.6875 L 193.652344 222.375 L 194.191406 222.054688 L 194.726562 221.730469 L 195.265625 221.390625 L 195.804688 221.046875 L 196.34375 220.695312 L 196.882812 220.332031 L 197.421875 219.957031 L 197.960938 219.578125 L 198.5 219.1875 L 199.035156 218.785156 L 199.574219 218.375 L 200.113281 217.953125 L 200.652344 217.523438 L 201.191406 217.082031 L 201.730469 216.628906 L 202.269531 216.164062 L 202.804688 215.691406 L 203.34375 215.207031 L 203.882812 214.710938 L 204.421875 214.203125 L 204.960938 213.683594 L 205.5 213.15625 L 206.039062 212.613281 L 206.574219 212.058594 L 207.113281 211.492188 L 207.652344 210.914062 L 208.191406 210.320312 L 208.730469 209.71875 L 209.269531 209.101562 L 209.808594 208.472656 L 210.34375 207.828125 L 210.882812 207.171875 L 211.421875 206.503906 L 211.960938 205.820312 L 212.5 205.125 L 213.039062 204.414062 L 213.578125 203.691406 L 214.113281 202.953125 L 214.652344 202.203125 L 215.191406 201.4375 L 215.730469 200.65625 L 216.269531 199.863281 L 216.808594 199.054688 L 217.347656 198.230469 L 217.886719 197.390625 L 218.421875 196.539062 L 218.960938 195.671875 L 219.5 194.789062 L 220.039062 193.890625 L 220.578125 192.976562 L 221.117188 192.046875 L 221.65625 191.105469 L 222.191406 190.148438 L 222.730469 189.171875 L 223.269531 188.183594 L 223.808594 187.179688 L 224.347656 186.160156 L 224.886719 185.125 L 225.425781 184.074219 L 225.960938 183.007812 L 226.5 181.929688 L 227.039062 180.832031 L 227.578125 179.71875 L 228.117188 178.59375 L 228.65625 177.449219 L 229.195312 176.292969 L 229.730469 175.121094 L 230.269531 173.933594 L 230.808594 172.730469 L 231.347656 171.511719 L 231.886719 170.28125 L 232.425781 169.035156 L 232.964844 167.773438 L 233.5 166.496094 L 234.039062 165.207031 L 234.578125 163.902344 L 235.117188 162.585938 L 235.65625 161.25 L 236.195312 159.90625 L 236.734375 158.546875 L 237.273438 157.171875 L 237.808594 155.789062 L 238.347656 154.386719 L 238.886719 152.976562 L 239.425781 151.550781 L 239.964844 150.117188 L 240.503906 148.667969 L 241.042969 147.207031 L 241.578125 145.738281 L 242.117188 144.253906 L 242.65625 142.761719 L 243.195312 141.257812 L 243.734375 139.742188 L 244.273438 138.21875 L 244.8125 136.683594 L 245.347656 135.140625 L 245.886719 133.589844 L 246.425781 132.027344 L 246.964844 130.460938 L 247.503906 128.882812 L 248.042969 127.300781 L 248.582031 125.707031 L 249.117188 124.109375 L 249.65625 122.507812 L 250.195312 120.898438 L 251.273438 117.664062 L 252.351562 114.414062 L 252.886719 112.78125 L 253.425781 111.148438 L 253.964844 109.511719 L 256.121094 102.949219 L 256.65625 101.308594 L 257.195312 99.667969 L 257.734375 98.03125 L 258.273438 96.390625 L 259.351562 93.125 L 259.890625 91.496094 L 260.429688 89.871094 L 260.964844 88.25 L 261.503906 86.636719 L 262.042969 85.027344 L 262.582031 83.421875 L 263.121094 81.828125 L 263.660156 80.238281 L 264.199219 78.65625 L 264.734375 77.085938 L 265.273438 75.523438 L 265.8125 73.96875 L 266.351562 72.429688 L 266.890625 70.898438 L 267.429688 69.378906 L 267.96875 67.871094 L 268.503906 66.375 L 269.042969 64.894531 L 269.582031 63.429688 L 270.121094 61.976562 L 270.660156 60.539062 L 271.199219 59.121094 L 271.738281 57.714844 L 272.273438 56.328125 L 272.8125 54.960938 L 273.351562 53.609375 L 273.890625 52.277344 L 274.429688 50.964844 L 274.96875 49.671875 L 275.507812 48.398438 L 276.042969 47.148438 L 276.582031 45.917969 L 277.121094 44.710938 L 277.660156 43.527344 L 278.199219 42.367188 L 278.738281 41.226562 L 279.277344 40.113281 L 279.816406 39.027344 L 280.351562 37.964844 L 280.890625 36.925781 L 281.429688 35.914062 L 281.96875 34.929688 L 282.507812 33.972656 L 283.046875 33.042969 L 283.585938 32.140625 L 284.121094 31.269531 L 284.660156 30.421875 L 285.199219 29.609375 L 285.738281 28.824219 L 286.277344 28.066406 L 286.816406 27.34375 L 287.355469 26.648438 L 287.890625 25.984375 L 288.429688 25.351562 L 288.96875 24.753906 L 289.507812 24.183594 L 290.046875 23.648438 L 290.585938 23.144531 L 291.125 22.671875 L 291.660156 22.234375 L 292.199219 21.828125 L 292.738281 21.457031 L 293.277344 21.121094 L 293.816406 20.816406 L 294.355469 20.542969 L 294.894531 20.308594 L 295.429688 20.105469 L 295.96875 19.9375 L 296.507812 19.800781 L 297.046875 19.703125 L 297.585938 19.636719 L 298.125 19.605469 L 298.664062 19.609375 L 299.203125 19.648438 L 299.738281 19.71875 L 300.277344 19.824219 L 300.816406 19.964844 L 301.355469 20.140625 L 301.894531 20.351562 L 302.433594 20.59375 L 302.972656 20.871094 L 303.507812 21.179688 L 304.046875 21.523438 L 304.585938 21.902344 L 305.125 22.3125 L 305.664062 22.757812 L 306.203125 23.234375 L 306.742188 23.746094 L 307.277344 24.289062 L 307.816406 24.863281 L 308.355469 25.46875 L 308.894531 26.105469 L 309.433594 26.777344 L 309.972656 27.476562 L 310.511719 28.207031 L 311.046875 28.96875 L 311.585938 29.757812 L 312.125 30.578125 L 312.664062 31.429688 L 313.203125 32.308594 L 313.742188 33.214844 L 314.28125 34.148438 L 314.816406 35.113281 L 315.355469 36.101562 L 315.894531 37.117188 L 316.433594 38.160156 L 316.972656 39.226562 L 317.511719 40.320312 L 318.050781 41.4375 L 318.585938 42.582031 L 319.125 43.746094 L 319.664062 44.9375 L 320.203125 46.148438 L 320.742188 47.378906 L 321.28125 48.636719 L 321.820312 49.910156 L 322.359375 51.207031 L 322.894531 52.523438 L 323.433594 53.859375 L 323.972656 55.214844 L 324.511719 56.589844 L 325.050781 57.976562 L 325.589844 59.386719 L 326.128906 60.808594 L 326.664062 62.25 L 327.203125 63.703125 L 327.742188 65.171875 L 328.28125 66.65625 L 328.820312 68.152344 L 329.359375 69.660156 L 329.898438 71.183594 L 330.433594 72.714844 L 330.972656 74.261719 L 331.511719 75.816406 L 332.050781 77.378906 L 332.589844 78.953125 L 333.128906 80.535156 L 333.667969 82.125 L 334.203125 83.722656 L 334.742188 85.328125 L 335.28125 86.9375 L 335.820312 88.554688 L 336.359375 90.175781 L 336.898438 91.800781 L 337.4375 93.429688 L 337.972656 95.0625 L 339.050781 98.335938 L 341.746094 106.539062 L 342.28125 108.179688 L 343.359375 111.453125 L 344.4375 114.71875 L 345.515625 117.96875 L 346.050781 119.585938 L 346.589844 121.199219 L 347.128906 122.808594 L 347.667969 124.410156 L 348.207031 126.007812 L 348.746094 127.597656 L 349.285156 129.179688 L 349.820312 130.753906 L 350.359375 132.320312 L 350.898438 133.878906 L 351.4375 135.429688 L 351.976562 136.972656 L 352.515625 138.503906 L 353.054688 140.027344 L 353.589844 141.539062 L 354.128906 143.042969 L 354.667969 144.53125 L 355.207031 146.011719 L 355.746094 147.484375 L 356.285156 148.941406 L 356.824219 150.386719 L 357.359375 151.820312 L 357.898438 153.242188 L 358.4375 154.652344 L 358.976562 156.046875 L 359.515625 157.433594 L 360.054688 158.800781 L 360.59375 160.160156 L 361.132812 161.503906 L 361.667969 162.832031 L 362.207031 164.148438 L 362.746094 165.449219 L 363.285156 166.738281 L 363.824219 168.011719 L 364.363281 169.269531 L 364.902344 170.511719 L 365.4375 171.742188 L 365.976562 172.957031 L 366.515625 174.15625 L 367.054688 175.34375 L 367.59375 176.511719 L 368.132812 177.667969 L 368.671875 178.804688 L 369.207031 179.929688 L 369.746094 181.039062 L 370.285156 182.132812 L 370.824219 183.210938 L 371.363281 184.273438 L 371.902344 185.320312 L 372.441406 186.351562 L 372.976562 187.371094 L 373.515625 188.371094 L 374.054688 189.355469 L 374.59375 190.328125 L 375.132812 191.285156 L 375.671875 192.222656 L 376.210938 193.148438 L 376.746094 194.058594 L 377.285156 194.953125 L 377.824219 195.835938 L 378.363281 196.699219 L 378.902344 197.550781 L 379.441406 198.386719 L 379.980469 199.207031 L 380.515625 200.011719 L 381.054688 200.804688 L 381.59375 201.582031 L 382.132812 202.34375 L 382.671875 203.09375 L 383.210938 203.828125 L 383.75 204.550781 L 384.289062 205.257812 L 384.824219 205.949219 L 385.363281 206.628906 L 385.902344 207.296875 L 386.441406 207.949219 L 386.980469 208.589844 L 387.519531 209.21875 L 388.058594 209.832031 L 388.59375 210.433594 L 389.132812 211.023438 L 389.671875 211.597656 L 390.210938 212.164062 L 390.75 212.714844 L 391.289062 213.253906 L 391.828125 213.785156 L 392.363281 214.300781 L 392.902344 214.804688 L 393.441406 215.300781 L 393.980469 215.78125 L 394.519531 216.253906 L 395.058594 216.714844 L 395.597656 217.164062 L 396.132812 217.605469 L 396.671875 218.03125 L 397.210938 218.453125 L 397.75 218.859375 L 398.289062 219.261719 L 398.828125 219.648438 L 399.367188 220.027344 L 399.902344 220.398438 L 400.441406 220.761719 L 400.980469 221.113281 L 401.519531 221.457031 L 402.058594 221.789062 L 402.597656 222.117188 L 403.136719 222.433594 L 403.675781 222.742188 L 404.210938 223.042969 "/>
<path fill="none" stroke-width="4.694705" stroke-linecap="butt" stroke-linejoin="round" stroke="rgb(100%, 16.862745%, 83.921569%)" stroke-opacity="1" stroke-dasharray="4.694705 14.084114" stroke-miterlimit="10" d="M 27.789062 227.902344 L 28.324219 227.742188 L 28.863281 227.574219 L 29.402344 227.402344 L 29.941406 227.226562 L 30.480469 227.046875 L 31.019531 226.859375 L 31.558594 226.664062 L 32.097656 226.464844 L 32.632812 226.261719 L 33.171875 226.050781 L 33.710938 225.832031 L 34.25 225.609375 L 34.789062 225.378906 L 35.328125 225.144531 L 35.867188 224.902344 L 36.402344 224.652344 L 36.941406 224.394531 L 37.480469 224.128906 L 38.019531 223.859375 L 38.558594 223.578125 L 39.097656 223.292969 L 39.636719 223 L 40.171875 222.695312 L 40.710938 222.386719 L 41.25 222.066406 L 41.789062 221.738281 L 42.328125 221.402344 L 42.867188 221.058594 L 43.40625 220.703125 L 43.941406 220.34375 L 44.480469 219.96875 L 45.019531 219.589844 L 45.558594 219.199219 L 46.097656 218.796875 L 46.636719 218.386719 L 47.175781 217.964844 L 47.710938 217.535156 L 48.25 217.09375 L 48.789062 216.644531 L 49.328125 216.179688 L 49.867188 215.707031 L 50.40625 215.222656 L 50.945312 214.726562 L 51.484375 214.21875 L 52.019531 213.703125 L 52.558594 213.171875 L 53.097656 212.628906 L 53.636719 212.074219 L 54.175781 211.507812 L 54.714844 210.929688 L 55.253906 210.339844 L 55.789062 209.738281 L 56.328125 209.121094 L 56.867188 208.492188 L 57.40625 207.847656 L 57.945312 207.195312 L 58.484375 206.523438 L 59.023438 205.84375 L 59.558594 205.148438 L 60.097656 204.4375 L 60.636719 203.714844 L 61.175781 202.976562 L 61.714844 202.226562 L 62.253906 201.460938 L 62.792969 200.679688 L 63.328125 199.886719 L 63.867188 199.078125 L 64.40625 198.253906 L 64.945312 197.417969 L 65.484375 196.566406 L 66.023438 195.699219 L 66.5625 194.816406 L 67.097656 193.917969 L 67.636719 193.003906 L 68.175781 192.078125 L 68.714844 191.136719 L 69.253906 190.175781 L 69.792969 189.203125 L 70.332031 188.214844 L 70.867188 187.210938 L 71.40625 186.191406 L 71.945312 185.15625 L 72.484375 184.109375 L 73.023438 183.042969 L 73.5625 181.960938 L 74.101562 180.867188 L 74.640625 179.753906 L 75.175781 178.628906 L 75.714844 177.488281 L 76.253906 176.328125 L 76.792969 175.15625 L 77.332031 173.972656 L 77.871094 172.769531 L 78.410156 171.550781 L 78.945312 170.320312 L 79.484375 169.074219 L 80.023438 167.8125 L 80.5625 166.539062 L 81.101562 165.246094 L 81.640625 163.945312 L 82.179688 162.625 L 82.714844 161.292969 L 83.253906 159.949219 L 83.792969 158.589844 L 84.332031 157.214844 L 84.871094 155.832031 L 85.410156 154.433594 L 85.949219 153.019531 L 86.484375 151.597656 L 87.023438 150.160156 L 87.5625 148.714844 L 88.101562 147.253906 L 88.640625 145.78125 L 89.179688 144.300781 L 89.71875 142.808594 L 90.253906 141.304688 L 90.792969 139.789062 L 91.332031 138.265625 L 91.871094 136.730469 L 92.410156 135.1875 L 92.949219 133.636719 L 93.488281 132.078125 L 94.027344 130.507812 L 94.5625 128.933594 L 95.101562 127.347656 L 95.640625 125.757812 L 96.179688 124.160156 L 96.71875 122.558594 L 97.257812 120.949219 L 97.796875 119.332031 L 98.332031 117.714844 L 99.410156 114.464844 L 100.488281 111.199219 L 101.027344 109.5625 L 101.566406 107.921875 L 102.101562 106.285156 L 102.640625 104.644531 L 103.179688 103 L 104.257812 99.71875 L 104.796875 98.082031 L 105.335938 96.441406 L 105.871094 94.808594 L 106.410156 93.175781 L 106.949219 91.546875 L 107.488281 89.921875 L 108.027344 88.300781 L 109.105469 85.074219 L 109.640625 83.472656 L 110.179688 81.875 L 110.71875 80.289062 L 111.257812 78.707031 L 111.796875 77.132812 L 112.335938 75.570312 L 112.875 74.019531 L 113.414062 72.476562 L 113.949219 70.945312 L 114.488281 69.425781 L 115.027344 67.917969 L 115.566406 66.421875 L 116.105469 64.941406 L 116.644531 63.476562 L 117.183594 62.023438 L 117.71875 60.585938 L 118.257812 59.164062 L 118.796875 57.757812 L 119.335938 56.371094 L 119.875 55.003906 L 120.414062 53.652344 L 120.953125 52.316406 L 121.488281 51.003906 L 122.027344 49.710938 L 122.566406 48.4375 L 123.105469 47.1875 L 123.644531 45.957031 L 124.183594 44.75 L 124.722656 43.5625 L 125.257812 42.402344 L 125.796875 41.261719 L 126.335938 40.148438 L 126.875 39.058594 L 127.414062 37.996094 L 127.953125 36.957031 L 128.492188 35.945312 L 129.027344 34.960938 L 129.566406 34.003906 L 130.105469 33.070312 L 130.644531 32.167969 L 131.183594 31.296875 L 131.722656 30.449219 L 132.261719 29.632812 L 132.796875 28.847656 L 133.335938 28.089844 L 133.875 27.363281 L 134.414062 26.667969 L 134.953125 26.003906 L 135.492188 25.371094 L 136.03125 24.769531 L 136.570312 24.203125 L 137.105469 23.664062 L 137.644531 23.160156 L 138.183594 22.6875 L 138.722656 22.246094 L 139.261719 21.84375 L 139.800781 21.46875 L 140.339844 21.128906 L 140.875 20.824219 L 141.414062 20.550781 L 141.953125 20.316406 L 142.492188 20.109375 L 143.03125 19.941406 L 143.570312 19.804688 L 144.109375 19.707031 L 144.644531 19.636719 L 145.183594 19.605469 L 145.722656 19.609375 L 146.261719 19.644531 L 146.800781 19.714844 L 147.339844 19.820312 L 147.878906 19.960938 L 148.414062 20.132812 L 148.953125 20.34375 L 149.492188 20.585938 L 150.03125 20.859375 L 150.570312 21.171875 L 151.109375 21.515625 L 151.648438 21.890625 L 152.183594 22.300781 L 152.722656 22.746094 L 153.261719 23.21875 L 153.800781 23.730469 L 154.339844 24.269531 L 154.878906 24.84375 L 155.417969 25.449219 L 155.957031 26.085938 L 156.492188 26.753906 L 157.03125 27.453125 L 157.570312 28.183594 L 158.109375 28.945312 L 158.648438 29.734375 L 159.1875 30.554688 L 159.726562 31.402344 L 160.261719 32.28125 L 160.800781 33.1875 L 161.339844 34.121094 L 161.878906 35.082031 L 162.417969 36.070312 L 162.957031 37.085938 L 163.496094 38.128906 L 164.03125 39.195312 L 164.570312 40.285156 L 165.109375 41.402344 L 165.648438 42.546875 L 166.1875 43.710938 L 166.726562 44.898438 L 167.265625 46.109375 L 167.800781 47.34375 L 168.339844 48.597656 L 168.878906 49.871094 L 169.417969 51.167969 L 169.957031 52.484375 L 170.496094 53.820312 L 171.035156 55.171875 L 171.570312 56.542969 L 172.109375 57.933594 L 172.648438 59.339844 L 173.1875 60.765625 L 173.726562 62.203125 L 174.265625 63.65625 L 174.804688 65.125 L 175.34375 66.609375 L 175.878906 68.105469 L 176.417969 69.613281 L 176.957031 71.136719 L 177.496094 72.667969 L 178.035156 74.210938 L 178.574219 75.765625 L 179.113281 77.332031 L 179.648438 78.902344 L 180.1875 80.484375 L 180.726562 82.074219 L 181.265625 83.671875 L 181.804688 85.277344 L 182.34375 86.886719 L 182.882812 88.503906 L 183.417969 90.125 L 183.957031 91.75 L 184.496094 93.378906 L 185.035156 95.011719 L 186.113281 98.285156 L 186.652344 99.925781 L 187.1875 101.566406 L 189.34375 108.128906 L 190.421875 111.402344 L 190.957031 113.035156 L 191.496094 114.667969 L 192.574219 117.917969 L 193.113281 119.535156 L 193.652344 121.148438 L 194.191406 122.757812 L 194.726562 124.359375 L 195.265625 125.957031 L 195.804688 127.546875 L 196.34375 129.128906 L 196.882812 130.703125 L 197.421875 132.273438 L 197.960938 133.832031 L 198.5 135.382812 L 199.035156 136.925781 L 199.574219 138.457031 L 200.113281 139.980469 L 200.652344 141.492188 L 201.191406 142.996094 L 201.730469 144.484375 L 202.269531 145.96875 L 202.804688 147.4375 L 203.34375 148.894531 L 203.882812 150.339844 L 204.421875 151.777344 L 204.960938 153.199219 L 205.5 154.609375 L 206.039062 156.003906 L 206.574219 157.390625 L 207.113281 158.757812 L 207.652344 160.117188 L 208.191406 161.460938 L 208.730469 162.792969 L 209.269531 164.105469 L 209.808594 165.410156 L 210.34375 166.699219 L 210.882812 167.972656 L 211.421875 169.230469 L 211.960938 170.476562 L 212.5 171.703125 L 213.039062 172.917969 L 213.578125 174.121094 L 214.113281 175.304688 L 214.652344 176.476562 L 215.191406 177.628906 L 215.730469 178.769531 L 216.269531 179.894531 L 216.808594 181.003906 L 217.347656 182.097656 L 217.886719 183.175781 L 218.421875 184.238281 L 218.960938 185.289062 L 219.5 186.320312 L 220.039062 187.335938 L 220.578125 188.339844 L 221.117188 189.328125 L 221.65625 190.296875 L 222.191406 191.253906 L 222.730469 192.195312 L 223.269531 193.121094 L 223.808594 194.03125 L 224.347656 194.925781 L 224.886719 195.808594 L 225.425781 196.671875 L 225.960938 197.523438 L 226.5 198.359375 L 227.039062 199.179688 L 227.578125 199.988281 L 228.117188 200.78125 L 228.65625 201.558594 L 229.195312 202.320312 L 229.730469 203.070312 L 230.269531 203.804688 L 230.808594 204.527344 L 231.347656 205.234375 L 231.886719 205.929688 L 232.425781 206.609375 L 232.964844 207.277344 L 233.5 207.929688 L 234.039062 208.570312 L 234.578125 209.199219 L 235.117188 209.8125 L 235.65625 210.414062 L 236.195312 211.003906 L 236.734375 211.582031 L 237.273438 212.144531 L 237.808594 212.699219 L 238.347656 213.238281 L 238.886719 213.765625 L 239.425781 214.285156 L 239.964844 214.789062 L 240.503906 215.285156 L 241.042969 215.765625 L 241.578125 216.238281 L 242.117188 216.699219 L 242.65625 217.148438 L 243.195312 217.589844 L 243.734375 218.019531 L 244.273438 218.4375 L 244.8125 218.847656 L 245.347656 219.246094 L 245.886719 219.636719 L 246.425781 220.015625 L 246.964844 220.386719 L 247.503906 220.75 L 248.042969 221.101562 L 248.582031 221.445312 L 249.117188 221.78125 L 249.65625 222.105469 L 250.195312 222.425781 L 250.734375 222.734375 L 251.273438 223.035156 L 251.8125 223.328125 L 252.351562 223.613281 L 252.886719 223.894531 L 253.425781 224.164062 L 253.964844 224.425781 L 254.503906 224.683594 L 255.042969 224.933594 L 255.582031 225.175781 L 256.121094 225.410156 L 256.65625 225.640625 L 257.734375 226.078125 L 258.273438 226.289062 L 258.8125 226.492188 L 259.890625 226.882812 L 260.429688 227.070312 L 260.964844 227.25 L 261.503906 227.425781 L 262.042969 227.597656 L 262.582031 227.761719 L 263.121094 227.921875 L 263.660156 228.078125 L 264.199219 228.230469 L 264.734375 228.375 L 265.273438 228.515625 L 266.351562 228.789062 L 266.890625 228.917969 L 267.96875 229.160156 L 268.503906 229.277344 L 269.042969 229.390625 L 270.121094 229.609375 L 270.660156 229.710938 L 271.738281 229.90625 L 272.273438 230 L 272.8125 230.089844 L 273.351562 230.175781 L 274.429688 230.339844 L 274.96875 230.417969 L 275.507812 230.492188 L 276.042969 230.566406 L 276.582031 230.636719 L 277.660156 230.769531 L 278.738281 230.894531 L 279.816406 231.011719 L 280.351562 231.066406 L 281.96875 231.21875 L 283.046875 231.3125 L 283.585938 231.355469 L 284.121094 231.398438 L 285.738281 231.515625 L 287.355469 231.621094 L 287.890625 231.652344 L 288.96875 231.714844 L 290.585938 231.796875 L 291.125 231.820312 L 291.660156 231.847656 L 292.738281 231.894531 L 293.816406 231.933594 L 294.355469 231.957031 L 294.894531 231.976562 L 295.429688 231.992188 L 295.96875 232.011719 L 298.664062 232.089844 L 299.203125 232.101562 L 299.738281 232.117188 L 302.433594 232.175781 L 302.972656 232.183594 L 303.507812 232.195312 L 305.125 232.21875 L 305.664062 232.230469 L 306.203125 232.238281 L 306.742188 232.242188 L 307.277344 232.25 L 308.355469 232.265625 L 308.894531 232.269531 L 309.433594 232.277344 L 309.972656 232.28125 L 310.511719 232.289062 L 311.046875 232.292969 L 312.125 232.300781 L 312.664062 232.308594 L 314.28125 232.320312 L 314.816406 232.324219 L 315.355469 232.328125 L 315.894531 232.328125 L 317.511719 232.339844 L 318.050781 232.339844 L 318.585938 232.34375 L 319.125 232.347656 L 319.664062 232.347656 L 320.742188 232.355469 L 321.28125 232.355469 L 321.820312 232.359375 L 322.359375 232.359375 L 322.894531 232.363281 L 323.972656 232.363281 L 324.511719 232.367188 L 325.050781 232.367188 L 325.589844 232.371094 L 327.203125 232.371094 L 327.742188 232.375 L 328.820312 232.375 L 329.359375 232.378906 L 331.511719 232.378906 L 332.050781 232.382812 L 334.742188 232.382812 L 335.28125 232.386719 L 339.589844 232.386719 L 340.128906 232.390625 L 350.898438 232.390625 L 351.4375 232.394531 L 404.210938 232.394531 "/>
<path fill="none" stroke-width="4.694705" stroke-linecap="butt" stroke-linejoin="round" stroke="rgb(96.078431%, 100%, 23.137255%)" stroke-opacity="1" stroke-miterlimit="10" d="M 27.789062 51.523438 L 28.324219 51.78125 L 28.863281 52.042969 L 30.480469 52.816406 L 31.019531 53.078125 L 32.097656 53.59375 L 32.632812 53.851562 L 33.171875 54.113281 L 34.789062 54.886719 L 35.328125 55.148438 L 35.867188 55.40625 L 36.402344 55.664062 L 36.941406 55.921875 L 37.480469 56.183594 L 39.636719 57.214844 L 40.171875 57.476562 L 41.789062 58.25 L 42.328125 58.511719 L 43.40625 59.027344 L 43.941406 59.285156 L 44.480469 59.546875 L 46.097656 60.320312 L 46.636719 60.582031 L 47.175781 60.839844 L 47.710938 61.097656 L 48.25 61.355469 L 48.789062 61.617188 L 50.40625 62.390625 L 50.945312 62.652344 L 51.484375 62.910156 L 52.019531 63.167969 L 52.558594 63.425781 L 53.097656 63.6875 L 55.253906 64.71875 L 55.789062 64.980469 L 57.40625 65.753906 L 57.945312 66.015625 L 59.023438 66.53125 L 59.558594 66.789062 L 60.097656 67.050781 L 61.714844 67.824219 L 62.253906 68.085938 L 62.792969 68.34375 L 63.328125 68.601562 L 63.867188 68.859375 L 64.40625 69.121094 L 66.023438 69.894531 L 66.5625 70.15625 L 67.097656 70.414062 L 68.175781 70.929688 L 68.714844 71.191406 L 70.332031 71.964844 L 70.867188 72.222656 L 71.40625 72.484375 L 73.023438 73.257812 L 73.5625 73.519531 L 74.640625 74.035156 L 75.175781 74.292969 L 75.714844 74.554688 L 77.332031 75.328125 L 77.871094 75.589844 L 78.410156 75.847656 L 78.945312 76.105469 L 79.484375 76.363281 L 80.023438 76.625 L 81.640625 77.398438 L 82.179688 77.660156 L 82.714844 77.917969 L 83.792969 78.433594 L 84.332031 78.695312 L 85.949219 79.46875 L 86.484375 79.726562 L 87.023438 79.988281 L 88.640625 80.761719 L 89.179688 81.023438 L 89.71875 81.28125 L 90.253906 81.539062 L 90.792969 81.796875 L 91.332031 82.058594 L 92.949219 82.832031 L 93.488281 83.09375 L 94.027344 83.351562 L 94.5625 83.609375 L 95.101562 83.867188 L 95.640625 84.128906 L 97.257812 84.902344 L 97.796875 85.164062 L 98.332031 85.421875 L 99.410156 85.9375 L 99.949219 86.199219 L 101.566406 86.972656 L 102.101562 87.230469 L 102.640625 87.492188 L 104.257812 88.265625 L 104.796875 88.527344 L 105.335938 88.785156 L 105.871094 89.042969 L 106.410156 89.300781 L 106.949219 89.5625 L 108.566406 90.335938 L 109.105469 90.597656 L 109.640625 90.855469 L 110.71875 91.371094 L 111.257812 91.632812 L 112.875 92.40625 L 113.414062 92.667969 L 113.949219 92.925781 L 115.027344 93.441406 L 115.566406 93.703125 L 117.183594 94.476562 L 117.71875 94.734375 L 118.257812 94.996094 L 119.875 95.769531 L 120.414062 96.03125 L 120.953125 96.289062 L 121.488281 96.546875 L 122.027344 96.804688 L 122.566406 97.066406 L 124.183594 97.839844 L 124.722656 98.101562 L 125.257812 98.359375 L 126.335938 98.875 L 126.875 99.136719 L 128.492188 99.910156 L 129.027344 100.171875 L 130.644531 100.945312 L 131.183594 101.207031 L 132.261719 101.722656 L 132.796875 101.980469 L 133.335938 102.238281 L 133.875 102.5 L 135.492188 103.273438 L 136.03125 103.535156 L 136.570312 103.792969 L 137.105469 104.050781 L 137.644531 104.308594 L 138.183594 104.570312 L 139.800781 105.34375 L 140.339844 105.605469 L 140.875 105.863281 L 141.953125 106.378906 L 142.492188 106.640625 L 144.109375 107.414062 L 144.644531 107.675781 L 146.261719 108.449219 L 146.800781 108.710938 L 147.878906 109.226562 L 148.414062 109.484375 L 148.953125 109.742188 L 149.492188 110.003906 L 151.109375 110.777344 L 151.648438 111.039062 L 152.183594 111.296875 L 153.261719 111.8125 L 153.800781 112.074219 L 155.417969 112.847656 L 155.957031 113.109375 L 156.492188 113.367188 L 157.570312 113.882812 L 158.109375 114.144531 L 159.726562 114.917969 L 160.261719 115.179688 L 161.878906 115.953125 L 162.417969 116.214844 L 163.496094 116.730469 L 164.03125 116.988281 L 164.570312 117.246094 L 165.109375 117.507812 L 166.726562 118.28125 L 167.265625 118.542969 L 167.800781 118.800781 L 168.878906 119.316406 L 169.417969 119.578125 L 171.035156 120.351562 L 171.570312 120.613281 L 173.1875 121.386719 L 173.726562 121.648438 L 175.34375 122.421875 L 175.878906 122.683594 L 177.496094 123.457031 L 178.035156 123.71875 L 179.113281 124.234375 L 179.648438 124.492188 L 180.1875 124.75 L 180.726562 125.011719 L 182.34375 125.785156 L 182.882812 126.046875 L 183.417969 126.304688 L 184.496094 126.820312 L 185.035156 127.082031 L 186.652344 127.855469 L 187.1875 128.117188 L 188.804688 128.890625 L 189.34375 129.152344 L 190.421875 129.667969 L 190.957031 129.925781 L 191.496094 130.1875 L 193.113281 130.960938 L 193.652344 131.222656 L 194.191406 131.480469 L 194.726562 131.738281 L 195.804688 132.253906 L 196.34375 132.515625 L 197.960938 133.289062 L 198.5 133.550781 L 199.035156 133.808594 L 200.113281 134.324219 L 200.652344 134.585938 L 202.269531 135.359375 L 202.804688 135.621094 L 204.421875 136.394531 L 204.960938 136.65625 L 206.039062 137.171875 L 206.574219 137.429688 L 207.113281 137.691406 L 208.730469 138.464844 L 209.269531 138.726562 L 209.808594 138.984375 L 210.34375 139.242188 L 211.421875 139.757812 L 211.960938 140.019531 L 213.578125 140.792969 L 214.113281 141.054688 L 215.730469 141.828125 L 216.269531 142.089844 L 217.886719 142.863281 L 218.421875 143.125 L 220.039062 143.898438 L 220.578125 144.160156 L 221.65625 144.675781 L 222.191406 144.933594 L 222.730469 145.195312 L 224.347656 145.96875 L 224.886719 146.230469 L 225.425781 146.488281 L 225.960938 146.746094 L 227.039062 147.261719 L 227.578125 147.523438 L 229.195312 148.296875 L 229.730469 148.558594 L 231.347656 149.332031 L 231.886719 149.59375 L 232.964844 150.109375 L 233.5 150.367188 L 234.039062 150.628906 L 235.65625 151.402344 L 236.195312 151.664062 L 237.273438 152.179688 L 237.808594 152.4375 L 238.347656 152.699219 L 239.964844 153.472656 L 240.503906 153.734375 L 241.042969 153.992188 L 241.578125 154.25 L 242.65625 154.765625 L 243.195312 155.027344 L 244.8125 155.800781 L 245.347656 156.0625 L 246.964844 156.835938 L 247.503906 157.097656 L 248.582031 157.613281 L 249.117188 157.871094 L 249.65625 158.132812 L 251.273438 158.90625 L 251.8125 159.167969 L 252.351562 159.425781 L 252.886719 159.683594 L 253.425781 159.941406 L 253.964844 160.203125 L 255.582031 160.976562 L 256.121094 161.238281 L 256.65625 161.496094 L 258.273438 162.269531 L 258.8125 162.53125 L 260.429688 163.304688 L 260.964844 163.566406 L 262.582031 164.339844 L 263.121094 164.601562 L 264.199219 165.117188 L 264.734375 165.375 L 265.273438 165.636719 L 266.890625 166.410156 L 267.429688 166.671875 L 267.96875 166.929688 L 268.503906 167.1875 L 269.042969 167.445312 L 269.582031 167.707031 L 271.199219 168.480469 L 271.738281 168.742188 L 272.273438 169 L 273.890625 169.773438 L 274.429688 170.035156 L 275.507812 170.550781 L 276.042969 170.808594 L 276.582031 171.070312 L 278.199219 171.84375 L 278.738281 172.105469 L 279.816406 172.621094 L 280.351562 172.878906 L 280.890625 173.140625 L 282.507812 173.914062 L 283.046875 174.175781 L 283.585938 174.433594 L 284.121094 174.691406 L 284.660156 174.949219 L 285.199219 175.210938 L 286.816406 175.984375 L 287.355469 176.246094 L 287.890625 176.503906 L 289.507812 177.277344 L 290.046875 177.539062 L 291.125 178.054688 L 291.660156 178.3125 L 292.199219 178.574219 L 293.816406 179.347656 L 294.355469 179.609375 L 294.894531 179.867188 L 295.429688 180.125 L 295.96875 180.382812 L 296.507812 180.644531 L 298.125 181.417969 L 298.664062 181.679688 L 299.203125 181.9375 L 299.738281 182.195312 L 300.277344 182.453125 L 300.816406 182.714844 L 302.433594 183.488281 L 302.972656 183.75 L 303.507812 184.007812 L 305.125 184.78125 L 305.664062 185.042969 L 306.742188 185.558594 L 307.277344 185.816406 L 307.816406 186.078125 L 309.433594 186.851562 L 309.972656 187.113281 L 310.511719 187.371094 L 311.046875 187.628906 L 311.585938 187.886719 L 312.125 188.148438 L 313.742188 188.921875 L 314.28125 189.183594 L 314.816406 189.441406 L 315.894531 189.957031 L 316.433594 190.21875 L 318.050781 190.992188 L 318.585938 191.253906 L 320.742188 192.285156 L 321.28125 192.546875 L 322.359375 193.0625 L 322.894531 193.320312 L 323.433594 193.582031 L 325.050781 194.355469 L 325.589844 194.617188 L 326.128906 194.875 L 326.664062 195.132812 L 327.203125 195.390625 L 327.742188 195.652344 L 329.359375 196.425781 L 329.898438 196.6875 L 330.433594 196.945312 L 331.511719 197.460938 L 332.050781 197.722656 L 333.667969 198.496094 L 334.203125 198.757812 L 336.359375 199.789062 L 336.898438 200.050781 L 337.4375 200.308594 L 337.972656 200.566406 L 338.511719 200.824219 L 339.050781 201.085938 L 340.667969 201.859375 L 341.207031 202.121094 L 341.746094 202.378906 L 342.28125 202.636719 L 342.820312 202.894531 L 343.359375 203.15625 L 344.976562 203.929688 L 345.515625 204.191406 L 346.050781 204.449219 L 347.128906 204.964844 L 347.667969 205.226562 L 349.285156 206 L 349.820312 206.261719 L 351.976562 207.292969 L 352.515625 207.554688 L 353.054688 207.8125 L 353.589844 208.070312 L 354.128906 208.328125 L 354.667969 208.589844 L 356.285156 209.363281 L 356.824219 209.625 L 357.359375 209.882812 L 358.4375 210.398438 L 358.976562 210.660156 L 360.59375 211.433594 L 361.132812 211.695312 L 361.667969 211.953125 L 362.746094 212.46875 L 363.285156 212.730469 L 364.902344 213.503906 L 365.4375 213.765625 L 367.59375 214.796875 L 368.132812 215.058594 L 368.671875 215.316406 L 369.207031 215.574219 L 369.746094 215.832031 L 370.285156 216.09375 L 371.902344 216.867188 L 372.441406 217.128906 L 372.976562 217.386719 L 374.054688 217.902344 L 374.59375 218.164062 L 376.210938 218.9375 L 376.746094 219.199219 L 378.363281 219.972656 L 378.902344 220.234375 L 379.980469 220.75 L 380.515625 221.007812 L 381.054688 221.269531 L 382.671875 222.042969 L 383.210938 222.304688 L 384.289062 222.820312 L 384.824219 223.078125 L 385.363281 223.335938 L 385.902344 223.597656 L 387.519531 224.371094 L 388.058594 224.632812 L 388.59375 224.890625 L 389.671875 225.40625 L 390.210938 225.667969 L 391.828125 226.441406 L 392.363281 226.703125 L 393.980469 227.476562 L 394.519531 227.738281 L 395.597656 228.253906 L 396.132812 228.511719 L 396.671875 228.773438 L 398.289062 229.546875 L 398.828125 229.808594 L 399.367188 230.066406 L 399.902344 230.324219 L 400.980469 230.839844 L 401.519531 231.101562 L 403.136719 231.875 L 403.675781 232.136719 L 404.210938 232.394531 "/>
<path fill="none" stroke-width="4.694705" stroke-linecap="round" stroke-linejoin="round" stroke="rgb(43.921569%, 100%, 25.098039%)" stroke-opacity="1" stroke-miterlimit="10" d="M 298.34375 94.078125 L 216 94.078125 "/>
<path fill-rule="nonzero" fill="rgb(43.921569%, 100%, 25.098039%)" fill-opacity="1" stroke-width="4.694705" stroke-linecap="round" stroke-linejoin="round" stroke="rgb(43.921569%, 100%, 25.098039%)" stroke-opacity="1" stroke-miterlimit="10" d="M 229.71875 86.160156 L 216 94.078125 L 229.71875 102 Z M 229.71875 86.160156 "/>
</svg>
