<?xml version="1.0" encoding="utf-8" standalone="no"?>
<!DOCTYPE svg PUBLIC "-//W3C//DTD SVG 1.1//EN"
  "http://www.w3.org/Graphics/SVG/1.1/DTD/svg11.dtd">
<svg xmlns:xlink="http://www.w3.org/1999/xlink" width="728.39952pt" height="512.39952pt" viewBox="0 0 728.39952 512.39952" xmlns="http://www.w3.org/2000/svg" version="1.1">
 <metadata>
  <rdf:RDF xmlns:dc="http://purl.org/dc/elements/1.1/" xmlns:cc="http://creativecommons.org/ns#" xmlns:rdf="http://www.w3.org/1999/02/22-rdf-syntax-ns#">
   <cc:Work>
    <dc:type rdf:resource="http://purl.org/dc/dcmitype/StillImage"/>
    <dc:date>2026-06-03T14:41:10.031341</dc:date>
    <dc:format>image/svg+xml</dc:format>
    <dc:creator>
     <cc:Agent>
      <dc:title>Matplotlib v3.10.9, https://matplotlib.org/</dc:title>
     </cc:Agent>
    </dc:creator>
   </cc:Work>
  </rdf:RDF>
 </metadata>
 <defs>
  <style type="text/css">*{stroke-linejoin: round; stroke-linecap: butt}</style>
 </defs>
 <g id="figure_1">
  <g id="patch_1">
   <path d="M 0 512.39952 
L 728.39952 512.39952 
L 728.39952 0 
L 0 0 
z
" style="fill: #ffffff"/>
  </g>
  <g id="axes_1">
   <g id="patch_2">
    <path d="M 64.319962 107.997146 
L 664.079558 107.997146 
L 664.079558 83.478921 
L 64.319962 83.478921 
L 64.319962 107.997146 
z
" clip-path="url(#p5edbd58cfe)" style="fill: none; stroke: #000000; stroke-width: 1.6; stroke-linejoin: miter"/>
   </g>
   <g id="patch_3">
    <path d="M 252.389174 180.122255 
Q 223.900265 146.138288 196.416917 113.353841 
" clip-path="url(#p5edbd58cfe)" style="fill: none; stroke: #000000; stroke-width: 1.4; stroke-linecap: round"/>
    <path d="M 198.076166 120.314221 
L 196.416917 113.353841 
L 202.980771 116.202669 
" clip-path="url(#p5edbd58cfe)" style="fill: none; stroke: #000000; stroke-width: 1.4; stroke-linecap: round"/>
   </g>
   <g id="patch_4">
    <path d="M 364.626421 180.122255 
Q 393.11533 146.138288 420.598678 113.353841 
" clip-path="url(#p5edbd58cfe)" style="fill: none; stroke: #000000; stroke-width: 1.4; stroke-linecap: round"/>
    <path d="M 414.034824 116.202669 
L 420.598678 113.353841 
L 418.939428 120.314221 
" clip-path="url(#p5edbd58cfe)" style="fill: none; stroke: #000000; stroke-width: 1.4; stroke-linecap: round"/>
   </g>
   <g id="line2d_1">
    <path d="M 107.159933 107.997146 
L 107.159933 83.478921 
" clip-path="url(#p5edbd58cfe)" style="fill: none; stroke: #1f77b4; stroke-linecap: square"/>
   </g>
   <g id="line2d_2">
    <path d="M 149.999904 107.997146 
L 149.999904 83.478921 
" clip-path="url(#p5edbd58cfe)" style="fill: none; stroke: #1f77b4; stroke-linecap: square"/>
   </g>
   <g id="line2d_3">
    <path d="M 192.839875 107.997146 
L 192.839875 83.478921 
" clip-path="url(#p5edbd58cfe)" style="fill: none; stroke: #1f77b4; stroke-linecap: square"/>
   </g>
   <g id="line2d_4">
    <path d="M 235.679846 107.997146 
L 235.679846 83.478921 
" clip-path="url(#p5edbd58cfe)" style="fill: none; stroke: #1f77b4; stroke-linecap: square"/>
   </g>
   <g id="line2d_5">
    <path d="M 278.519818 107.997146 
L 278.519818 83.478921 
" clip-path="url(#p5edbd58cfe)" style="fill: none; stroke: #1f77b4; stroke-linecap: square"/>
   </g>
   <g id="line2d_6">
    <path d="M 321.359789 107.997146 
L 321.359789 83.478921 
" clip-path="url(#p5edbd58cfe)" style="fill: none; stroke: #1f77b4; stroke-linecap: square"/>
   </g>
   <g id="line2d_7">
    <path d="M 364.19976 107.997146 
L 364.19976 83.478921 
" clip-path="url(#p5edbd58cfe)" style="fill: none; stroke: #1f77b4; stroke-linecap: square"/>
   </g>
   <g id="line2d_8">
    <path d="M 407.039731 107.997146 
L 407.039731 83.478921 
" clip-path="url(#p5edbd58cfe)" style="fill: none; stroke: #1f77b4; stroke-linecap: square"/>
   </g>
   <g id="line2d_9">
    <path d="M 449.879702 107.997146 
L 449.879702 83.478921 
" clip-path="url(#p5edbd58cfe)" style="fill: none; stroke: #1f77b4; stroke-linecap: square"/>
   </g>
   <g id="line2d_10">
    <path d="M 492.719674 107.997146 
L 492.719674 83.478921 
" clip-path="url(#p5edbd58cfe)" style="fill: none; stroke: #1f77b4; stroke-linecap: square"/>
   </g>
   <g id="line2d_11">
    <path d="M 535.559645 107.997146 
L 535.559645 83.478921 
" clip-path="url(#p5edbd58cfe)" style="fill: none; stroke: #1f77b4; stroke-linecap: square"/>
   </g>
   <g id="line2d_12">
    <path d="M 578.399616 107.997146 
L 578.399616 83.478921 
" clip-path="url(#p5edbd58cfe)" style="fill: none; stroke: #1f77b4; stroke-linecap: square"/>
   </g>
   <g id="line2d_13">
    <path d="M 621.239587 107.997146 
L 621.239587 83.478921 
" clip-path="url(#p5edbd58cfe)" style="fill: none; stroke: #1f77b4; stroke-linecap: square"/>
   </g>
   <g id="line2d_14">
    <path d="M 192.839875 110.721393 
L 192.839875 80.754674 
" clip-path="url(#p5edbd58cfe)" style="fill: none; stroke: #1f77b4; stroke-width: 2.2; stroke-linecap: square"/>
   </g>
   <g id="line2d_15">
    <path d="M 424.17572 110.721393 
L 424.17572 80.754674 
" clip-path="url(#p5edbd58cfe)" style="fill: none; stroke: #1f77b4; stroke-width: 2.2; stroke-linecap: square"/>
   </g>
   <g id="text_1">
    <!-- $X \in \{A,a\}$ -->
    <g transform="translate(108.299902 49.768764) scale(0.18 -0.18)">
     <defs>
      <path id="DejaVuSans-Oblique-58" d="M 878 4666 
L 1516 4666 
L 2316 2981 
L 3763 4666 
L 4500 4666 
L 2578 2438 
L 3738 0 
L 3103 0 
L 2163 1966 
L 459 0 
L -275 0 
L 1906 2509 
L 878 4666 
z
" transform="scale(0.015625)"/>
      <path id="DejaVuSans-2208" d="M 1072 1959 
Q 1094 1728 1291 1353 
Q 1522 919 1959 675 
Q 2388 438 2850 434 
L 5028 434 
L 5028 -63 
L 2850 -63 
Q 2250 -63 1695 246 
Q 1141 556 844 1106 
Q 547 1656 547 2241 
Q 547 2819 844 3369 
Q 1141 3919 1695 4231 
Q 2250 4544 2850 4544 
L 5028 4544 
L 5028 4047 
L 2850 4047 
Q 2388 4044 1959 3803 
Q 1525 3556 1291 3125 
Q 1091 2750 1063 2459 
L 5028 2459 
L 5028 1959 
L 1072 1959 
z
" transform="scale(0.015625)"/>
      <path id="DejaVuSans-7b" d="M 3272 -594 
L 3272 -1044 
L 3078 -1044 
Q 2300 -1044 2036 -812 
Q 1772 -581 1772 109 
L 1772 856 
Q 1772 1328 1603 1509 
Q 1434 1691 991 1691 
L 800 1691 
L 800 2138 
L 991 2138 
Q 1438 2138 1605 2317 
Q 1772 2497 1772 2963 
L 1772 3713 
Q 1772 4403 2036 4633 
Q 2300 4863 3078 4863 
L 3272 4863 
L 3272 4416 
L 3059 4416 
Q 2619 4416 2484 4278 
Q 2350 4141 2350 3700 
L 2350 2925 
Q 2350 2434 2208 2212 
Q 2066 1991 1722 1913 
Q 2069 1828 2209 1606 
Q 2350 1384 2350 897 
L 2350 122 
Q 2350 -319 2484 -456 
Q 2619 -594 3059 -594 
L 3272 -594 
z
" transform="scale(0.015625)"/>
      <path id="DejaVuSans-Oblique-41" d="M 2356 4666 
L 3072 4666 
L 3938 0 
L 3278 0 
L 3084 1197 
L 984 1197 
L 325 0 
L -341 0 
L 2356 4666 
z
M 2584 4044 
L 1275 1722 
L 2988 1722 
L 2584 4044 
z
" transform="scale(0.015625)"/>
      <path id="DejaVuSans-2c" d="M 750 794 
L 1409 794 
L 1409 256 
L 897 -744 
L 494 -744 
L 750 256 
L 750 794 
z
" transform="scale(0.015625)"/>
      <path id="DejaVuSans-Oblique-61" d="M 3438 1997 
L 3047 0 
L 2472 0 
L 2578 531 
Q 2325 219 2001 64 
Q 1678 -91 1281 -91 
Q 834 -91 548 182 
Q 263 456 263 884 
Q 263 1497 752 1853 
Q 1241 2209 2100 2209 
L 2900 2209 
L 2931 2363 
Q 2938 2388 2941 2417 
Q 2944 2447 2944 2509 
Q 2944 2788 2717 2942 
Q 2491 3097 2081 3097 
Q 1800 3097 1504 3025 
Q 1209 2953 897 2809 
L 997 3341 
Q 1322 3463 1633 3523 
Q 1944 3584 2234 3584 
Q 2853 3584 3176 3315 
Q 3500 3047 3500 2534 
Q 3500 2431 3484 2292 
Q 3469 2153 3438 1997 
z
M 2816 1759 
L 2241 1759 
Q 1534 1759 1195 1570 
Q 856 1381 856 984 
Q 856 709 1029 553 
Q 1203 397 1509 397 
Q 1978 397 2328 733 
Q 2678 1069 2791 1631 
L 2816 1759 
z
" transform="scale(0.015625)"/>
      <path id="DejaVuSans-7d" d="M 800 -594 
L 1019 -594 
Q 1456 -594 1589 -459 
Q 1722 -325 1722 122 
L 1722 897 
Q 1722 1384 1862 1606 
Q 2003 1828 2350 1913 
Q 2003 1991 1862 2212 
Q 1722 2434 1722 2925 
L 1722 3700 
Q 1722 4144 1589 4280 
Q 1456 4416 1019 4416 
L 800 4416 
L 800 4863 
L 997 4863 
Q 1775 4863 2036 4633 
Q 2297 4403 2297 3713 
L 2297 2963 
Q 2297 2497 2465 2317 
Q 2634 2138 3078 2138 
L 3272 2138 
L 3272 1691 
L 3078 1691 
Q 2634 1691 2465 1509 
Q 2297 1328 2297 856 
L 2297 109 
Q 2297 -581 2036 -812 
Q 1775 -1044 997 -1044 
L 800 -1044 
L 800 -594 
z
" transform="scale(0.015625)"/>
     </defs>
     <use xlink:href="#DejaVuSans-Oblique-58" transform="translate(0 0.015625)"/>
     <use xlink:href="#DejaVuSans-2208" transform="translate(87.988281 0.015625)"/>
     <use xlink:href="#DejaVuSans-7b" transform="translate(194.580078 0.015625)"/>
     <use xlink:href="#DejaVuSans-Oblique-41" transform="translate(258.203125 0.015625)"/>
     <use xlink:href="#DejaVuSans-2c" transform="translate(326.611328 0.015625)"/>
     <use xlink:href="#DejaVuSans-Oblique-61" transform="translate(377.880859 0.015625)"/>
     <use xlink:href="#DejaVuSans-7d" transform="translate(439.160156 0.015625)"/>
    </g>
   </g>
   <g id="text_2">
    <!-- $Y \in \{B,b\}$ -->
    <g transform="translate(382.925717 49.768764) scale(0.18 -0.18)">
     <defs>
      <path id="DejaVuSans-Oblique-59" d="M 403 4666 
L 1081 4666 
L 1953 2747 
L 3616 4666 
L 4325 4666 
L 2209 2222 
L 1778 0 
L 1147 0 
L 1575 2222 
L 403 4666 
z
" transform="scale(0.015625)"/>
      <path id="DejaVuSans-Oblique-42" d="M 1081 4666 
L 2694 4666 
Q 3350 4666 3675 4422 
Q 4000 4178 4000 3688 
Q 4000 3238 3720 2911 
Q 3441 2584 2988 2516 
Q 3375 2428 3569 2181 
Q 3763 1934 3763 1522 
Q 3763 819 3242 409 
Q 2722 0 1819 0 
L 172 0 
L 1081 4666 
z
M 1234 2228 
L 903 519 
L 1919 519 
Q 2491 519 2800 781 
Q 3109 1044 3109 1522 
Q 3109 1891 2904 2059 
Q 2700 2228 2247 2228 
L 1234 2228 
z
M 1606 4147 
L 1331 2741 
L 2272 2741 
Q 2775 2741 3058 2959 
Q 3341 3178 3341 3566 
Q 3341 3869 3150 4008 
Q 2959 4147 2541 4147 
L 1606 4147 
z
" transform="scale(0.015625)"/>
      <path id="DejaVuSans-Oblique-62" d="M 3169 2138 
Q 3169 2591 2961 2847 
Q 2753 3103 2388 3103 
Q 2122 3103 1889 2973 
Q 1656 2844 1484 2597 
Q 1303 2338 1198 1995 
Q 1094 1653 1094 1313 
Q 1094 881 1298 636 
Q 1503 391 1863 391 
Q 2134 391 2365 517 
Q 2597 644 2772 891 
Q 2950 1147 3059 1487 
Q 3169 1828 3169 2138 
z
M 1381 2969 
Q 1594 3256 1914 3420 
Q 2234 3584 2584 3584 
Q 3122 3584 3439 3221 
Q 3756 2859 3756 2241 
Q 3756 1734 3570 1259 
Q 3384 784 3041 416 
Q 2816 172 2522 40 
Q 2228 -91 1906 -91 
Q 1566 -91 1316 65 
Q 1066 222 909 531 
L 806 0 
L 231 0 
L 1178 4863 
L 1753 4863 
L 1381 2969 
z
" transform="scale(0.015625)"/>
     </defs>
     <use xlink:href="#DejaVuSans-Oblique-59" transform="translate(0 0.015625)"/>
     <use xlink:href="#DejaVuSans-2208" transform="translate(80.566406 0.015625)"/>
     <use xlink:href="#DejaVuSans-7b" transform="translate(187.158203 0.015625)"/>
     <use xlink:href="#DejaVuSans-Oblique-42" transform="translate(250.78125 0.015625)"/>
     <use xlink:href="#DejaVuSans-2c" transform="translate(319.384766 0.015625)"/>
     <use xlink:href="#DejaVuSans-Oblique-62" transform="translate(370.654297 0.015625)"/>
     <use xlink:href="#DejaVuSans-7d" transform="translate(434.130859 0.015625)"/>
    </g>
   </g>
   <g id="text_3">
    <!-- $\rho = \mathrm{corr}(X,Y)$ -->
    <g transform="translate(250.547797 201.757603) scale(0.18 -0.18)">
     <defs>
      <path id="DejaVuSans-Oblique-3c1" d="M 1203 2875 
Q 1453 3194 1981 3475 
Q 2188 3584 2756 3584 
Q 3394 3584 3694 3078 
Q 3994 2572 3834 1747 
Q 3672 922 3175 415 
Q 2678 -91 2041 -91 
Q 1656 -91 1409 63 
Q 1163 213 1044 525 
L 681 -1331 
L 103 -1331 
L 697 1716 
Q 838 2438 1203 2875 
z
M 3238 1747 
Q 3359 2381 3169 2744 
Q 2978 3103 2522 3103 
Q 2066 3103 1734 2744 
Q 1403 2381 1281 1747 
Q 1156 1113 1347 750 
Q 1538 391 1994 391 
Q 2450 391 2781 750 
Q 3113 1113 3238 1747 
z
" transform="scale(0.015625)"/>
      <path id="DejaVuSans-3d" d="M 678 2906 
L 4684 2906 
L 4684 2381 
L 678 2381 
L 678 2906 
z
M 678 1631 
L 4684 1631 
L 4684 1100 
L 678 1100 
L 678 1631 
z
" transform="scale(0.015625)"/>
      <path id="DejaVuSans-63" d="M 3122 3366 
L 3122 2828 
Q 2878 2963 2633 3030 
Q 2388 3097 2138 3097 
Q 1578 3097 1268 2742 
Q 959 2388 959 1747 
Q 959 1106 1268 751 
Q 1578 397 2138 397 
Q 2388 397 2633 464 
Q 2878 531 3122 666 
L 3122 134 
Q 2881 22 2623 -34 
Q 2366 -91 2075 -91 
Q 1284 -91 818 406 
Q 353 903 353 1747 
Q 353 2603 823 3093 
Q 1294 3584 2113 3584 
Q 2378 3584 2631 3529 
Q 2884 3475 3122 3366 
z
" transform="scale(0.015625)"/>
      <path id="DejaVuSans-6f" d="M 1959 3097 
Q 1497 3097 1228 2736 
Q 959 2375 959 1747 
Q 959 1119 1226 758 
Q 1494 397 1959 397 
Q 2419 397 2687 759 
Q 2956 1122 2956 1747 
Q 2956 2369 2687 2733 
Q 2419 3097 1959 3097 
z
M 1959 3584 
Q 2709 3584 3137 3096 
Q 3566 2609 3566 1747 
Q 3566 888 3137 398 
Q 2709 -91 1959 -91 
Q 1206 -91 779 398 
Q 353 888 353 1747 
Q 353 2609 779 3096 
Q 1206 3584 1959 3584 
z
" transform="scale(0.015625)"/>
      <path id="DejaVuSans-72" d="M 2631 2963 
Q 2534 3019 2420 3045 
Q 2306 3072 2169 3072 
Q 1681 3072 1420 2755 
Q 1159 2438 1159 1844 
L 1159 0 
L 581 0 
L 581 3500 
L 1159 3500 
L 1159 2956 
Q 1341 3275 1631 3429 
Q 1922 3584 2338 3584 
Q 2397 3584 2469 3576 
Q 2541 3569 2628 3553 
L 2631 2963 
z
" transform="scale(0.015625)"/>
      <path id="DejaVuSans-28" d="M 1984 4856 
Q 1566 4138 1362 3434 
Q 1159 2731 1159 2009 
Q 1159 1288 1364 580 
Q 1569 -128 1984 -844 
L 1484 -844 
Q 1016 -109 783 600 
Q 550 1309 550 2009 
Q 550 2706 781 3412 
Q 1013 4119 1484 4856 
L 1984 4856 
z
" transform="scale(0.015625)"/>
      <path id="DejaVuSans-29" d="M 513 4856 
L 1013 4856 
Q 1481 4119 1714 3412 
Q 1947 2706 1947 2009 
Q 1947 1309 1714 600 
Q 1481 -109 1013 -844 
L 513 -844 
Q 928 -128 1133 580 
Q 1338 1288 1338 2009 
Q 1338 2731 1133 3434 
Q 928 4138 513 4856 
z
" transform="scale(0.015625)"/>
     </defs>
     <use xlink:href="#DejaVuSans-Oblique-3c1" transform="translate(0 0.125)"/>
     <use xlink:href="#DejaVuSans-3d" transform="translate(82.958984 0.125)"/>
     <use xlink:href="#DejaVuSans-63" transform="translate(186.230469 0.125)"/>
     <use xlink:href="#DejaVuSans-6f" transform="translate(241.210938 0.125)"/>
     <use xlink:href="#DejaVuSans-72" transform="translate(302.392578 0.125)"/>
     <use xlink:href="#DejaVuSans-72" transform="translate(343.505859 0.125)"/>
     <use xlink:href="#DejaVuSans-28" transform="translate(384.619141 0.125)"/>
     <use xlink:href="#DejaVuSans-Oblique-58" transform="translate(423.632812 0.125)"/>
     <use xlink:href="#DejaVuSans-2c" transform="translate(492.138672 0.125)"/>
     <use xlink:href="#DejaVuSans-Oblique-59" transform="translate(543.408203 0.125)"/>
     <use xlink:href="#DejaVuSans-29" transform="translate(604.492188 0.125)"/>
    </g>
   </g>
   <g id="text_4">
    <!-- A. Linkage as correlation between allelic states -->
    <g transform="translate(14.339995 32.978736) scale(0.16 -0.16)">
     <defs>
      <path id="DejaVuSans-Bold-41" d="M 3419 850 
L 1538 850 
L 1241 0 
L 31 0 
L 1759 4666 
L 3194 4666 
L 4922 0 
L 3713 0 
L 3419 850 
z
M 1838 1716 
L 3116 1716 
L 2478 3572 
L 1838 1716 
z
" transform="scale(0.015625)"/>
      <path id="DejaVuSans-Bold-2e" d="M 653 1209 
L 1778 1209 
L 1778 0 
L 653 0 
L 653 1209 
z
" transform="scale(0.015625)"/>
      <path id="DejaVuSans-Bold-20" transform="scale(0.015625)"/>
      <path id="DejaVuSans-Bold-4c" d="M 588 4666 
L 1791 4666 
L 1791 909 
L 3903 909 
L 3903 0 
L 588 0 
L 588 4666 
z
" transform="scale(0.015625)"/>
      <path id="DejaVuSans-Bold-69" d="M 538 3500 
L 1656 3500 
L 1656 0 
L 538 0 
L 538 3500 
z
M 538 4863 
L 1656 4863 
L 1656 3950 
L 538 3950 
L 538 4863 
z
" transform="scale(0.015625)"/>
      <path id="DejaVuSans-Bold-6e" d="M 4056 2131 
L 4056 0 
L 2931 0 
L 2931 347 
L 2931 1631 
Q 2931 2084 2911 2256 
Q 2891 2428 2841 2509 
Q 2775 2619 2662 2680 
Q 2550 2741 2406 2741 
Q 2056 2741 1856 2470 
Q 1656 2200 1656 1722 
L 1656 0 
L 538 0 
L 538 3500 
L 1656 3500 
L 1656 2988 
Q 1909 3294 2193 3439 
Q 2478 3584 2822 3584 
Q 3428 3584 3742 3212 
Q 4056 2841 4056 2131 
z
" transform="scale(0.015625)"/>
      <path id="DejaVuSans-Bold-6b" d="M 538 4863 
L 1656 4863 
L 1656 2216 
L 2944 3500 
L 4244 3500 
L 2534 1894 
L 4378 0 
L 3022 0 
L 1656 1459 
L 1656 0 
L 538 0 
L 538 4863 
z
" transform="scale(0.015625)"/>
      <path id="DejaVuSans-Bold-61" d="M 2106 1575 
Q 1756 1575 1579 1456 
Q 1403 1338 1403 1106 
Q 1403 894 1545 773 
Q 1688 653 1941 653 
Q 2256 653 2472 879 
Q 2688 1106 2688 1447 
L 2688 1575 
L 2106 1575 
z
M 3816 1997 
L 3816 0 
L 2688 0 
L 2688 519 
Q 2463 200 2181 54 
Q 1900 -91 1497 -91 
Q 953 -91 614 226 
Q 275 544 275 1050 
Q 275 1666 698 1953 
Q 1122 2241 2028 2241 
L 2688 2241 
L 2688 2328 
Q 2688 2594 2478 2717 
Q 2269 2841 1825 2841 
Q 1466 2841 1156 2769 
Q 847 2697 581 2553 
L 581 3406 
Q 941 3494 1303 3539 
Q 1666 3584 2028 3584 
Q 2975 3584 3395 3211 
Q 3816 2838 3816 1997 
z
" transform="scale(0.015625)"/>
      <path id="DejaVuSans-Bold-67" d="M 2919 594 
Q 2688 288 2409 144 
Q 2131 0 1766 0 
Q 1125 0 706 504 
Q 288 1009 288 1791 
Q 288 2575 706 3076 
Q 1125 3578 1766 3578 
Q 2131 3578 2409 3434 
Q 2688 3291 2919 2981 
L 2919 3500 
L 4044 3500 
L 4044 353 
Q 4044 -491 3511 -936 
Q 2978 -1381 1966 -1381 
Q 1638 -1381 1331 -1331 
Q 1025 -1281 716 -1178 
L 716 -306 
Q 1009 -475 1290 -558 
Q 1572 -641 1856 -641 
Q 2406 -641 2662 -400 
Q 2919 -159 2919 353 
L 2919 594 
z
M 2181 2772 
Q 1834 2772 1640 2515 
Q 1447 2259 1447 1791 
Q 1447 1309 1634 1061 
Q 1822 813 2181 813 
Q 2531 813 2725 1069 
Q 2919 1325 2919 1791 
Q 2919 2259 2725 2515 
Q 2531 2772 2181 2772 
z
" transform="scale(0.015625)"/>
      <path id="DejaVuSans-Bold-65" d="M 4031 1759 
L 4031 1441 
L 1416 1441 
Q 1456 1047 1700 850 
Q 1944 653 2381 653 
Q 2734 653 3104 758 
Q 3475 863 3866 1075 
L 3866 213 
Q 3469 63 3072 -14 
Q 2675 -91 2278 -91 
Q 1328 -91 801 392 
Q 275 875 275 1747 
Q 275 2603 792 3093 
Q 1309 3584 2216 3584 
Q 3041 3584 3536 3087 
Q 4031 2591 4031 1759 
z
M 2881 2131 
Q 2881 2450 2695 2645 
Q 2509 2841 2209 2841 
Q 1884 2841 1681 2658 
Q 1478 2475 1428 2131 
L 2881 2131 
z
" transform="scale(0.015625)"/>
      <path id="DejaVuSans-Bold-73" d="M 3272 3391 
L 3272 2541 
Q 2913 2691 2578 2766 
Q 2244 2841 1947 2841 
Q 1628 2841 1473 2761 
Q 1319 2681 1319 2516 
Q 1319 2381 1436 2309 
Q 1553 2238 1856 2203 
L 2053 2175 
Q 2913 2066 3209 1816 
Q 3506 1566 3506 1031 
Q 3506 472 3093 190 
Q 2681 -91 1863 -91 
Q 1516 -91 1145 -36 
Q 775 19 384 128 
L 384 978 
Q 719 816 1070 734 
Q 1422 653 1784 653 
Q 2113 653 2278 743 
Q 2444 834 2444 1013 
Q 2444 1163 2330 1236 
Q 2216 1309 1875 1350 
L 1678 1375 
Q 931 1469 631 1722 
Q 331 1975 331 2491 
Q 331 3047 712 3315 
Q 1094 3584 1881 3584 
Q 2191 3584 2531 3537 
Q 2872 3491 3272 3391 
z
" transform="scale(0.015625)"/>
      <path id="DejaVuSans-Bold-63" d="M 3366 3391 
L 3366 2478 
Q 3138 2634 2908 2709 
Q 2678 2784 2431 2784 
Q 1963 2784 1702 2511 
Q 1441 2238 1441 1747 
Q 1441 1256 1702 982 
Q 1963 709 2431 709 
Q 2694 709 2930 787 
Q 3166 866 3366 1019 
L 3366 103 
Q 3103 6 2833 -42 
Q 2563 -91 2291 -91 
Q 1344 -91 809 395 
Q 275 881 275 1747 
Q 275 2613 809 3098 
Q 1344 3584 2291 3584 
Q 2566 3584 2833 3536 
Q 3100 3488 3366 3391 
z
" transform="scale(0.015625)"/>
      <path id="DejaVuSans-Bold-6f" d="M 2203 2784 
Q 1831 2784 1636 2517 
Q 1441 2250 1441 1747 
Q 1441 1244 1636 976 
Q 1831 709 2203 709 
Q 2569 709 2762 976 
Q 2956 1244 2956 1747 
Q 2956 2250 2762 2517 
Q 2569 2784 2203 2784 
z
M 2203 3584 
Q 3106 3584 3614 3096 
Q 4122 2609 4122 1747 
Q 4122 884 3614 396 
Q 3106 -91 2203 -91 
Q 1297 -91 786 396 
Q 275 884 275 1747 
Q 275 2609 786 3096 
Q 1297 3584 2203 3584 
z
" transform="scale(0.015625)"/>
      <path id="DejaVuSans-Bold-72" d="M 3138 2547 
Q 2991 2616 2845 2648 
Q 2700 2681 2553 2681 
Q 2122 2681 1889 2404 
Q 1656 2128 1656 1613 
L 1656 0 
L 538 0 
L 538 3500 
L 1656 3500 
L 1656 2925 
Q 1872 3269 2151 3426 
Q 2431 3584 2822 3584 
Q 2878 3584 2943 3579 
Q 3009 3575 3134 3559 
L 3138 2547 
z
" transform="scale(0.015625)"/>
      <path id="DejaVuSans-Bold-6c" d="M 538 4863 
L 1656 4863 
L 1656 0 
L 538 0 
L 538 4863 
z
" transform="scale(0.015625)"/>
      <path id="DejaVuSans-Bold-74" d="M 1759 4494 
L 1759 3500 
L 2913 3500 
L 2913 2700 
L 1759 2700 
L 1759 1216 
Q 1759 972 1856 886 
Q 1953 800 2241 800 
L 2816 800 
L 2816 0 
L 1856 0 
Q 1194 0 917 276 
Q 641 553 641 1216 
L 641 2700 
L 84 2700 
L 84 3500 
L 641 3500 
L 641 4494 
L 1759 4494 
z
" transform="scale(0.015625)"/>
      <path id="DejaVuSans-Bold-62" d="M 2400 722 
Q 2759 722 2948 984 
Q 3138 1247 3138 1747 
Q 3138 2247 2948 2509 
Q 2759 2772 2400 2772 
Q 2041 2772 1848 2508 
Q 1656 2244 1656 1747 
Q 1656 1250 1848 986 
Q 2041 722 2400 722 
z
M 1656 2988 
Q 1888 3294 2169 3439 
Q 2450 3584 2816 3584 
Q 3463 3584 3878 3070 
Q 4294 2556 4294 1747 
Q 4294 938 3878 423 
Q 3463 -91 2816 -91 
Q 2450 -91 2169 54 
Q 1888 200 1656 506 
L 1656 0 
L 538 0 
L 538 4863 
L 1656 4863 
L 1656 2988 
z
" transform="scale(0.015625)"/>
      <path id="DejaVuSans-Bold-77" d="M 225 3500 
L 1313 3500 
L 1900 1088 
L 2491 3500 
L 3425 3500 
L 4013 1113 
L 4603 3500 
L 5691 3500 
L 4769 0 
L 3547 0 
L 2956 2406 
L 2369 0 
L 1147 0 
L 225 3500 
z
" transform="scale(0.015625)"/>
     </defs>
     <use xlink:href="#DejaVuSans-Bold-41"/>
     <use xlink:href="#DejaVuSans-Bold-2e" transform="translate(79.267578 0)"/>
     <use xlink:href="#DejaVuSans-Bold-20" transform="translate(117.255859 0)"/>
     <use xlink:href="#DejaVuSans-Bold-4c" transform="translate(152.070312 0)"/>
     <use xlink:href="#DejaVuSans-Bold-69" transform="translate(215.791016 0)"/>
     <use xlink:href="#DejaVuSans-Bold-6e" transform="translate(250.068359 0)"/>
     <use xlink:href="#DejaVuSans-Bold-6b" transform="translate(321.259766 0)"/>
     <use xlink:href="#DejaVuSans-Bold-61" transform="translate(387.763672 0)"/>
     <use xlink:href="#DejaVuSans-Bold-67" transform="translate(455.244141 0)"/>
     <use xlink:href="#DejaVuSans-Bold-65" transform="translate(526.826172 0)"/>
     <use xlink:href="#DejaVuSans-Bold-20" transform="translate(594.648438 0)"/>
     <use xlink:href="#DejaVuSans-Bold-61" transform="translate(629.462891 0)"/>
     <use xlink:href="#DejaVuSans-Bold-73" transform="translate(696.943359 0)"/>
     <use xlink:href="#DejaVuSans-Bold-20" transform="translate(756.464844 0)"/>
     <use xlink:href="#DejaVuSans-Bold-63" transform="translate(791.279297 0)"/>
     <use xlink:href="#DejaVuSans-Bold-6f" transform="translate(850.556641 0)"/>
     <use xlink:href="#DejaVuSans-Bold-72" transform="translate(919.257812 0)"/>
     <use xlink:href="#DejaVuSans-Bold-72" transform="translate(968.574219 0)"/>
     <use xlink:href="#DejaVuSans-Bold-65" transform="translate(1017.890625 0)"/>
     <use xlink:href="#DejaVuSans-Bold-6c" transform="translate(1085.712891 0)"/>
     <use xlink:href="#DejaVuSans-Bold-61" transform="translate(1119.990234 0)"/>
     <use xlink:href="#DejaVuSans-Bold-74" transform="translate(1187.470703 0)"/>
     <use xlink:href="#DejaVuSans-Bold-69" transform="translate(1235.273438 0)"/>
     <use xlink:href="#DejaVuSans-Bold-6f" transform="translate(1269.550781 0)"/>
     <use xlink:href="#DejaVuSans-Bold-6e" transform="translate(1338.251953 0)"/>
     <use xlink:href="#DejaVuSans-Bold-20" transform="translate(1409.443359 0)"/>
     <use xlink:href="#DejaVuSans-Bold-62" transform="translate(1444.257812 0)"/>
     <use xlink:href="#DejaVuSans-Bold-65" transform="translate(1515.839844 0)"/>
     <use xlink:href="#DejaVuSans-Bold-74" transform="translate(1583.662109 0)"/>
     <use xlink:href="#DejaVuSans-Bold-77" transform="translate(1631.464844 0)"/>
     <use xlink:href="#DejaVuSans-Bold-65" transform="translate(1723.847656 0)"/>
     <use xlink:href="#DejaVuSans-Bold-65" transform="translate(1791.669922 0)"/>
     <use xlink:href="#DejaVuSans-Bold-6e" transform="translate(1859.492188 0)"/>
     <use xlink:href="#DejaVuSans-Bold-20" transform="translate(1930.683594 0)"/>
     <use xlink:href="#DejaVuSans-Bold-61" transform="translate(1965.498047 0)"/>
     <use xlink:href="#DejaVuSans-Bold-6c" transform="translate(2032.978516 0)"/>
     <use xlink:href="#DejaVuSans-Bold-6c" transform="translate(2067.255859 0)"/>
     <use xlink:href="#DejaVuSans-Bold-65" transform="translate(2101.533203 0)"/>
     <use xlink:href="#DejaVuSans-Bold-6c" transform="translate(2169.355469 0)"/>
     <use xlink:href="#DejaVuSans-Bold-69" transform="translate(2203.632812 0)"/>
     <use xlink:href="#DejaVuSans-Bold-63" transform="translate(2237.910156 0)"/>
     <use xlink:href="#DejaVuSans-Bold-20" transform="translate(2297.1875 0)"/>
     <use xlink:href="#DejaVuSans-Bold-73" transform="translate(2332.001953 0)"/>
     <use xlink:href="#DejaVuSans-Bold-74" transform="translate(2391.523438 0)"/>
     <use xlink:href="#DejaVuSans-Bold-61" transform="translate(2439.326172 0)"/>
     <use xlink:href="#DejaVuSans-Bold-74" transform="translate(2506.806641 0)"/>
     <use xlink:href="#DejaVuSans-Bold-65" transform="translate(2554.609375 0)"/>
     <use xlink:href="#DejaVuSans-Bold-73" transform="translate(2622.431641 0)"/>
    </g>
   </g>
  </g>
  <g id="axes_2">
   <g id="patch_5">
    <path d="M 228.374069 505.19952 
L 500.025451 505.19952 
L 500.025451 242.037243 
L 228.374069 242.037243 
z
" style="fill: #ffffff"/>
   </g>
   <g id="patch_6">
    <path d="M 395.963085 409.626259 
C 416.841127 388.748218 433.520085 365.375691 442.326611 344.656208 
C 451.133138 323.936725 451.34822 307.561939 442.924488 299.138206 
C 434.500755 290.714474 418.125969 290.929556 397.406486 299.736083 
C 376.687003 308.54261 353.314477 325.221567 332.436435 346.099609 
C 311.558393 366.977651 294.879435 390.350177 286.072909 411.069661 
C 277.266382 431.789144 277.0513 448.16393 285.475032 456.587662 
C 293.898765 465.011394 310.273551 464.796312 330.993034 455.989786 
C 351.712517 447.183259 375.085043 430.504301 395.963085 409.626259 
L 395.963085 409.626259 
z
" clip-path="url(#paec597667f)" style="fill: none; stroke: #000000; stroke-width: 2; stroke-linejoin: miter"/>
   </g>
   <g id="PathCollection_1">
    <defs>
     <path id="m17dae0bb5a" d="M 0 1.414214 
C 0.375054 1.414214 0.734797 1.265203 1 1 
C 1.265203 0.734797 1.414214 0.375054 1.414214 0 
C 1.414214 -0.375054 1.265203 -0.734797 1 -1 
C 0.734797 -1.265203 0.375054 -1.414214 0 -1.414214 
C -0.375054 -1.414214 -0.734797 -1.265203 -1 -1 
C -1.265203 -0.734797 -1.414214 -0.375054 -1.414214 0 
C -1.414214 0.375054 -1.265203 0.734797 -1 1 
C -0.734797 1.265203 -0.375054 1.414214 0 1.414214 
z
" style="stroke: #1f77b4; stroke-opacity: 0.25"/>
    </defs>
    <g clip-path="url(#paec597667f)">
     <use xlink:href="#m17dae0bb5a" x="392.630602" y="354.981695" style="fill: #1f77b4; fill-opacity: 0.25; stroke: #1f77b4; stroke-opacity: 0.25"/>
     <use xlink:href="#m17dae0bb5a" x="288.243289" y="432.882681" style="fill: #1f77b4; fill-opacity: 0.25; stroke: #1f77b4; stroke-opacity: 0.25"/>
     <use xlink:href="#m17dae0bb5a" x="428.891674" y="313.336293" style="fill: #1f77b4; fill-opacity: 0.25; stroke: #1f77b4; stroke-opacity: 0.25"/>
     <use xlink:href="#m17dae0bb5a" x="386.380251" y="350.961412" style="fill: #1f77b4; fill-opacity: 0.25; stroke: #1f77b4; stroke-opacity: 0.25"/>
     <use xlink:href="#m17dae0bb5a" x="423.662093" y="310.721122" style="fill: #1f77b4; fill-opacity: 0.25; stroke: #1f77b4; stroke-opacity: 0.25"/>
     <use xlink:href="#m17dae0bb5a" x="329.91105" y="362.104523" style="fill: #1f77b4; fill-opacity: 0.25; stroke: #1f77b4; stroke-opacity: 0.25"/>
     <use xlink:href="#m17dae0bb5a" x="343.627534" y="382.218501" style="fill: #1f77b4; fill-opacity: 0.25; stroke: #1f77b4; stroke-opacity: 0.25"/>
     <use xlink:href="#m17dae0bb5a" x="387.195278" y="283.313248" style="fill: #1f77b4; fill-opacity: 0.25; stroke: #1f77b4; stroke-opacity: 0.25"/>
     <use xlink:href="#m17dae0bb5a" x="422.105652" y="284.960151" style="fill: #1f77b4; fill-opacity: 0.25; stroke: #1f77b4; stroke-opacity: 0.25"/>
     <use xlink:href="#m17dae0bb5a" x="391.171695" y="378.863261" style="fill: #1f77b4; fill-opacity: 0.25; stroke: #1f77b4; stroke-opacity: 0.25"/>
     <use xlink:href="#m17dae0bb5a" x="400.7054" y="362.702715" style="fill: #1f77b4; fill-opacity: 0.25; stroke: #1f77b4; stroke-opacity: 0.25"/>
     <use xlink:href="#m17dae0bb5a" x="350.982534" y="394.575991" style="fill: #1f77b4; fill-opacity: 0.25; stroke: #1f77b4; stroke-opacity: 0.25"/>
     <use xlink:href="#m17dae0bb5a" x="334.899408" y="465.277594" style="fill: #1f77b4; fill-opacity: 0.25; stroke: #1f77b4; stroke-opacity: 0.25"/>
     <use xlink:href="#m17dae0bb5a" x="378.488363" y="391.908989" style="fill: #1f77b4; fill-opacity: 0.25; stroke: #1f77b4; stroke-opacity: 0.25"/>
     <use xlink:href="#m17dae0bb5a" x="367.297925" y="442.041399" style="fill: #1f77b4; fill-opacity: 0.25; stroke: #1f77b4; stroke-opacity: 0.25"/>
     <use xlink:href="#m17dae0bb5a" x="374.390487" y="360.996417" style="fill: #1f77b4; fill-opacity: 0.25; stroke: #1f77b4; stroke-opacity: 0.25"/>
     <use xlink:href="#m17dae0bb5a" x="406.977219" y="303.791753" style="fill: #1f77b4; fill-opacity: 0.25; stroke: #1f77b4; stroke-opacity: 0.25"/>
     <use xlink:href="#m17dae0bb5a" x="341.174617" y="368.906958" style="fill: #1f77b4; fill-opacity: 0.25; stroke: #1f77b4; stroke-opacity: 0.25"/>
     <use xlink:href="#m17dae0bb5a" x="342.005696" y="431.180437" style="fill: #1f77b4; fill-opacity: 0.25; stroke: #1f77b4; stroke-opacity: 0.25"/>
     <use xlink:href="#m17dae0bb5a" x="398.832145" y="349.689065" style="fill: #1f77b4; fill-opacity: 0.25; stroke: #1f77b4; stroke-opacity: 0.25"/>
     <use xlink:href="#m17dae0bb5a" x="321.243522" y="393.789622" style="fill: #1f77b4; fill-opacity: 0.25; stroke: #1f77b4; stroke-opacity: 0.25"/>
     <use xlink:href="#m17dae0bb5a" x="401.777935" y="359.571361" style="fill: #1f77b4; fill-opacity: 0.25; stroke: #1f77b4; stroke-opacity: 0.25"/>
     <use xlink:href="#m17dae0bb5a" x="404.88263" y="355.737413" style="fill: #1f77b4; fill-opacity: 0.25; stroke: #1f77b4; stroke-opacity: 0.25"/>
     <use xlink:href="#m17dae0bb5a" x="375.658429" y="370.59115" style="fill: #1f77b4; fill-opacity: 0.25; stroke: #1f77b4; stroke-opacity: 0.25"/>
     <use xlink:href="#m17dae0bb5a" x="291.230041" y="466.917717" style="fill: #1f77b4; fill-opacity: 0.25; stroke: #1f77b4; stroke-opacity: 0.25"/>
     <use xlink:href="#m17dae0bb5a" x="368.281657" y="359.215084" style="fill: #1f77b4; fill-opacity: 0.25; stroke: #1f77b4; stroke-opacity: 0.25"/>
     <use xlink:href="#m17dae0bb5a" x="407.56942" y="346.202098" style="fill: #1f77b4; fill-opacity: 0.25; stroke: #1f77b4; stroke-opacity: 0.25"/>
     <use xlink:href="#m17dae0bb5a" x="351.380788" y="366.092456" style="fill: #1f77b4; fill-opacity: 0.25; stroke: #1f77b4; stroke-opacity: 0.25"/>
     <use xlink:href="#m17dae0bb5a" x="394.220001" y="304.280263" style="fill: #1f77b4; fill-opacity: 0.25; stroke: #1f77b4; stroke-opacity: 0.25"/>
     <use xlink:href="#m17dae0bb5a" x="375.382701" y="361.298765" style="fill: #1f77b4; fill-opacity: 0.25; stroke: #1f77b4; stroke-opacity: 0.25"/>
     <use xlink:href="#m17dae0bb5a" x="320.361872" y="400.711842" style="fill: #1f77b4; fill-opacity: 0.25; stroke: #1f77b4; stroke-opacity: 0.25"/>
     <use xlink:href="#m17dae0bb5a" x="319.75522" y="416.806136" style="fill: #1f77b4; fill-opacity: 0.25; stroke: #1f77b4; stroke-opacity: 0.25"/>
     <use xlink:href="#m17dae0bb5a" x="359.945583" y="372.064701" style="fill: #1f77b4; fill-opacity: 0.25; stroke: #1f77b4; stroke-opacity: 0.25"/>
     <use xlink:href="#m17dae0bb5a" x="384.110157" y="319.385909" style="fill: #1f77b4; fill-opacity: 0.25; stroke: #1f77b4; stroke-opacity: 0.25"/>
     <use xlink:href="#m17dae0bb5a" x="414.735564" y="367.356667" style="fill: #1f77b4; fill-opacity: 0.25; stroke: #1f77b4; stroke-opacity: 0.25"/>
     <use xlink:href="#m17dae0bb5a" x="285.421622" y="460.975017" style="fill: #1f77b4; fill-opacity: 0.25; stroke: #1f77b4; stroke-opacity: 0.25"/>
     <use xlink:href="#m17dae0bb5a" x="381.19578" y="302.032669" style="fill: #1f77b4; fill-opacity: 0.25; stroke: #1f77b4; stroke-opacity: 0.25"/>
     <use xlink:href="#m17dae0bb5a" x="360.310499" y="348.017137" style="fill: #1f77b4; fill-opacity: 0.25; stroke: #1f77b4; stroke-opacity: 0.25"/>
     <use xlink:href="#m17dae0bb5a" x="400.801437" y="349.163338" style="fill: #1f77b4; fill-opacity: 0.25; stroke: #1f77b4; stroke-opacity: 0.25"/>
     <use xlink:href="#m17dae0bb5a" x="460.981398" y="341.715558" style="fill: #1f77b4; fill-opacity: 0.25; stroke: #1f77b4; stroke-opacity: 0.25"/>
     <use xlink:href="#m17dae0bb5a" x="403.873923" y="340.66755" style="fill: #1f77b4; fill-opacity: 0.25; stroke: #1f77b4; stroke-opacity: 0.25"/>
     <use xlink:href="#m17dae0bb5a" x="294.256741" y="370.741123" style="fill: #1f77b4; fill-opacity: 0.25; stroke: #1f77b4; stroke-opacity: 0.25"/>
     <use xlink:href="#m17dae0bb5a" x="388.791089" y="321.22113" style="fill: #1f77b4; fill-opacity: 0.25; stroke: #1f77b4; stroke-opacity: 0.25"/>
     <use xlink:href="#m17dae0bb5a" x="390.410468" y="356.497065" style="fill: #1f77b4; fill-opacity: 0.25; stroke: #1f77b4; stroke-opacity: 0.25"/>
     <use xlink:href="#m17dae0bb5a" x="445.991716" y="343.048483" style="fill: #1f77b4; fill-opacity: 0.25; stroke: #1f77b4; stroke-opacity: 0.25"/>
     <use xlink:href="#m17dae0bb5a" x="413.79039" y="366.169465" style="fill: #1f77b4; fill-opacity: 0.25; stroke: #1f77b4; stroke-opacity: 0.25"/>
     <use xlink:href="#m17dae0bb5a" x="375.496767" y="388.880123" style="fill: #1f77b4; fill-opacity: 0.25; stroke: #1f77b4; stroke-opacity: 0.25"/>
     <use xlink:href="#m17dae0bb5a" x="312.539159" y="424.66312" style="fill: #1f77b4; fill-opacity: 0.25; stroke: #1f77b4; stroke-opacity: 0.25"/>
     <use xlink:href="#m17dae0bb5a" x="339.631232" y="366.302738" style="fill: #1f77b4; fill-opacity: 0.25; stroke: #1f77b4; stroke-opacity: 0.25"/>
     <use xlink:href="#m17dae0bb5a" x="344.398546" y="398.849968" style="fill: #1f77b4; fill-opacity: 0.25; stroke: #1f77b4; stroke-opacity: 0.25"/>
     <use xlink:href="#m17dae0bb5a" x="369.691711" y="376.212714" style="fill: #1f77b4; fill-opacity: 0.25; stroke: #1f77b4; stroke-opacity: 0.25"/>
     <use xlink:href="#m17dae0bb5a" x="309.380737" y="407.808554" style="fill: #1f77b4; fill-opacity: 0.25; stroke: #1f77b4; stroke-opacity: 0.25"/>
     <use xlink:href="#m17dae0bb5a" x="337.109626" y="379.579592" style="fill: #1f77b4; fill-opacity: 0.25; stroke: #1f77b4; stroke-opacity: 0.25"/>
     <use xlink:href="#m17dae0bb5a" x="377.517986" y="348.312925" style="fill: #1f77b4; fill-opacity: 0.25; stroke: #1f77b4; stroke-opacity: 0.25"/>
     <use xlink:href="#m17dae0bb5a" x="398.395655" y="300.873246" style="fill: #1f77b4; fill-opacity: 0.25; stroke: #1f77b4; stroke-opacity: 0.25"/>
     <use xlink:href="#m17dae0bb5a" x="357.742662" y="378.494861" style="fill: #1f77b4; fill-opacity: 0.25; stroke: #1f77b4; stroke-opacity: 0.25"/>
     <use xlink:href="#m17dae0bb5a" x="340.760799" y="401.610303" style="fill: #1f77b4; fill-opacity: 0.25; stroke: #1f77b4; stroke-opacity: 0.25"/>
     <use xlink:href="#m17dae0bb5a" x="355.306289" y="348.964889" style="fill: #1f77b4; fill-opacity: 0.25; stroke: #1f77b4; stroke-opacity: 0.25"/>
     <use xlink:href="#m17dae0bb5a" x="374.189105" y="396.964719" style="fill: #1f77b4; fill-opacity: 0.25; stroke: #1f77b4; stroke-opacity: 0.25"/>
     <use xlink:href="#m17dae0bb5a" x="373.977829" y="422.24516" style="fill: #1f77b4; fill-opacity: 0.25; stroke: #1f77b4; stroke-opacity: 0.25"/>
     <use xlink:href="#m17dae0bb5a" x="301.751543" y="445.746845" style="fill: #1f77b4; fill-opacity: 0.25; stroke: #1f77b4; stroke-opacity: 0.25"/>
     <use xlink:href="#m17dae0bb5a" x="326.536515" y="343.811883" style="fill: #1f77b4; fill-opacity: 0.25; stroke: #1f77b4; stroke-opacity: 0.25"/>
     <use xlink:href="#m17dae0bb5a" x="277.662942" y="460.721347" style="fill: #1f77b4; fill-opacity: 0.25; stroke: #1f77b4; stroke-opacity: 0.25"/>
     <use xlink:href="#m17dae0bb5a" x="322.289675" y="385.145282" style="fill: #1f77b4; fill-opacity: 0.25; stroke: #1f77b4; stroke-opacity: 0.25"/>
     <use xlink:href="#m17dae0bb5a" x="300.07341" y="446.15323" style="fill: #1f77b4; fill-opacity: 0.25; stroke: #1f77b4; stroke-opacity: 0.25"/>
     <use xlink:href="#m17dae0bb5a" x="339.426371" y="363.737869" style="fill: #1f77b4; fill-opacity: 0.25; stroke: #1f77b4; stroke-opacity: 0.25"/>
     <use xlink:href="#m17dae0bb5a" x="341.606911" y="376.490359" style="fill: #1f77b4; fill-opacity: 0.25; stroke: #1f77b4; stroke-opacity: 0.25"/>
     <use xlink:href="#m17dae0bb5a" x="358.218536" y="419.892735" style="fill: #1f77b4; fill-opacity: 0.25; stroke: #1f77b4; stroke-opacity: 0.25"/>
     <use xlink:href="#m17dae0bb5a" x="439.958561" y="386.001838" style="fill: #1f77b4; fill-opacity: 0.25; stroke: #1f77b4; stroke-opacity: 0.25"/>
     <use xlink:href="#m17dae0bb5a" x="353.175762" y="346.361004" style="fill: #1f77b4; fill-opacity: 0.25; stroke: #1f77b4; stroke-opacity: 0.25"/>
     <use xlink:href="#m17dae0bb5a" x="388.265907" y="314.607083" style="fill: #1f77b4; fill-opacity: 0.25; stroke: #1f77b4; stroke-opacity: 0.25"/>
     <use xlink:href="#m17dae0bb5a" x="325.726245" y="418.07842" style="fill: #1f77b4; fill-opacity: 0.25; stroke: #1f77b4; stroke-opacity: 0.25"/>
     <use xlink:href="#m17dae0bb5a" x="363.183844" y="376.247794" style="fill: #1f77b4; fill-opacity: 0.25; stroke: #1f77b4; stroke-opacity: 0.25"/>
     <use xlink:href="#m17dae0bb5a" x="402.578053" y="348.452394" style="fill: #1f77b4; fill-opacity: 0.25; stroke: #1f77b4; stroke-opacity: 0.25"/>
     <use xlink:href="#m17dae0bb5a" x="356.314049" y="366.311461" style="fill: #1f77b4; fill-opacity: 0.25; stroke: #1f77b4; stroke-opacity: 0.25"/>
     <use xlink:href="#m17dae0bb5a" x="344.82805" y="420.826475" style="fill: #1f77b4; fill-opacity: 0.25; stroke: #1f77b4; stroke-opacity: 0.25"/>
     <use xlink:href="#m17dae0bb5a" x="344.051616" y="422.718833" style="fill: #1f77b4; fill-opacity: 0.25; stroke: #1f77b4; stroke-opacity: 0.25"/>
     <use xlink:href="#m17dae0bb5a" x="364.980355" y="365.345621" style="fill: #1f77b4; fill-opacity: 0.25; stroke: #1f77b4; stroke-opacity: 0.25"/>
     <use xlink:href="#m17dae0bb5a" x="367.1078" y="378.987592" style="fill: #1f77b4; fill-opacity: 0.25; stroke: #1f77b4; stroke-opacity: 0.25"/>
     <use xlink:href="#m17dae0bb5a" x="362.373283" y="397.248147" style="fill: #1f77b4; fill-opacity: 0.25; stroke: #1f77b4; stroke-opacity: 0.25"/>
    </g>
   </g>
   <g id="matplotlib.axis_1">
    <g id="text_5">
     <!-- trait value $X$ -->
     <g transform="translate(318.14976 403.260591) scale(0.15 -0.15)">
      <defs>
       <path id="DejaVuSans-74" d="M 1172 4494 
L 1172 3500 
L 2356 3500 
L 2356 3053 
L 1172 3053 
L 1172 1153 
Q 1172 725 1289 603 
Q 1406 481 1766 481 
L 2356 481 
L 2356 0 
L 1766 0 
Q 1100 0 847 248 
Q 594 497 594 1153 
L 594 3053 
L 172 3053 
L 172 3500 
L 594 3500 
L 594 4494 
L 1172 4494 
z
" transform="scale(0.015625)"/>
       <path id="DejaVuSans-61" d="M 2194 1759 
Q 1497 1759 1228 1600 
Q 959 1441 959 1056 
Q 959 750 1161 570 
Q 1363 391 1709 391 
Q 2188 391 2477 730 
Q 2766 1069 2766 1631 
L 2766 1759 
L 2194 1759 
z
M 3341 1997 
L 3341 0 
L 2766 0 
L 2766 531 
Q 2569 213 2275 61 
Q 1981 -91 1556 -91 
Q 1019 -91 701 211 
Q 384 513 384 1019 
Q 384 1609 779 1909 
Q 1175 2209 1959 2209 
L 2766 2209 
L 2766 2266 
Q 2766 2663 2505 2880 
Q 2244 3097 1772 3097 
Q 1472 3097 1187 3025 
Q 903 2953 641 2809 
L 641 3341 
Q 956 3463 1253 3523 
Q 1550 3584 1831 3584 
Q 2591 3584 2966 3190 
Q 3341 2797 3341 1997 
z
" transform="scale(0.015625)"/>
       <path id="DejaVuSans-69" d="M 603 3500 
L 1178 3500 
L 1178 0 
L 603 0 
L 603 3500 
z
M 603 4863 
L 1178 4863 
L 1178 4134 
L 603 4134 
L 603 4863 
z
" transform="scale(0.015625)"/>
       <path id="DejaVuSans-20" transform="scale(0.015625)"/>
       <path id="DejaVuSans-76" d="M 191 3500 
L 800 3500 
L 1894 563 
L 2988 3500 
L 3597 3500 
L 2284 0 
L 1503 0 
L 191 3500 
z
" transform="scale(0.015625)"/>
       <path id="DejaVuSans-6c" d="M 603 4863 
L 1178 4863 
L 1178 0 
L 603 0 
L 603 4863 
z
" transform="scale(0.015625)"/>
       <path id="DejaVuSans-75" d="M 544 1381 
L 544 3500 
L 1119 3500 
L 1119 1403 
Q 1119 906 1312 657 
Q 1506 409 1894 409 
Q 2359 409 2629 706 
Q 2900 1003 2900 1516 
L 2900 3500 
L 3475 3500 
L 3475 0 
L 2900 0 
L 2900 538 
Q 2691 219 2414 64 
Q 2138 -91 1772 -91 
Q 1169 -91 856 284 
Q 544 659 544 1381 
z
M 1991 3584 
L 1991 3584 
z
" transform="scale(0.015625)"/>
       <path id="DejaVuSans-65" d="M 3597 1894 
L 3597 1613 
L 953 1613 
Q 991 1019 1311 708 
Q 1631 397 2203 397 
Q 2534 397 2845 478 
Q 3156 559 3463 722 
L 3463 178 
Q 3153 47 2828 -22 
Q 2503 -91 2169 -91 
Q 1331 -91 842 396 
Q 353 884 353 1716 
Q 353 2575 817 3079 
Q 1281 3584 2069 3584 
Q 2775 3584 3186 3129 
Q 3597 2675 3597 1894 
z
M 3022 2063 
Q 3016 2534 2758 2815 
Q 2500 3097 2075 3097 
Q 1594 3097 1305 2825 
Q 1016 2553 972 2059 
L 3022 2063 
z
" transform="scale(0.015625)"/>
      </defs>
      <use xlink:href="#DejaVuSans-74" transform="translate(0 0.015625)"/>
      <use xlink:href="#DejaVuSans-72" transform="translate(39.208984 0.015625)"/>
      <use xlink:href="#DejaVuSans-61" transform="translate(80.322266 0.015625)"/>
      <use xlink:href="#DejaVuSans-69" transform="translate(141.601562 0.015625)"/>
      <use xlink:href="#DejaVuSans-74" transform="translate(169.384766 0.015625)"/>
      <use xlink:href="#DejaVuSans-20" transform="translate(208.59375 0.015625)"/>
      <use xlink:href="#DejaVuSans-76" transform="translate(240.380859 0.015625)"/>
      <use xlink:href="#DejaVuSans-61" transform="translate(299.560547 0.015625)"/>
      <use xlink:href="#DejaVuSans-6c" transform="translate(360.839844 0.015625)"/>
      <use xlink:href="#DejaVuSans-75" transform="translate(388.623047 0.015625)"/>
      <use xlink:href="#DejaVuSans-65" transform="translate(452.001953 0.015625)"/>
      <use xlink:href="#DejaVuSans-20" transform="translate(513.525391 0.015625)"/>
      <use xlink:href="#DejaVuSans-Oblique-58" transform="translate(545.3125 0.015625)"/>
     </g>
    </g>
   </g>
   <g id="matplotlib.axis_2">
    <g id="text_6">
     <!-- trait value $Y$ -->
     <g transform="translate(347.080229 419.143381) rotate(-90) scale(0.15 -0.15)">
      <use xlink:href="#DejaVuSans-74" transform="translate(0 0.015625)"/>
      <use xlink:href="#DejaVuSans-72" transform="translate(39.208984 0.015625)"/>
      <use xlink:href="#DejaVuSans-61" transform="translate(80.322266 0.015625)"/>
      <use xlink:href="#DejaVuSans-69" transform="translate(141.601562 0.015625)"/>
      <use xlink:href="#DejaVuSans-74" transform="translate(169.384766 0.015625)"/>
      <use xlink:href="#DejaVuSans-20" transform="translate(208.59375 0.015625)"/>
      <use xlink:href="#DejaVuSans-76" transform="translate(240.380859 0.015625)"/>
      <use xlink:href="#DejaVuSans-61" transform="translate(299.560547 0.015625)"/>
      <use xlink:href="#DejaVuSans-6c" transform="translate(360.839844 0.015625)"/>
      <use xlink:href="#DejaVuSans-75" transform="translate(388.623047 0.015625)"/>
      <use xlink:href="#DejaVuSans-65" transform="translate(452.001953 0.015625)"/>
      <use xlink:href="#DejaVuSans-20" transform="translate(513.525391 0.015625)"/>
      <use xlink:href="#DejaVuSans-Oblique-59" transform="translate(545.3125 0.015625)"/>
     </g>
    </g>
   </g>
   <g id="patch_7">
    <path d="M 364.19976 505.19952 
L 364.19976 242.037243 
" style="fill: none; stroke: #000000; stroke-width: 0.8; stroke-linejoin: miter; stroke-linecap: square"/>
   </g>
   <g id="patch_8">
    <path d="M 228.374069 377.862934 
L 500.025451 377.862934 
" style="fill: none; stroke: #000000; stroke-width: 0.8; stroke-linejoin: miter; stroke-linecap: square"/>
   </g>
   <g id="text_7">
    <!-- $\rho = \mathrm{corr}(X,Y)$ -->
    <g transform="translate(406.645289 273.871389) scale(0.18 -0.18)">
     <use xlink:href="#DejaVuSans-Oblique-3c1" transform="translate(0 0.125)"/>
     <use xlink:href="#DejaVuSans-3d" transform="translate(82.958984 0.125)"/>
     <use xlink:href="#DejaVuSans-63" transform="translate(186.230469 0.125)"/>
     <use xlink:href="#DejaVuSans-6f" transform="translate(241.210938 0.125)"/>
     <use xlink:href="#DejaVuSans-72" transform="translate(302.392578 0.125)"/>
     <use xlink:href="#DejaVuSans-72" transform="translate(343.505859 0.125)"/>
     <use xlink:href="#DejaVuSans-28" transform="translate(384.619141 0.125)"/>
     <use xlink:href="#DejaVuSans-Oblique-58" transform="translate(423.632812 0.125)"/>
     <use xlink:href="#DejaVuSans-2c" transform="translate(492.138672 0.125)"/>
     <use xlink:href="#DejaVuSans-Oblique-59" transform="translate(543.408203 0.125)"/>
     <use xlink:href="#DejaVuSans-29" transform="translate(604.492188 0.125)"/>
    </g>
   </g>
   <g id="text_8">
    <!-- B. Trait correlation in phenotype space -->
    <g transform="translate(232.618621 260.561572) scale(0.16 -0.16)">
     <defs>
      <path id="DejaVuSans-Bold-42" d="M 2456 2859 
Q 2741 2859 2887 2984 
Q 3034 3109 3034 3353 
Q 3034 3594 2887 3720 
Q 2741 3847 2456 3847 
L 1791 3847 
L 1791 2859 
L 2456 2859 
z
M 2497 819 
Q 2859 819 3042 972 
Q 3225 1125 3225 1434 
Q 3225 1738 3044 1889 
Q 2863 2041 2497 2041 
L 1791 2041 
L 1791 819 
L 2497 819 
z
M 3616 2497 
Q 4003 2384 4215 2081 
Q 4428 1778 4428 1338 
Q 4428 663 3972 331 
Q 3516 0 2584 0 
L 588 0 
L 588 4666 
L 2394 4666 
Q 3366 4666 3802 4372 
Q 4238 4078 4238 3431 
Q 4238 3091 4078 2852 
Q 3919 2613 3616 2497 
z
" transform="scale(0.015625)"/>
      <path id="DejaVuSans-Bold-54" d="M 31 4666 
L 4331 4666 
L 4331 3756 
L 2784 3756 
L 2784 0 
L 1581 0 
L 1581 3756 
L 31 3756 
L 31 4666 
z
" transform="scale(0.015625)"/>
      <path id="DejaVuSans-Bold-70" d="M 1656 506 
L 1656 -1331 
L 538 -1331 
L 538 3500 
L 1656 3500 
L 1656 2988 
Q 1888 3294 2169 3439 
Q 2450 3584 2816 3584 
Q 3463 3584 3878 3070 
Q 4294 2556 4294 1747 
Q 4294 938 3878 423 
Q 3463 -91 2816 -91 
Q 2450 -91 2169 54 
Q 1888 200 1656 506 
z
M 2400 2772 
Q 2041 2772 1848 2508 
Q 1656 2244 1656 1747 
Q 1656 1250 1848 986 
Q 2041 722 2400 722 
Q 2759 722 2948 984 
Q 3138 1247 3138 1747 
Q 3138 2247 2948 2509 
Q 2759 2772 2400 2772 
z
" transform="scale(0.015625)"/>
      <path id="DejaVuSans-Bold-68" d="M 4056 2131 
L 4056 0 
L 2931 0 
L 2931 347 
L 2931 1625 
Q 2931 2084 2911 2256 
Q 2891 2428 2841 2509 
Q 2775 2619 2662 2680 
Q 2550 2741 2406 2741 
Q 2056 2741 1856 2470 
Q 1656 2200 1656 1722 
L 1656 0 
L 538 0 
L 538 4863 
L 1656 4863 
L 1656 2988 
Q 1909 3294 2193 3439 
Q 2478 3584 2822 3584 
Q 3428 3584 3742 3212 
Q 4056 2841 4056 2131 
z
" transform="scale(0.015625)"/>
      <path id="DejaVuSans-Bold-79" d="M 78 3500 
L 1197 3500 
L 2138 1125 
L 2938 3500 
L 4056 3500 
L 2584 -331 
Q 2363 -916 2067 -1148 
Q 1772 -1381 1288 -1381 
L 641 -1381 
L 641 -647 
L 991 -647 
Q 1275 -647 1404 -556 
Q 1534 -466 1606 -231 
L 1638 -134 
L 78 3500 
z
" transform="scale(0.015625)"/>
     </defs>
     <use xlink:href="#DejaVuSans-Bold-42"/>
     <use xlink:href="#DejaVuSans-Bold-2e" transform="translate(76.220703 0)"/>
     <use xlink:href="#DejaVuSans-Bold-20" transform="translate(114.208984 0)"/>
     <use xlink:href="#DejaVuSans-Bold-54" transform="translate(149.023438 0)"/>
     <use xlink:href="#DejaVuSans-Bold-72" transform="translate(206.236328 0)"/>
     <use xlink:href="#DejaVuSans-Bold-61" transform="translate(255.552734 0)"/>
     <use xlink:href="#DejaVuSans-Bold-69" transform="translate(323.033203 0)"/>
     <use xlink:href="#DejaVuSans-Bold-74" transform="translate(357.310547 0)"/>
     <use xlink:href="#DejaVuSans-Bold-20" transform="translate(405.113281 0)"/>
     <use xlink:href="#DejaVuSans-Bold-63" transform="translate(439.927734 0)"/>
     <use xlink:href="#DejaVuSans-Bold-6f" transform="translate(499.205078 0)"/>
     <use xlink:href="#DejaVuSans-Bold-72" transform="translate(567.90625 0)"/>
     <use xlink:href="#DejaVuSans-Bold-72" transform="translate(617.222656 0)"/>
     <use xlink:href="#DejaVuSans-Bold-65" transform="translate(666.539062 0)"/>
     <use xlink:href="#DejaVuSans-Bold-6c" transform="translate(734.361328 0)"/>
     <use xlink:href="#DejaVuSans-Bold-61" transform="translate(768.638672 0)"/>
     <use xlink:href="#DejaVuSans-Bold-74" transform="translate(836.119141 0)"/>
     <use xlink:href="#DejaVuSans-Bold-69" transform="translate(883.921875 0)"/>
     <use xlink:href="#DejaVuSans-Bold-6f" transform="translate(918.199219 0)"/>
     <use xlink:href="#DejaVuSans-Bold-6e" transform="translate(986.900391 0)"/>
     <use xlink:href="#DejaVuSans-Bold-20" transform="translate(1058.091797 0)"/>
     <use xlink:href="#DejaVuSans-Bold-69" transform="translate(1092.90625 0)"/>
     <use xlink:href="#DejaVuSans-Bold-6e" transform="translate(1127.183594 0)"/>
     <use xlink:href="#DejaVuSans-Bold-20" transform="translate(1198.375 0)"/>
     <use xlink:href="#DejaVuSans-Bold-70" transform="translate(1233.189453 0)"/>
     <use xlink:href="#DejaVuSans-Bold-68" transform="translate(1304.771484 0)"/>
     <use xlink:href="#DejaVuSans-Bold-65" transform="translate(1375.962891 0)"/>
     <use xlink:href="#DejaVuSans-Bold-6e" transform="translate(1443.785156 0)"/>
     <use xlink:href="#DejaVuSans-Bold-6f" transform="translate(1514.976562 0)"/>
     <use xlink:href="#DejaVuSans-Bold-74" transform="translate(1583.677734 0)"/>
     <use xlink:href="#DejaVuSans-Bold-79" transform="translate(1631.480469 0)"/>
     <use xlink:href="#DejaVuSans-Bold-70" transform="translate(1696.666016 0)"/>
     <use xlink:href="#DejaVuSans-Bold-65" transform="translate(1768.248047 0)"/>
     <use xlink:href="#DejaVuSans-Bold-20" transform="translate(1836.070312 0)"/>
     <use xlink:href="#DejaVuSans-Bold-73" transform="translate(1870.884766 0)"/>
     <use xlink:href="#DejaVuSans-Bold-70" transform="translate(1930.40625 0)"/>
     <use xlink:href="#DejaVuSans-Bold-61" transform="translate(2001.988281 0)"/>
     <use xlink:href="#DejaVuSans-Bold-63" transform="translate(2069.46875 0)"/>
     <use xlink:href="#DejaVuSans-Bold-65" transform="translate(2128.746094 0)"/>
    </g>
   </g>
  </g>
 </g>
 <defs>
  <clipPath id="p5edbd58cfe">
   <rect x="7.2" y="7.2" width="713.99952" height="228.836763"/>
  </clipPath>
  <clipPath id="paec597667f">
   <rect x="228.374069" y="242.037243" width="271.651383" height="263.162277"/>
  </clipPath>
 </defs>
</svg>
